<svg width="48" height="48" viewBox="0 0 48 48" fill="none" xmlns="http://www.w3.org/2000/svg">
<rect width="48" height="48" fill="white"/>
<path d="M35.1669 39.0661C34.5973 39.7832 33.794 39.9793 33.0283 40.2229C29.9802 41.1898 26.9271 42.138 23.879 43.1011C22.4112 43.5658 21.1333 43.2697 20.0415 42.1842C19.0971 41.2448 18.1714 40.2841 17.2007 39.3734C16.9746 39.1611 16.5986 39.0099 16.2888 39.0024C14.7098 38.9662 13.1308 38.9849 11.5068 38.9849C11.5068 33.5046 11.5068 28.0668 11.5068 22.5665C12.0902 22.5665 12.6486 22.549 13.2058 22.5703C13.9103 22.5978 14.3963 22.3167 14.6911 21.6658C14.9572 21.08 15.2607 20.5103 15.5518 19.9369C16.2376 18.5865 17.3432 17.8857 18.8547 17.8782C21.7904 17.8632 24.726 17.8682 27.6617 17.877C28.5886 17.8795 29.0395 18.3667 29.0058 19.2774C29.0021 19.381 28.9946 19.4847 28.9858 19.5884C28.8584 21.2124 28.6823 21.3648 27.0808 21.3823C25.6254 21.3973 24.1639 21.371 22.7173 21.496C21.2844 21.6196 20.1339 22.3929 19.4681 23.6546C17.9753 26.4841 16.5624 29.3573 15.1383 32.2217C14.846 32.8101 15.0346 33.4572 15.5855 33.7432C18.1551 35.0811 20.7498 35.4259 23.3481 33.8132C24.4125 33.1524 25.2269 32.2492 25.8453 31.1611C26.1439 30.6352 26.6723 30.5577 27.1083 30.9937C29.7878 33.672 32.4611 36.3541 35.1669 39.0661Z" fill="black"/>
<path d="M36.986 37.7607C36.8461 37.5558 36.7349 37.3235 36.5625 37.1511C33.9941 34.5702 31.4058 32.0106 28.8524 29.4159C28.1603 28.7126 27.3683 28.4815 26.4102 28.3803C25.0972 28.2417 24.3902 28.6589 23.818 29.9006C22.8012 32.108 20.5314 33.0112 18.299 32.3528C18.1441 32.3079 17.9992 32.2317 17.7881 32.1442C18.5539 30.6127 19.3046 29.1136 20.0542 27.6146C20.4814 26.7601 20.8936 25.8969 21.3383 25.0512C21.7668 24.2355 22.4414 23.752 23.3858 23.7508C27.9217 23.7445 32.4588 23.7495 36.9947 23.7508C37.0347 23.7508 37.0747 23.767 37.1609 23.787C37.1609 28.3841 37.1609 32.9912 37.1609 37.5983C37.1022 37.6532 37.0447 37.707 36.986 37.7607Z" fill="black"/>
<path d="M9.04432 38.9849C7.85507 38.9849 6.71204 39.0037 5.57151 38.9787C4.77326 38.9612 4.34228 38.4503 4.34103 37.5696C4.33728 34.0343 4.33978 30.499 4.33978 26.9638C4.33978 25.9656 4.33479 24.9675 4.34103 23.9694C4.34728 23.0138 4.75952 22.5815 5.69518 22.5715C6.79574 22.559 7.89754 22.569 9.04557 22.569C9.04432 28.0393 9.04432 33.4734 9.04432 38.9849Z" fill="black"/>
<path d="M39.623 22.574C40.8448 22.574 42.009 22.5528 43.1721 22.5815C43.9178 22.6003 44.3238 23.0899 44.3288 23.9157C44.3376 25.4959 44.3313 27.0762 44.3313 28.6564C44.3313 31.5883 44.3326 34.5203 44.3301 37.4522C44.3288 38.5615 43.9004 38.9824 42.7786 38.9849C41.7417 38.9874 40.7049 38.9849 39.623 38.9849C39.623 33.5121 39.623 28.0781 39.623 22.574Z" fill="black"/>
<path d="M23.182 9.07629C23.182 8.51415 23.1732 7.952 23.1844 7.3911C23.1994 6.67905 23.6804 6.16438 24.32 6.15313C24.9558 6.14189 25.4743 6.66156 25.4843 7.36112C25.4992 8.5054 25.498 9.65093 25.4855 10.7952C25.4768 11.5397 25.032 11.997 24.3512 12.0032C23.6429 12.0107 23.1994 11.5447 23.1844 10.7627C23.1732 10.2006 23.182 9.63844 23.182 9.07629Z" fill="black"/>
<path d="M14.9029 10.6902C15.3251 10.9488 15.6537 11.0837 15.8948 11.3111C16.6206 11.9932 17.3189 12.7052 18.0147 13.4185C18.5731 13.9907 18.6118 14.7077 18.1346 15.1862C17.6562 15.6659 16.9279 15.6321 16.3645 15.0812C15.6224 14.3554 14.8954 13.6147 14.1621 12.8814C13.7811 12.5004 13.6599 12.0032 13.9073 11.5722C14.1084 11.2262 14.5306 11.0075 14.9029 10.6902Z" fill="black"/>
<path d="M31.2196 15.6209C30.9385 15.3973 30.4901 15.2112 30.3689 14.8976C30.234 14.5516 30.2415 13.9545 30.4601 13.6996C31.2546 12.774 32.1415 11.922 33.0384 11.09C33.4507 10.7078 34.1165 10.8002 34.515 11.1825C34.9235 11.5747 35.0284 12.2893 34.6387 12.7078C33.8042 13.6022 32.926 14.4567 32.0403 15.3011C31.8792 15.4548 31.5956 15.481 31.2196 15.6209Z" fill="black"/>
</svg>
