<svg width="49" height="48" viewBox="0 0 49 48" fill="none" xmlns="http://www.w3.org/2000/svg">
<rect x="0.666992" width="48" height="48" rx="6" fill="white"/>
<path d="M36.5144 31.0781C36.5144 31.3845 36.4674 31.6837 36.3806 31.9657C36.2929 32.2469 36.1655 32.5099 36.0046 32.7485C35.6828 33.224 35.2299 33.601 34.693 33.8287C34.514 33.9047 34.326 33.9634 34.1307 34.0032C33.9364 34.043 33.7357 34.0638 33.5305 34.0638C33.2241 34.0638 32.9249 34.0168 32.6437 33.9291C32.3626 33.8414 32.0996 33.7139 31.8609 33.553C31.3855 33.2312 31.0085 32.7775 30.7807 32.2405C30.6298 31.8826 30.5457 31.4875 30.5457 31.079V30.0476C30.5457 29.9807 30.5511 29.9147 30.5629 29.8514C30.552 29.7872 30.5457 29.7222 30.5457 29.6553V22.6525C30.5457 21.4285 30.3604 20.2516 30.016 19.1443C29.6707 18.037 29.1681 16.9992 28.5317 16.0582C27.259 14.1744 25.4556 12.6775 23.3404 11.7826C22.6354 11.4843 21.895 11.2529 21.1276 11.0956C20.3601 10.9383 19.5647 10.8561 18.7484 10.8561C17.6691 10.8561 16.6269 11.0007 15.6362 11.271C14.6455 11.5413 13.7072 11.9372 12.8385 12.4416C11.1011 13.4495 9.64216 14.8913 8.61258 16.6151C8.28897 17.1565 7.58751 17.3337 7.04606 17.0101C6.5046 16.6865 6.32743 15.985 6.65104 15.4436C7.57305 13.8996 8.78071 12.5492 10.2017 11.4617C11.6227 10.3752 13.2588 9.55171 15.0351 9.0672C15.6271 8.90539 16.2346 8.78155 16.8547 8.69839C17.4748 8.61523 18.1066 8.57184 18.7484 8.57184C20.2047 8.57184 21.6121 8.7933 22.9355 9.20459C24.2597 9.61679 25.499 10.2179 26.6226 10.9772C28.8689 12.4958 30.6533 14.6436 31.7226 17.1719C32.4358 18.8577 32.83 20.7126 32.83 22.6534V29.6562C32.83 29.7231 32.8245 29.789 32.8128 29.8523C32.8236 29.9165 32.83 29.9816 32.83 30.0485V31.0799C32.83 31.154 32.8408 31.2227 32.8616 31.2878C32.8815 31.3529 32.9113 31.4143 32.9493 31.4695C33.0252 31.5816 33.1337 31.6719 33.2584 31.7244C33.3416 31.7587 33.4302 31.7786 33.5296 31.7786C33.6046 31.7786 33.6733 31.7678 33.7384 31.747C33.8035 31.7271 33.865 31.6973 33.9201 31.6593C34.0322 31.5834 34.1226 31.4749 34.1741 31.3501C34.2094 31.267 34.2283 31.1775 34.2292 31.0781C34.2292 30.4471 34.7409 29.9355 35.3718 29.9355C36.0028 29.9355 36.5144 30.4462 36.5144 31.0781Z" fill="black"/>
<path d="M28.4695 38.8581C28.0628 39.3399 27.3414 39.4014 26.8587 38.9946C25.7333 38.0455 24.814 36.8613 24.174 35.5153C23.5349 34.1703 23.177 32.6616 23.177 31.077V29.0712H14.3211V36.6037C14.3211 37.1009 14.2452 37.5845 14.1042 38.0382C13.9622 38.4929 13.7562 38.9178 13.4958 39.3028C12.9761 40.0721 12.2412 40.6832 11.3734 41.0502C10.7958 41.2951 10.1576 41.4298 9.49499 41.4298C8.99692 41.4298 8.51422 41.3539 8.06044 41.2129C7.60576 41.0709 7.18091 40.8648 6.79584 40.6054C6.02568 40.0847 5.41552 39.3508 5.04762 38.483C4.80356 37.9045 4.66797 37.2672 4.66797 36.6037V22.6505C4.66797 22.0196 5.1796 21.5079 5.81055 21.5079C6.44149 21.5079 6.95312 22.0196 6.95312 22.6505V36.6046C6.95312 36.8703 6.9938 37.1225 7.06792 37.3612C7.14204 37.5989 7.24961 37.8222 7.38701 38.0247C7.6609 38.4314 8.05141 38.7551 8.50609 38.9467C8.80981 39.0751 9.14065 39.1456 9.49499 39.1456C9.76075 39.1456 10.0129 39.1058 10.2516 39.0317C10.4893 38.9575 10.7126 38.85 10.9151 38.7126C11.3209 38.4387 11.6455 38.0482 11.8371 37.5935C11.9645 37.2898 12.036 36.9589 12.036 36.6046V27.9304C12.036 27.9304 12.036 27.9304 12.036 27.9295V23.756C12.036 23.1251 12.5476 22.6135 13.1785 22.6135C13.8095 22.6135 14.3211 23.1251 14.3211 23.756V26.7878H23.177V22.6514C23.177 22.1904 23.1074 21.7493 22.9781 21.3344C22.8489 20.9195 22.6599 20.5299 22.4213 20.1764C21.9431 19.4687 21.2652 18.9064 20.4715 18.571C19.9427 18.3478 19.3633 18.2239 18.7477 18.2239C18.105 18.2248 17.5003 18.3595 16.9525 18.6027C16.6786 18.7247 16.4182 18.8739 16.1769 19.0465C15.9355 19.2192 15.7114 19.4162 15.5089 19.6332C15.0786 20.0942 14.3555 20.1204 13.8945 19.6892C13.4325 19.2589 13.4072 18.5358 13.8384 18.0748C14.4504 17.4185 15.1925 16.8843 16.025 16.5146C16.8576 16.144 17.7823 15.9388 18.7486 15.9388C19.4419 15.9388 20.1135 16.0445 20.7454 16.2407C21.3763 16.4369 21.9675 16.7243 22.5036 17.0859C23.5747 17.8099 24.4244 18.8323 24.9351 20.039C25.275 20.8426 25.463 21.7285 25.463 22.6523V27.9313C25.463 27.9322 25.463 27.9322 25.463 27.9322V30.6784C25.463 30.6793 25.463 30.6793 25.463 30.6793V31.0815C25.463 32.3226 25.7415 33.4914 26.2386 34.5391C26.7367 35.5859 27.4544 36.5115 28.3321 37.2518C28.8148 37.655 28.8763 38.3754 28.4695 38.8581Z" fill="black"/>
<path d="M40.1991 22.3602V31.0768C40.2 32.0974 39.9677 33.0718 39.5555 33.9387C39.1424 34.8065 38.5494 35.5694 37.8226 36.1805C37.2432 36.6686 36.5797 37.06 35.8547 37.3294C35.1307 37.5997 34.3452 37.7461 33.5307 37.7461C32.8428 37.7461 32.1757 37.6412 31.5484 37.446C30.9211 37.2507 30.3335 36.966 29.802 36.6062C28.739 35.8876 27.8947 34.8716 27.3876 33.6739C27.2755 33.4072 27.1788 33.1324 27.1019 32.8495C26.9455 32.2845 26.8633 31.6888 26.8633 31.0777C26.8633 30.4468 27.3749 29.9352 28.0059 29.9352C28.6368 29.9352 29.1484 30.4468 29.1484 31.0777C29.1484 31.5342 29.218 31.9708 29.3455 32.3821C29.4729 32.7934 29.6601 33.1785 29.896 33.5283C30.3688 34.2289 31.0413 34.7857 31.8259 35.1183C32.088 35.2286 32.3628 35.3145 32.6476 35.3733C32.9323 35.432 33.2279 35.4618 33.5325 35.4618C34.0731 35.4618 34.5856 35.3651 35.0602 35.1889C35.5348 35.0126 35.9714 34.755 36.3528 34.4341C36.7117 34.1322 37.0217 33.7733 37.2685 33.3728C37.5153 32.9724 37.6988 32.5295 37.8063 32.0585C37.8778 31.7439 37.9157 31.4167 37.9157 31.0777V22.3611C37.9157 21.7301 38.4274 21.2185 39.0583 21.2185C39.6874 21.2185 40.1991 21.7301 40.1991 22.3602Z" fill="black"/>
<path d="M29.1465 22.6506V26.3767C29.1465 27.0076 28.6349 27.5192 28.0039 27.5192C27.373 27.5192 26.8613 27.0076 26.8613 26.3767V22.6506C26.8613 21.8082 26.7339 20.9991 26.4971 20.238C26.2602 19.4769 25.914 18.7637 25.4765 18.1156C24.6015 16.8202 23.3604 15.7897 21.906 15.1751C21.4205 14.9699 20.9125 14.8108 20.3846 14.7032C19.8567 14.5947 19.3098 14.5387 18.7476 14.5378C17.9051 14.5378 17.0961 14.6652 16.335 14.9021C15.5739 15.1389 14.8607 15.4851 14.2125 15.9226C12.9172 16.7976 11.8876 18.0387 11.272 19.4932C11.0668 19.9777 10.9078 20.4866 10.8002 21.0145C10.6917 21.5424 10.6357 22.0893 10.6348 22.6506C10.6348 23.2816 10.1231 23.7932 9.49219 23.7932C8.86124 23.7932 8.34961 23.2816 8.34961 22.6506C8.34961 21.65 8.49153 20.6791 8.75729 19.7607C8.77627 19.6929 8.79706 19.626 8.81785 19.5592C9.12157 18.5811 9.56631 17.6663 10.1267 16.8365C11.2476 15.1778 12.8322 13.8607 14.7007 13.0707C15.9436 12.5446 17.3131 12.2535 18.744 12.2535H18.7476C19.8224 12.2535 20.8619 12.4172 21.8391 12.7209C22.8171 13.0255 23.7319 13.4693 24.5617 14.0298C26.2204 15.1507 27.5375 16.7362 28.3275 18.6037C28.8554 19.8475 29.1465 21.2179 29.1465 22.6506Z" fill="black"/>
<path d="M10.6367 27.022V36.5748C10.6367 37.2057 10.1251 37.7174 9.49414 37.7174C8.86319 37.7174 8.35156 37.2057 8.35156 36.5748V27.022C8.35156 26.391 8.86319 25.8794 9.49414 25.8794C10.1251 25.8794 10.6367 26.391 10.6367 27.022Z" fill="black"/>
<path d="M44.6678 14.1789C44.6678 13.407 44.5105 12.6666 44.2266 11.995C43.8 10.9862 43.0904 10.132 42.1955 9.52725C41.748 9.22534 41.2536 8.98489 40.7257 8.82038C40.1978 8.65586 39.6364 8.56818 39.0579 8.56818C38.286 8.56818 37.5456 8.72546 36.874 9.0093C35.8652 9.43596 35.011 10.1455 34.4063 11.0404C34.1043 11.4879 33.8639 11.9823 33.6994 12.5102C33.5349 13.0381 33.4472 13.5995 33.4472 14.178C33.4472 14.95 33.6045 15.6903 33.8883 16.3619C34.2978 17.33 34.9694 18.1562 35.8146 18.7564C35.529 19.0159 35.2731 19.3097 35.0562 19.6306C34.7959 20.0156 34.5898 20.4405 34.4487 20.8952C34.3077 21.3489 34.2318 21.8325 34.2318 22.3297V26.703C34.2318 27.3339 34.7434 27.8455 35.3744 27.8455C36.0053 27.8455 36.517 27.3339 36.517 26.703V22.3315C36.517 21.9772 36.5884 21.6463 36.7158 21.3426C36.9075 20.8879 37.232 20.4974 37.6378 20.2235C37.8412 20.0861 38.0636 19.9786 38.3022 19.9045C38.54 19.8303 38.7931 19.7906 39.0588 19.7906C39.4132 19.7906 39.744 19.862 40.0477 19.9894C40.5024 20.1811 40.8929 20.5056 41.1668 20.9114C41.3042 21.1148 41.4118 21.3372 41.4859 21.5758C41.56 21.8136 41.5998 22.0667 41.5998 22.3324V31.078C41.5998 32.1953 41.3738 33.2538 40.9661 34.2183C40.3542 35.6646 39.33 36.8985 38.0419 37.769C37.3974 38.2038 36.6887 38.5481 35.9312 38.7841C35.1737 39.0191 34.3692 39.1466 33.5312 39.1466C32.9003 39.1466 32.3887 39.6582 32.3887 40.2891C32.3887 40.9201 32.9003 41.4317 33.5312 41.4317C34.9577 41.4317 36.3226 41.1425 37.5619 40.6173C39.4213 39.8308 40.9996 38.5192 42.1159 36.8677C42.6737 36.0415 43.1166 35.1304 43.4194 34.1568C43.7222 33.1833 43.8849 32.1483 43.8849 31.0789V22.3315C43.8849 21.668 43.7503 21.0308 43.5053 20.4522C43.1383 19.5845 42.5272 18.8496 41.758 18.3298C41.3729 18.0695 40.9481 17.8634 40.4934 17.7223C40.0396 17.5813 39.556 17.5054 39.0588 17.5054C38.5969 17.5054 38.1621 17.4123 37.7653 17.2442C37.1696 16.9929 36.6598 16.5698 36.3009 16.0383C36.1219 15.7726 35.98 15.4806 35.8833 15.1687C35.7866 14.8569 35.7341 14.526 35.7341 14.1798C35.7341 13.7179 35.8273 13.2831 35.9954 12.8854C36.2467 12.2897 36.6697 11.7799 37.2012 11.421C37.467 11.242 37.759 11.1001 38.0708 11.0034C38.3827 10.9067 38.7135 10.8542 39.0597 10.8542C39.5216 10.8542 39.9564 10.9473 40.3542 11.1155C40.9499 11.3668 41.4597 11.7898 41.8185 12.3213C41.9975 12.5871 42.1394 12.8791 42.2362 13.1909C42.3329 13.5028 42.3853 13.8336 42.3853 14.1798C42.3853 14.4826 42.3455 14.7737 42.2705 15.0503C42.1955 15.3269 42.0861 15.5891 41.9469 15.8322C41.6323 16.3791 41.8213 17.0778 42.369 17.3924C42.9159 17.707 43.6147 17.5181 43.9292 16.9703C44.1652 16.559 44.3514 16.1151 44.4779 15.6469C44.6009 15.1778 44.6678 14.6851 44.6678 14.1789Z" fill="black"/>
<path d="M39.0565 16.4062C40.2861 16.4062 41.2829 15.4094 41.2829 14.1798C41.2829 12.9502 40.2861 11.9534 39.0565 11.9534C37.8269 11.9534 36.8301 12.9502 36.8301 14.1798C36.8301 15.4094 37.8269 16.4062 39.0565 16.4062Z" fill="black"/>
<path d="M37.3888 19.5373C36.8609 19.3728 36.3665 19.1332 35.919 18.8304C35.8838 18.806 35.8485 18.7816 35.8142 18.7563C35.5276 19.0166 35.2727 19.3095 35.0549 19.6313C34.7945 20.0164 34.5884 20.4412 34.4474 20.8959C34.3064 21.3497 34.2305 21.8333 34.2305 22.3305V26.7037C34.2305 27.3347 34.7421 27.8463 35.373 27.8463C36.004 27.8463 36.5156 27.3347 36.5156 26.7037V22.3314C36.5156 21.977 36.587 21.6462 36.7145 21.3425C36.9061 20.8878 37.2306 20.4973 37.6365 20.2234C37.8399 20.086 38.0623 19.9784 38.3009 19.9043C38.5386 19.8302 38.7917 19.7904 39.0575 19.7904C38.4781 19.7895 37.9167 19.7018 37.3888 19.5373Z" fill="black"/>
<path d="M17.3404 26.7868H14.3213V29.072H17.3404V26.7868Z" fill="black"/>
<path d="M20.1572 26.7868H23.1764V29.072H20.1572V26.7868Z" fill="black"/>
</svg>
