<svg width="49" height="48" viewBox="0 0 49 48" fill="none" xmlns="http://www.w3.org/2000/svg">
<path fill-rule="evenodd" clip-rule="evenodd" d="M41.793 14.24L41.513 13.74C41.1518 13.1354 40.6424 12.6329 40.033 12.28L26.613 4.54C26.0054 4.1875 25.3156 4.00124 24.613 4H24.033C23.3304 4.00124 22.6406 4.1875 22.033 4.54L8.61301 12.3C8.00695 12.6505 7.50353 13.1539 7.15301 13.76L6.87301 14.26C6.52051 14.8677 6.33425 15.5575 6.33301 16.26V31.76C6.33425 32.4626 6.52051 33.1524 6.87301 33.76L7.15301 34.26C7.51259 34.859 8.01399 35.3604 8.61301 35.72L22.053 43.46C22.6576 43.8198 23.3494 44.0066 24.053 44H24.613C25.3156 43.9988 26.0054 43.8126 26.613 43.46L40.033 35.7C40.645 35.3574 41.1504 34.852 41.493 34.24L41.793 33.74C42.1412 33.1306 42.3272 32.442 42.333 31.74V16.24C42.3318 15.5375 42.1456 14.8477 41.793 14.24ZM24.033 8H24.613L36.333 14.76L24.333 21.68L12.333 14.76L24.033 8ZM26.333 39L38.033 32.24L38.333 31.74V18.22L26.333 25.16V39Z" fill="black"/>
</svg>
