<svg width="1440" height="920" viewBox="0 0 1440 920" fill="none" xmlns="http://www.w3.org/2000/svg">
<path opacity="0.1" d="M-185.737 -39.9994V12.667M-185.737 12.667V70.365M-185.737 12.667L-128.04 12.667M-185.737 12.667L-253.843 12.667M-185.737 70.365L-185.738 128.063M-185.737 70.365L-128.04 70.365M-185.737 70.365L-253.843 70.365M-185.738 128.063V185.76M-185.738 128.063L-128.04 128.063M-185.738 128.063H-253.843M-185.738 185.76V243.458M-185.738 185.76L-128.04 185.76M-185.738 185.76H-253.843M-185.738 243.458V301.155M-185.738 243.458H-128.04M-185.738 243.458H-253.843M-185.738 301.155L-185.738 358.853M-185.738 301.155H-128.04M-185.738 301.155H-253.843M-185.738 358.853V434.166M-185.738 358.853H-128.04M-185.738 358.853H-253.843M-128.04 -39.9997V12.667M-128.04 12.667V70.365M-128.04 12.667L-70.3422 12.6671M-128.04 70.365L-128.04 128.063M-128.04 70.365H-70.3422M-128.04 128.063V185.76M-128.04 128.063H-70.3422M-128.04 185.76V243.458M-128.04 185.76H-70.3422M-128.04 243.458V301.155M-128.04 243.458H-70.3422M-128.04 301.155L-128.04 358.853M-128.04 301.155H-70.3422M-128.04 358.853V434.165M-128.04 358.853H-70.3422M-70.3422 -39.9997V12.6671M-70.3422 12.6671V70.365M-70.3422 12.6671L-12.6445 12.6671M-70.3422 70.365L-70.3422 128.063M-70.3422 70.365L-12.6445 70.365M-70.3422 128.063V185.76M-70.3422 128.063L-12.6445 128.063M-70.3422 185.76V243.458M-70.3422 185.76L-12.6445 185.76M-70.3422 243.458V301.155M-70.3422 243.458L-12.6445 243.458M-70.3422 301.155L-70.3422 358.853M-70.3422 301.155L-12.6445 301.155M-70.3422 358.853V434.165M-70.3422 358.853L-12.6445 358.853M-12.6445 -39.9997V12.6671M-12.6445 12.6671V70.365M-12.6445 12.6671L45.0532 12.6671M-12.6445 70.365L-12.6445 128.063M-12.6445 70.365L45.0532 70.365M-12.6445 128.063V185.76M-12.6445 128.063H45.0532M-12.6445 185.76V243.458M-12.6445 185.76H45.0532M-12.6445 243.458V301.155M-12.6445 243.458H45.0532M-12.6445 301.155L-12.6445 358.853M-12.6445 301.155H45.0532M-12.6445 358.853V434.165M-12.6445 358.853H45.0532M45.0532 -39.9997V12.6671M45.0532 12.6671V70.365M45.0532 12.6671L102.751 12.6667M45.0532 70.365V128.063M45.0532 70.365L102.751 70.3646M45.0532 128.063V185.76M45.0532 128.063L102.751 128.062M45.0532 185.76L45.0532 243.458M45.0532 185.76L102.751 185.76M45.0532 243.458V301.155M45.0532 243.458L102.751 243.457M45.0532 301.155V358.853M45.0532 301.155L102.751 301.155M45.0532 358.853V434.165M45.0532 358.853L102.751 358.853M102.751 -39.9997V12.6667M102.751 12.6667V70.3646M102.751 12.6667L160.448 12.6667M102.751 12.6667L74.4133 12.6667M102.751 70.3646V128.062M102.751 70.3646L160.448 70.3646M102.751 70.3646H74.4132M102.751 128.062V185.76M102.751 128.062H160.448M102.751 128.062H74.4132M102.751 185.76L102.751 243.457M102.751 185.76L160.448 185.76M102.751 185.76H74.4132M102.751 243.457V301.155M102.751 243.457H160.448M102.751 243.457H74.4132M102.751 301.155V358.853M102.751 301.155H160.448M102.751 301.155H74.4132M102.751 358.853V434.165M102.751 358.853H160.448M102.751 358.853H74.4132M160.448 -39.9997V12.6667M160.448 12.6667V70.3646M160.448 12.6667L219.687 12.6671M160.448 70.3646V128.062M160.448 70.3646L219.687 70.365M160.448 128.062V185.76M160.448 128.062L219.687 128.063M160.448 185.76L160.448 243.457M160.448 185.76L219.687 185.76M160.448 243.457V301.155M160.448 243.457L219.687 243.458M160.448 301.155V358.853M160.448 301.155L219.687 301.155M160.448 358.853V434.165M160.448 358.853L219.687 358.853M220.322 12.6671H219.687M219.687 12.6671V-39.9997M219.687 12.6671V70.365M219.687 12.6671L277.385 12.6667M220.322 70.365H219.687M219.687 70.365V128.063M219.687 70.365L277.385 70.3646M220.322 128.063H219.687M219.687 128.063V185.76M219.687 128.063L277.385 128.062M220.322 185.76H219.687M219.687 185.76V243.458M219.687 185.76L277.385 185.76M220.322 243.458H219.687M219.687 243.458V301.155M219.687 243.458L277.385 243.457M220.322 301.155H219.687M219.687 301.155V358.853M219.687 301.155L277.385 301.155M220.322 358.853H219.687M219.687 358.853V434.165M219.687 358.853L277.385 358.853M277.385 -40V12.6667M277.385 12.6667V70.3646M277.385 12.6667L335.082 12.6667M277.385 70.3646V128.062M277.385 70.3646L335.082 70.3647M277.385 128.062V185.76M277.385 128.062H335.082M277.385 185.76L277.385 243.457M277.385 185.76L335.082 185.76M277.385 243.457V301.155M277.385 243.457H335.082M277.385 301.155V358.853M277.385 301.155H335.082M277.385 358.853V434.165M277.385 358.853H335.082M335.082 -40V12.6667M335.082 12.6667V70.3647M335.082 12.6667L392.78 12.6667M335.082 70.3647V128.062M335.082 70.3647H392.78M335.082 128.062V185.76M335.082 128.062L392.78 128.062M335.082 185.76V243.457M335.082 185.76H392.78M335.082 243.457V301.155M335.082 243.457L392.78 243.457M335.082 301.155V358.853M335.082 301.155L392.78 301.155M335.082 358.853V434.165M335.082 358.853L392.78 358.853M392.78 -40V12.6667M392.78 12.6667V70.3647M392.78 12.6667L450.478 12.6667M392.78 70.3647V128.062M392.78 70.3647L450.478 70.3647M392.78 128.062V185.76M392.78 128.062H450.478M392.78 185.76V243.457M392.78 185.76L450.478 185.76M392.78 243.457V301.155M392.78 243.457H450.478M392.78 301.155V358.853M392.78 301.155H450.478M392.78 358.853V434.165M392.78 358.853H450.478M450.478 -40V12.6667M450.478 12.6667V70.3647M450.478 12.6667L508.176 12.6667M450.478 70.3647V128.062M450.478 70.3647L508.176 70.3647M450.478 128.062V185.76M450.478 128.062H508.176M450.478 185.76V243.457M450.478 185.76H508.176M450.478 243.457V301.155M450.478 243.457H508.176M450.478 301.155V358.853M450.478 301.155H508.176M450.478 358.853V434.165M450.478 358.853H508.176M508.176 -40V12.6667M508.176 12.6667V70.3647M508.176 12.6667L565.873 12.6668M508.176 70.3647V128.062M508.176 70.3647H565.873M508.176 128.062V185.76M508.176 128.062L565.873 128.062M508.176 185.76V243.457M508.176 185.76L565.873 185.76M508.176 243.457V301.155M508.176 243.457H565.873M508.176 301.155V358.853M508.176 301.155H565.873M508.176 358.853V434.165M508.176 358.853H565.873M565.873 -40V12.6668M565.873 12.6668V70.3647M565.873 12.6668L625.112 12.6668M565.873 70.3647V128.062M565.873 70.3647L625.112 70.3647M565.873 128.062V185.76M565.873 128.062H625.112M565.873 185.76L565.873 243.457M565.873 185.76H625.112M565.873 243.457V301.155M565.873 243.457H625.112M565.873 301.155V358.853M565.873 301.155H625.112M565.873 358.853V434.165M565.873 358.853H625.112M625.112 12.6668V-39.9997M625.112 12.6668V70.3647M625.112 12.6668L682.81 12.6667M625.112 70.3647V128.062M625.112 70.3647L682.81 70.3646M625.112 128.062V185.76M625.112 128.062L682.81 128.062M625.112 185.76V243.457M625.112 185.76L682.81 185.76M625.112 243.457V301.155M625.112 243.457L682.81 243.457M625.112 301.155V358.853M625.112 301.155L682.81 301.155M625.112 358.853V434.165M625.112 358.853L682.809 358.853M682.81 -40V12.6667M682.81 12.6667V70.3646M682.81 12.6667L740.507 12.6667M682.81 70.3646L682.81 128.062M682.81 70.3646L740.507 70.3647M682.81 128.062V185.76M682.81 128.062H740.507M682.81 185.76V243.457M682.81 185.76L740.507 185.76M682.81 243.457V301.155M682.81 243.457H740.507M682.81 301.155L682.809 358.853M682.81 301.155H740.507M682.809 358.853V434.165M682.809 358.853H740.507M740.507 -40V12.6667M740.507 12.6667V70.3647M740.507 12.6667L798.205 12.6667M740.507 70.3647V128.062M740.507 70.3647H798.205M740.507 128.062V185.76M740.507 128.062L798.205 128.062M740.507 185.76L740.507 243.457M740.507 185.76H798.205M740.507 243.457V301.155M740.507 243.457L798.205 243.457M740.507 301.155V358.853M740.507 301.155L798.205 301.155M740.507 358.853V434.165M740.507 358.853L798.205 358.853M798.205 -40V12.6667M798.205 12.6667V70.3647M798.205 12.6667L855.903 12.6667M798.205 70.3647V128.062M798.205 70.3647L855.903 70.3647M798.205 128.062V185.76M798.205 128.062H855.903M798.205 185.76V243.457M798.205 185.76L855.903 185.76M798.205 243.457V301.155M798.205 243.457H855.903M798.205 301.155V358.853M798.205 301.155H855.903M798.205 358.853V434.165M798.205 358.853H855.903M855.903 -40V12.6667M855.903 12.6667V70.3647M855.903 12.6667L913.6 12.6667M855.903 70.3647V128.062M855.903 70.3647L913.6 70.3647M855.903 128.062V185.76M855.903 128.062H913.6M855.903 185.76V243.457M855.903 185.76H913.6M855.903 243.457V301.155M855.903 243.457H913.6M855.903 301.155V358.853M855.903 301.155H913.6M855.903 358.853V434.165M855.903 358.853H913.6M913.6 -39.9997V12.6667M913.6 12.6667V70.3647M913.6 12.6667L971.297 12.6668M913.6 70.3647V128.062M913.6 70.3647H971.297M913.6 128.062V185.76M913.6 128.062L971.297 128.062M913.6 185.76V243.457M913.6 185.76L971.297 185.76M913.6 243.457V301.155M913.6 243.457H971.297M913.6 301.155V358.853M913.6 301.155H971.297M913.6 358.853V434.165M913.6 358.853H971.297M971.297 -40V12.6668M971.297 12.6668V70.3647M971.297 12.6668L1030.54 12.6668M971.297 70.3647V128.062M971.297 70.3647L1030.54 70.3647M971.297 128.062V185.76M971.297 128.062H1030.54M971.297 185.76V243.457M971.297 185.76H1030.54M971.297 243.457V301.155M971.297 243.457H1030.54M971.297 301.155V358.853M971.297 301.155H1030.54M971.297 358.853V434.165M971.297 358.853H1030.54M1030.54 12.6668V-39.9997M1030.54 12.6668V70.3647M1030.54 12.6668L1088.23 12.6667M1030.54 70.3647V128.062M1030.54 70.3647L1088.23 70.3646M1030.54 128.062V185.76M1030.54 128.062L1088.23 128.062M1030.54 185.76V243.457M1030.54 185.76L1088.23 185.76M1030.54 243.457V301.155M1030.54 243.457L1088.23 243.457M1030.54 301.155V358.853M1030.54 301.155L1088.23 301.155M1030.54 358.853V434.165M1030.54 358.853L1088.23 358.853M1088.23 -40V12.6667M1088.23 12.6667V70.3646M1088.23 12.6667L1145.93 12.6667M1088.23 70.3646V128.062M1088.23 70.3646L1145.93 70.3647M1088.23 128.062V185.76M1088.23 128.062H1145.93M1088.23 185.76V243.457M1088.23 185.76L1145.93 185.76M1088.23 243.457V301.155M1088.23 243.457H1145.93M1088.23 301.155V358.853M1088.23 301.155H1145.93M1088.23 358.853V434.165M1088.23 358.853H1145.93M1145.93 -40V12.6667M1145.93 12.6667V70.3647M1145.93 12.6667L1203.63 12.6667M1145.93 70.3647V128.062M1145.93 70.3647H1203.63M1145.93 128.062V185.76M1145.93 128.062L1203.63 128.062M1145.93 185.76V243.457M1145.93 185.76H1203.63M1145.93 243.457V301.155M1145.93 243.457L1203.63 243.457M1145.93 301.155V358.853M1145.93 301.155L1203.63 301.155M1145.93 358.853V434.165M1145.93 358.853L1203.63 358.853M1203.63 -40V12.6667M1203.63 12.6667V70.3647M1203.63 12.6667L1261.33 12.6667M1203.63 70.3647V128.062M1203.63 70.3647L1261.33 70.3647M1203.63 128.062V185.76M1203.63 128.062H1261.33M1203.63 185.76V243.457M1203.63 185.76L1261.33 185.76M1203.63 243.457V301.155M1203.63 243.457H1261.33M1203.63 301.155V358.853M1203.63 301.155H1261.33M1203.63 358.853V434.165M1203.63 358.853H1261.33M1261.33 -40V12.6667M1261.33 12.6667V70.3647M1261.33 12.6667L1319.02 12.6667M1261.33 70.3647V128.062M1261.33 70.3647L1319.02 70.3647M1261.33 128.062V185.76M1261.33 128.062H1319.02M1261.33 185.76V243.457M1261.33 185.76H1319.02M1261.33 243.457V301.155M1261.33 243.457H1319.02M1261.33 301.155V358.853M1261.33 301.155H1319.02M1261.33 358.853V434.165M1261.33 358.853H1319.02M1319.02 -40V12.6667M1319.02 12.6667V70.3647M1319.02 12.6667L1376.72 12.6668M1319.02 70.3647V128.062M1319.02 70.3647H1376.72M1319.02 128.062V185.76M1319.02 128.062L1376.72 128.062M1319.02 185.76V243.457M1319.02 185.76L1376.72 185.76M1319.02 243.457V301.155M1319.02 243.457H1376.72M1319.02 301.155V358.853M1319.02 301.155H1376.72M1319.02 358.853V434.165M1319.02 358.853H1376.72M1376.72 -40V12.6668M1376.72 12.6668V70.3647M1376.72 12.6668L1435.96 12.6668M1376.72 70.3647V128.062M1376.72 70.3647L1435.96 70.3647M1376.72 128.062V185.76M1376.72 128.062H1435.96M1376.72 185.76V243.457M1376.72 185.76H1435.96M1376.72 243.457V301.155M1376.72 243.457H1435.96M1376.72 301.155V358.853M1376.72 301.155H1435.96M1376.72 358.853V434.165M1376.72 358.853H1435.96M1435.96 12.6668V-39.9997M1435.96 12.6668V70.3647M1435.96 12.6668L1493.66 12.6667M1435.96 70.3647V128.062M1435.96 70.3647L1493.66 70.3646M1435.96 128.062V185.76M1435.96 128.062L1493.66 128.062M1435.96 185.76V243.457M1435.96 185.76L1493.66 185.76M1435.96 243.457V301.155M1435.96 243.457L1493.66 243.457M1435.96 301.155V358.853M1435.96 301.155L1493.66 301.155M1435.96 358.853V434.165M1435.96 358.853L1493.66 358.853M1493.66 -40V12.6667M1493.66 12.6667V70.3646M1493.66 12.6667L1551.36 12.6667M1493.66 70.3646V128.062M1493.66 70.3646L1551.36 70.3647M1493.66 128.062V185.76M1493.66 128.062H1551.36M1493.66 185.76V243.457M1493.66 185.76L1551.36 185.76M1493.66 243.457V301.155M1493.66 243.457H1551.36M1493.66 301.155V358.853M1493.66 301.155H1551.36M1493.66 358.853V434.165M1493.66 358.853H1551.36M1551.36 -40V12.6667M1551.36 12.6667V70.3647M1551.36 12.6667L1609.05 12.6667M1551.36 70.3647V128.062M1551.36 70.3647H1609.05M1551.36 128.062V185.76M1551.36 128.062L1609.05 128.062M1551.36 185.76V243.457M1551.36 185.76H1609.05M1551.36 243.457V301.155M1551.36 243.457L1609.05 243.457M1551.36 301.155V358.853M1551.36 301.155L1609.05 301.155M1551.36 358.853V434.165M1551.36 358.853L1609.05 358.853M1609.05 -40V12.6667M1609.05 12.6667V70.3647M1609.05 12.6667L1666.75 12.6667M1609.05 70.3647V128.062M1609.05 70.3647L1666.75 70.3647M1609.05 128.062V185.76M1609.05 128.062H1666.75M1609.05 185.76V243.457M1609.05 185.76L1666.75 185.76M1609.05 243.457V301.155M1609.05 243.457H1666.75M1609.05 301.155V358.853M1609.05 301.155H1666.75M1609.05 358.853V434.165M1609.05 358.853H1666.75M1666.75 -40V12.6667M1666.75 12.6667V70.3647M1666.75 12.6667L1724.45 12.6667M1666.75 70.3647V128.062M1666.75 70.3647L1724.45 70.3647M1666.75 128.062V185.76M1666.75 128.062H1724.45M1666.75 185.76V243.457M1666.75 185.76H1724.45M1666.75 243.457V301.155M1666.75 243.457H1724.45M1666.75 301.155V358.853M1666.75 301.155H1724.45M1666.75 358.853V434.165M1666.75 358.853H1724.45M1724.45 -40V12.6667M1724.45 12.6667V70.3647M1724.45 12.6667L1782.15 12.6668M1724.45 70.3647V128.062M1724.45 70.3647H1782.15M1724.45 128.062V185.76M1724.45 128.062L1782.15 128.062M1724.45 185.76V243.457M1724.45 185.76L1782.15 185.76M1724.45 243.457V301.155M1724.45 243.457H1782.15M1724.45 301.155V358.853M1724.45 301.155H1782.15M1724.45 358.853V434.165M1724.45 358.853H1782.15M1782.15 -40V12.6668M1782.15 12.6668V70.3647M1782.15 12.6668L1842.02 12.6668M1782.15 70.3647V128.062M1782.15 70.3647L1842.02 70.3647M1782.15 128.062V185.76M1782.15 128.062H1842.02M1782.15 185.76V243.457M1782.15 185.76H1842.02M1782.15 243.457V301.155M1782.15 243.457H1842.02M1782.15 301.155V358.853M1782.15 301.155H1842.02M1782.15 358.853V434.165M1782.15 358.853H1842.02M-185.913 368.992V421.658M-185.913 421.658V479.356M-185.913 421.658H-128.215M-185.913 421.658H-254.018M-185.913 479.356L-185.913 537.054M-185.913 479.356H-128.215M-185.913 479.356H-254.019M-185.913 537.054V594.752M-185.913 537.054H-128.215M-185.913 537.054H-254.019M-185.913 594.752V652.449M-185.913 594.752H-128.215M-185.913 594.752H-254.019M-185.913 652.449V710.147M-185.913 652.449H-128.215M-185.913 652.449H-254.018M-185.913 710.147L-185.913 767.844M-185.913 710.147H-128.215M-185.913 710.147H-254.018M-185.913 767.844V843.157M-185.913 767.844H-128.215M-185.913 767.844H-254.018M-128.215 368.992V421.658M-128.215 421.658V479.356M-128.215 421.658L-70.5174 421.658M-128.215 479.356L-128.215 537.054M-128.215 479.356H-70.5174M-128.215 537.054V594.752M-128.215 537.054H-70.5174M-128.215 594.752V652.449M-128.215 594.752H-70.5174M-128.215 652.449V710.147M-128.215 652.449H-70.5174M-128.215 710.147L-128.215 767.844M-128.215 710.147H-70.5174M-128.215 767.844V843.156M-128.215 767.844H-70.5174M-70.5174 368.992V421.658M-70.5174 421.658V479.356M-70.5174 421.658H-12.8197M-70.5174 479.356L-70.5174 537.054M-70.5174 479.356H-12.8197M-70.5174 537.054V594.752M-70.5174 537.054H-12.8197M-70.5174 594.752V652.449M-70.5174 594.752H-12.8197M-70.5174 652.449V710.147M-70.5174 652.449H-12.8197M-70.5174 710.147L-70.5174 767.844M-70.5174 710.147L-12.8197 710.147M-70.5174 767.844V843.156M-70.5174 767.844H-12.8197M-12.8197 368.992V421.658M-12.8197 421.658V479.356M-12.8197 421.658H44.878M-12.8197 479.356L-12.8197 537.054M-12.8197 479.356H44.878M-12.8197 537.054V594.752M-12.8197 537.054H44.878M-12.8197 594.752V652.449M-12.8197 594.752H44.878M-12.8197 652.449V710.147M-12.8197 652.449H44.878M-12.8197 710.147L-12.8197 767.844M-12.8197 710.147H44.878M-12.8197 767.844V843.156M-12.8197 767.844H44.878M44.878 368.992V421.658M44.878 421.658V479.356M44.878 421.658L102.576 421.658M44.878 479.356V537.054M44.878 479.356L102.576 479.356M44.878 537.054V594.752M44.878 537.054L102.576 537.054M44.878 594.752L44.878 652.449M44.878 594.752L102.576 594.751M44.878 652.449V710.147M44.878 652.449L102.576 652.449M44.878 710.147V767.844M44.878 710.147L102.576 710.146M44.878 767.844V843.156M44.878 767.844L102.576 767.844M102.576 368.992V421.658M102.576 421.658V479.356M102.576 421.658H160.273M102.576 421.658H74.2381M102.576 479.356V537.054M102.576 479.356H160.273M102.576 479.356H74.238M102.576 537.054V594.751M102.576 537.054H160.273M102.576 537.054H74.238M102.576 594.751L102.576 652.449M102.576 594.751H160.273M102.576 594.751H74.238M102.576 652.449V710.146M102.576 652.449H160.273M102.576 652.449H74.238M102.576 710.146V767.844M102.576 710.146H160.273M102.576 710.146H74.238M102.576 767.844V843.156M102.576 767.844H160.273M102.576 767.844H74.238M160.273 368.992V421.658M160.273 421.658V479.356M160.273 421.658L219.512 421.658M160.273 479.356V537.054M160.273 479.356L219.512 479.356M160.273 537.054V594.751M160.273 537.054L219.512 537.054M160.273 594.751L160.273 652.449M160.273 594.751L219.512 594.752M160.273 652.449V710.146M160.273 652.449L219.512 652.449M160.273 710.146V767.844M160.273 710.146L219.512 710.147M160.273 767.844V843.156M160.273 767.844L219.512 767.844M220.147 421.658H219.512M219.512 421.658V368.992M219.512 421.658V479.356M219.512 421.658L277.209 421.658M220.146 479.356H219.512M219.512 479.356V537.054M219.512 479.356L277.209 479.356M220.146 537.054H219.512M219.512 537.054V594.752M219.512 537.054L277.209 537.054M220.146 594.752H219.512M219.512 594.752V652.449M219.512 594.752L277.209 594.751M220.147 652.449H219.512M219.512 652.449V710.147M219.512 652.449L277.209 652.449M220.147 710.147H219.512M219.512 710.147V767.844M219.512 710.147L277.209 710.146M220.147 767.844H219.512M219.512 767.844V843.156M219.512 767.844L277.209 767.844M277.209 368.991V421.658M277.209 421.658V479.356M277.209 421.658L334.907 421.658M277.209 479.356V537.054M277.209 479.356H334.907M277.209 537.054V594.751M277.209 537.054H334.907M277.209 594.751L277.209 652.449M277.209 594.751H334.907M277.209 652.449V710.146M277.209 652.449H334.907M277.209 710.146V767.844M277.209 710.146H334.907M277.209 767.844V843.156M277.209 767.844H334.907M334.907 368.991V421.658M334.907 421.658V479.356M334.907 421.658H392.605M334.907 479.356V537.054M334.907 479.356H392.605M334.907 537.054V594.751M334.907 537.054L392.605 537.054M334.907 594.751V652.449M334.907 594.751H392.605M334.907 652.449V710.146M334.907 652.449H392.605M334.907 710.146V767.844M334.907 710.146L392.605 710.146M334.907 767.844V843.156M334.907 767.844H392.605M392.605 368.991V421.658M392.605 421.658V479.356M392.605 421.658H450.303M392.605 479.356V537.054M392.605 479.356H450.303M392.605 537.054V594.751M392.605 537.054H450.303M392.605 594.751V652.449M392.605 594.751L450.303 594.751M392.605 652.449V710.146M392.605 652.449H450.303M392.605 710.146V767.844M392.605 710.146H450.303M392.605 767.844V843.156M392.605 767.844H450.303M450.303 368.991V421.658M450.303 421.658V479.356M450.303 421.658H508M450.303 479.356V537.054M450.303 479.356H508M450.303 537.054V594.751M450.303 537.054H508M450.303 594.751V652.449M450.303 594.751H508M450.303 652.449V710.146M450.303 652.449H508M450.303 710.146V767.844M450.303 710.146H508M450.303 767.844V843.156M450.303 767.844H508M508 368.991V421.658M508 421.658V479.356M508 421.658H565.697M508 479.356V537.054M508 479.356H565.697M508 537.054V594.751M508 537.054H565.697M508 594.751V652.449M508 594.751H565.697M508 652.449V710.146M508 652.449H565.697M508 710.146V767.844M508 710.146H565.697M508 767.844V843.156M508 767.844H565.697M565.697 368.991V421.658M565.697 421.658V479.356M565.697 421.658L624.936 421.658M565.697 479.356V537.054M565.697 479.356H624.936M565.697 537.054V594.751M565.697 537.054H624.936M565.697 594.751L565.697 652.449M565.697 594.751H624.936M565.697 652.449V710.146M565.697 652.449H624.936M565.697 710.146V767.844M565.697 710.146H624.936M565.697 767.844V843.156M565.697 767.844H624.936M624.936 421.658V368.992M624.936 421.658V479.356M624.936 421.658L682.634 421.658M624.936 479.356V537.054M624.936 479.356H682.634M624.936 537.054V594.751M624.936 537.054L682.634 537.054M624.936 594.751V652.449M624.936 594.751L682.634 594.751M624.936 652.449V710.146M624.936 652.449H682.634M624.936 710.146V767.844M624.936 710.146L682.634 710.146M624.936 767.844V843.156M624.936 767.844H682.634M682.634 368.991V421.658M682.634 421.658V479.356M682.634 421.658L740.332 421.658M682.634 479.356L682.634 537.054M682.634 479.356H740.332M682.634 537.054V594.751M682.634 537.054H740.332M682.634 594.751V652.449M682.634 594.751H740.332M682.634 652.449V710.146M682.634 652.449H740.332M682.634 710.146L682.634 767.844M682.634 710.146H740.332M682.634 767.844V843.156M682.634 767.844H740.332M740.332 368.991V421.658M740.332 421.658V479.356M740.332 421.658H798.03M740.332 479.356V537.054M740.332 479.356H798.03M740.332 537.054V594.751M740.332 537.054L798.03 537.054M740.332 594.751L740.332 652.449M740.332 594.751H798.03M740.332 652.449V710.146M740.332 652.449H798.03M740.332 710.146V767.844M740.332 710.146L798.03 710.146M740.332 767.844V843.156M740.332 767.844H798.03M798.03 368.991V421.658M798.03 421.658V479.356M798.03 421.658H855.727M798.03 479.356V537.054M798.03 479.356H855.727M798.03 537.054V594.751M798.03 537.054H855.727M798.03 594.751V652.449M798.03 594.751L855.727 594.751M798.03 652.449V710.146M798.03 652.449H855.727M798.03 710.146V767.844M798.03 710.146H855.727M798.03 767.844V843.156M798.03 767.844H855.727M855.727 368.991V421.658M855.727 421.658V479.356M855.727 421.658H913.425M855.727 479.356V537.054M855.727 479.356H913.425M855.727 537.054V594.751M855.727 537.054H913.425M855.727 594.751V652.449M855.727 594.751H913.425M855.727 652.449V710.146M855.727 652.449H913.425M855.727 710.146V767.844M855.727 710.146H913.425M855.727 767.844V843.156M855.727 767.844H913.425M913.425 368.992V421.658M913.425 421.658V479.356M913.425 421.658H971.122M913.425 479.356V537.054M913.425 479.356H971.122M913.425 537.054V594.751M913.425 537.054H971.122M913.425 594.751V652.449M913.425 594.751H971.122M913.425 652.449V710.146M913.425 652.449H971.122M913.425 710.146V767.844M913.425 710.146H971.122M913.425 767.844V843.156M913.425 767.844H971.122M971.122 368.991V421.658M971.122 421.658V479.356M971.122 421.658L1030.36 421.658M971.122 479.356V537.054M971.122 479.356H1030.36M971.122 537.054V594.751M971.122 537.054H1030.36M971.122 594.751V652.449M971.122 594.751H1030.36M971.122 652.449V710.146M971.122 652.449H1030.36M971.122 710.146V767.844M971.122 710.146H1030.36M971.122 767.844V843.156M971.122 767.844H1030.36M1030.36 421.658V368.992M1030.36 421.658V479.356M1030.36 421.658L1088.06 421.658M1030.36 479.356V537.054M1030.36 479.356H1088.06M1030.36 537.054V594.751M1030.36 537.054L1088.06 537.054M1030.36 594.751V652.449M1030.36 594.751L1088.06 594.751M1030.36 652.449V710.146M1030.36 652.449H1088.06M1030.36 710.146V767.844M1030.36 710.146L1088.06 710.146M1030.36 767.844V843.156M1030.36 767.844H1088.06M1088.06 368.991V421.658M1088.06 421.658V479.356M1088.06 421.658L1145.76 421.658M1088.06 479.356V537.054M1088.06 479.356H1145.76M1088.06 537.054V594.751M1088.06 537.054H1145.76M1088.06 594.751V652.449M1088.06 594.751H1145.76M1088.06 652.449V710.146M1088.06 652.449H1145.76M1088.06 710.146V767.844M1088.06 710.146H1145.76M1088.06 767.844V843.156M1088.06 767.844H1145.76M1145.76 368.991V421.658M1145.76 421.658V479.356M1145.76 421.658H1203.45M1145.76 479.356V537.054M1145.76 479.356H1203.45M1145.76 537.054V594.751M1145.76 537.054L1203.45 537.054M1145.76 594.751V652.449M1145.76 594.751H1203.45M1145.76 652.449V710.146M1145.76 652.449H1203.45M1145.76 710.146V767.844M1145.76 710.146L1203.45 710.146M1145.76 767.844V843.156M1145.76 767.844H1203.45M1203.45 368.991V421.658M1203.45 421.658V479.356M1203.45 421.658H1261.15M1203.45 479.356V537.054M1203.45 479.356H1261.15M1203.45 537.054V594.751M1203.45 537.054H1261.15M1203.45 594.751V652.449M1203.45 594.751L1261.15 594.751M1203.45 652.449V710.146M1203.45 652.449H1261.15M1203.45 710.146V767.844M1203.45 710.146H1261.15M1203.45 767.844V843.156M1203.45 767.844H1261.15M1261.15 368.991V421.658M1261.15 421.658V479.356M1261.15 421.658H1318.85M1261.15 479.356V537.054M1261.15 479.356H1318.85M1261.15 537.054V594.751M1261.15 537.054H1318.85M1261.15 594.751V652.449M1261.15 594.751H1318.85M1261.15 652.449V710.146M1261.15 652.449H1318.85M1261.15 710.146V767.844M1261.15 710.146H1318.85M1261.15 767.844V843.156M1261.15 767.844H1318.85M1318.85 368.991V421.658M1318.85 421.658V479.356M1318.85 421.658H1376.55M1318.85 479.356V537.054M1318.85 479.356H1376.55M1318.85 537.054V594.751M1318.85 537.054H1376.55M1318.85 594.751V652.449M1318.85 594.751H1376.55M1318.85 652.449V710.146M1318.85 652.449H1376.55M1318.85 710.146V767.844M1318.85 710.146H1376.55M1318.85 767.844V843.156M1318.85 767.844H1376.55M1376.55 368.991V421.658M1376.55 421.658V479.356M1376.55 421.658L1435.78 421.658M1376.55 479.356V537.054M1376.55 479.356H1435.78M1376.55 537.054V594.751M1376.55 537.054H1435.78M1376.55 594.751V652.449M1376.55 594.751H1435.78M1376.55 652.449V710.146M1376.55 652.449H1435.78M1376.55 710.146V767.844M1376.55 710.146H1435.78M1376.55 767.844V843.156M1376.55 767.844H1435.78M1435.78 421.658V368.992M1435.78 421.658V479.356M1435.78 421.658L1493.48 421.658M1435.78 479.356V537.054M1435.78 479.356H1493.48M1435.78 537.054V594.751M1435.78 537.054L1493.48 537.054M1435.78 594.751V652.449M1435.78 594.751L1493.48 594.751M1435.78 652.449V710.146M1435.78 652.449H1493.48M1435.78 710.146V767.844M1435.78 710.146L1493.48 710.146M1435.78 767.844V843.156M1435.78 767.844H1493.48M1493.48 368.991V421.658M1493.48 421.658V479.356M1493.48 421.658L1551.18 421.658M1493.48 479.356V537.054M1493.48 479.356H1551.18M1493.48 537.054V594.751M1493.48 537.054H1551.18M1493.48 594.751V652.449M1493.48 594.751H1551.18M1493.48 652.449V710.146M1493.48 652.449H1551.18M1493.48 710.146V767.844M1493.48 710.146H1551.18M1493.48 767.844V843.156M1493.48 767.844H1551.18M1551.18 368.991V421.658M1551.18 421.658V479.356M1551.18 421.658H1608.88M1551.18 479.356V537.054M1551.18 479.356H1608.88M1551.18 537.054V594.751M1551.18 537.054L1608.88 537.054M1551.18 594.751V652.449M1551.18 594.751H1608.88M1551.18 652.449V710.146M1551.18 652.449H1608.88M1551.18 710.146V767.844M1551.18 710.146L1608.88 710.146M1551.18 767.844V843.156M1551.18 767.844H1608.88M1608.88 368.991V421.658M1608.88 421.658V479.356M1608.88 421.658H1666.58M1608.88 479.356V537.054M1608.88 479.356H1666.58M1608.88 537.054V594.751M1608.88 537.054H1666.58M1608.88 594.751V652.449M1608.88 594.751L1666.58 594.751M1608.88 652.449V710.146M1608.88 652.449H1666.58M1608.88 710.146V767.844M1608.88 710.146H1666.58M1608.88 767.844V843.156M1608.88 767.844H1666.58M1666.58 368.991V421.658M1666.58 421.658V479.356M1666.58 421.658H1724.27M1666.58 479.356V537.054M1666.58 479.356H1724.27M1666.58 537.054V594.751M1666.58 537.054H1724.27M1666.58 594.751V652.449M1666.58 594.751H1724.27M1666.58 652.449V710.146M1666.58 652.449H1724.27M1666.58 710.146V767.844M1666.58 710.146H1724.27M1666.58 767.844V843.156M1666.58 767.844H1724.27M1724.27 368.991V421.658M1724.27 421.658V479.356M1724.27 421.658H1781.97M1724.27 479.356V537.054M1724.27 479.356H1781.97M1724.27 537.054V594.751M1724.27 537.054H1781.97M1724.27 594.751V652.449M1724.27 594.751H1781.97M1724.27 652.449V710.146M1724.27 652.449H1781.97M1724.27 710.146V767.844M1724.27 710.146H1781.97M1724.27 767.844V843.156M1724.27 767.844H1781.97M1781.97 368.991V421.658M1781.97 421.658V479.356M1781.97 421.658L1841.84 421.658M1781.97 479.356V537.054M1781.97 479.356H1841.84M1781.97 537.054V594.751M1781.97 537.054H1841.84M1781.97 594.751V652.449M1781.97 594.751H1841.84M1781.97 652.449V710.146M1781.97 652.449H1841.84M1781.97 710.146V767.844M1781.97 710.146H1841.84M1781.97 767.844V843.156M1781.97 767.844H1841.84" stroke="black" stroke-width="1.9292"/>
<rect x="-83.6884" y="-19.5283" width="1578.54" height="904.811" fill="url(#paint0_linear_3_7547)"/>
<defs>
<linearGradient id="paint0_linear_3_7547" x1="705.58" y1="-19.5283" x2="706.123" y2="1102.81" gradientUnits="userSpaceOnUse">
<stop offset="0.0499993" stop-color="white"/>
<stop offset="0.524" stop-color="white" stop-opacity="0.48"/>
<stop offset="1" stop-color="white"/>
</linearGradient>
</defs>
</svg>
