<svg width="38" height="31" viewBox="0 0 38 31" fill="none" xmlns="http://www.w3.org/2000/svg">
<path d="M30.1425 21.1486C30.1425 21.4338 30.0988 21.7123 30.018 21.9748C29.9364 22.2365 29.8177 22.4813 29.668 22.7035C29.3684 23.146 28.9469 23.4969 28.4471 23.7089C28.2805 23.7796 28.1055 23.8343 27.9238 23.8713C27.7429 23.9083 27.5561 23.9277 27.3651 23.9277C27.0799 23.9277 26.8014 23.8839 26.5397 23.8023C26.2781 23.7207 26.0332 23.602 25.8111 23.4523C25.3685 23.1528 25.0177 22.7304 24.8056 22.2306C24.6651 21.8974 24.5869 21.5297 24.5869 21.1494V20.1894C24.5869 20.1272 24.5919 20.0657 24.6029 20.0068C24.5928 19.9471 24.5869 19.8865 24.5869 19.8243V13.3061C24.5869 12.1669 24.4144 11.0714 24.0938 10.0407C23.7724 9.01002 23.3046 8.04412 22.7123 7.16825C21.5276 5.41481 19.8491 4.02149 17.8803 3.18853C17.224 2.91087 16.5349 2.69548 15.8206 2.54908C15.1062 2.40268 14.3658 2.32611 13.6061 2.32611C12.6015 2.32611 11.6313 2.46073 10.7092 2.71231C9.78704 2.96388 8.91369 3.3324 8.10513 3.80189C6.488 4.74003 5.13001 6.08203 4.17168 7.68653C3.87047 8.19052 3.21756 8.35543 2.71358 8.05422C2.20959 7.75301 2.04468 7.10009 2.34589 6.59611C3.2041 5.15903 4.32818 3.90202 5.65083 2.88984C6.97347 1.8785 8.49637 1.112 10.1497 0.661026C10.7008 0.510419 11.2662 0.39515 11.8434 0.317744C12.4206 0.240337 13.0087 0.199951 13.6061 0.199951C14.9615 0.199951 16.2715 0.406089 17.5033 0.788916C18.7359 1.17258 19.8895 1.7321 20.9353 2.43886C23.0261 3.85237 24.687 5.85149 25.6824 8.20482C26.3462 9.77399 26.713 11.5005 26.713 13.3069V19.8251C26.713 19.8874 26.708 19.9488 26.6971 20.0077C26.7072 20.0674 26.713 20.128 26.713 20.1903V21.1503C26.713 21.2193 26.7231 21.2832 26.7425 21.3438C26.761 21.4044 26.7888 21.4616 26.8241 21.5129C26.8948 21.6172 26.9958 21.7014 27.1119 21.7502C27.1893 21.7821 27.2717 21.8007 27.3643 21.8007C27.4341 21.8007 27.4981 21.7906 27.5586 21.7712C27.6192 21.7527 27.6764 21.7249 27.7278 21.6896C27.8321 21.6189 27.9162 21.518 27.9642 21.4018C27.997 21.3244 28.0147 21.2411 28.0155 21.1486C28.0155 20.5613 28.4917 20.0851 29.079 20.0851C29.6663 20.0851 30.1425 20.5605 30.1425 21.1486Z" fill="url(#paint0_linear_2_178)"/>
<path d="M22.6543 28.3905C22.2757 28.839 21.6043 28.8962 21.155 28.5176C20.1075 27.6341 19.2518 26.5319 18.6561 25.2791C18.0612 24.0271 17.7281 22.6229 17.7281 21.1479V19.2809H9.48508V26.2921C9.48508 26.7549 9.4144 27.205 9.28315 27.6274C9.15105 28.0506 8.95922 28.4461 8.7169 28.8045C8.23311 29.5205 7.54907 30.0893 6.74134 30.4309C6.2037 30.6589 5.60969 30.7842 4.99296 30.7842C4.52936 30.7842 4.08006 30.7136 3.65769 30.5823C3.23448 30.4502 2.83903 30.2584 2.48061 30.0169C1.76375 29.5323 1.19582 28.8491 0.853379 28.0413C0.626206 27.5029 0.5 26.9097 0.5 26.2921V13.3046C0.5 12.7173 0.97622 12.2411 1.5635 12.2411C2.15078 12.2411 2.627 12.7173 2.627 13.3046V26.293C2.627 26.5403 2.66487 26.7751 2.73386 26.9972C2.80285 27.2185 2.90298 27.4263 3.03087 27.6148C3.2858 27.9934 3.64928 28.2946 4.07249 28.473C4.3552 28.5925 4.66314 28.6581 4.99296 28.6581C5.24033 28.6581 5.47507 28.6211 5.69719 28.5521C5.91848 28.4831 6.1263 28.3829 6.31477 28.2551C6.69254 28.0001 6.9946 27.6366 7.17297 27.2134C7.2916 26.9307 7.35808 26.6228 7.35808 26.293V18.2191C7.35808 18.2191 7.35808 18.2191 7.35808 18.2183V14.3336C7.35808 13.7463 7.8343 13.2701 8.42158 13.2701C9.00886 13.2701 9.48508 13.7463 9.48508 14.3336V17.1556H17.7281V13.3054C17.7281 12.8763 17.6633 12.4658 17.543 12.0796C17.4226 11.6934 17.2468 11.3307 17.0247 11.0018C16.5796 10.343 15.9485 9.81962 15.2098 9.50747C14.7176 9.29965 14.1783 9.18438 13.6053 9.18438C13.0071 9.18522 12.4442 9.31058 11.9343 9.53692C11.6794 9.6505 11.4371 9.78933 11.2124 9.95003C10.9878 10.1107 10.7791 10.2942 10.5907 10.4961C10.1902 10.9252 9.51705 10.9496 9.08795 10.5483C8.658 10.1478 8.63445 9.47465 9.03578 9.04555C9.6054 8.43471 10.2962 7.93745 11.0711 7.59333C11.846 7.24837 12.7067 7.05737 13.6061 7.05737C14.2515 7.05737 14.8766 7.15581 15.4648 7.33839C16.052 7.52097 16.6023 7.78853 17.1012 8.12508C18.0983 8.79903 18.8892 9.75062 19.3645 10.8739C19.6809 11.6218 19.8559 12.4464 19.8559 13.3063V18.2199C19.8559 18.2208 19.8559 18.2208 19.8559 18.2208V20.7769C19.8559 20.7777 19.8559 20.7777 19.8559 20.7777V21.1521C19.8559 22.3074 20.1151 23.3953 20.5778 24.3704C21.0414 25.3447 21.7095 26.2063 22.5264 26.8954C22.9757 27.2706 23.033 27.9412 22.6543 28.3905Z" fill="url(#paint1_linear_2_178)"/>
<path d="M33.572 13.0341V21.1475C33.5729 22.0974 33.3566 23.0044 32.973 23.8113C32.5885 24.619 32.0365 25.3292 31.3601 25.8979C30.8207 26.3523 30.2032 26.7166 29.5284 26.9673C28.8544 27.2189 28.1233 27.3552 27.3652 27.3552C26.7249 27.3552 26.104 27.2576 25.52 27.0759C24.9361 26.8941 24.3892 26.6291 23.8945 26.2942C22.905 25.6253 22.1192 24.6796 21.6472 23.5648C21.5428 23.3166 21.4528 23.0608 21.3813 22.7974C21.2357 22.2716 21.1592 21.7171 21.1592 21.1483C21.1592 20.5611 21.6354 20.0848 22.2227 20.0848C22.81 20.0848 23.2862 20.5611 23.2862 21.1483C23.2862 21.5732 23.351 21.9796 23.4696 22.3625C23.5882 22.7453 23.7624 23.1037 23.982 23.4293C24.422 24.0814 25.048 24.5997 25.7783 24.9093C26.0223 25.012 26.2781 25.0919 26.5432 25.1466C26.8082 25.2013 27.0833 25.229 27.3669 25.229C27.87 25.229 28.3471 25.139 28.7888 24.9749C29.2305 24.8109 29.6369 24.5711 29.992 24.2724C30.326 23.9914 30.6146 23.6573 30.8443 23.2846C31.074 22.9119 31.2448 22.4996 31.3449 22.0612C31.4114 21.7684 31.4467 21.4639 31.4467 21.1483V13.0349C31.4467 12.4477 31.9229 11.9714 32.5102 11.9714C33.0958 11.9714 33.572 12.4477 33.572 13.0341Z" fill="url(#paint2_linear_2_178)"/>
<path d="M23.2845 13.3045V16.7726C23.2845 17.3599 22.8083 17.8361 22.221 17.8361C21.6337 17.8361 21.1575 17.3599 21.1575 16.7726V13.3045C21.1575 12.5203 21.0388 11.7673 20.8184 11.0588C20.598 10.3504 20.2757 9.68656 19.8685 9.08329C19.054 7.8776 17.8988 6.91842 16.545 6.34629C16.0932 6.15529 15.6204 6.00721 15.129 5.90709C14.6376 5.80612 14.1286 5.75396 13.6053 5.75312C12.8211 5.75312 12.0681 5.87175 11.3596 6.09219C10.6512 6.31263 9.98733 6.63488 9.38406 7.04211C8.17836 7.85656 7.22003 9.01178 6.64706 10.3656C6.45606 10.8165 6.30798 11.2902 6.20786 11.7816C6.10689 12.273 6.05473 12.782 6.05389 13.3045C6.05389 13.8918 5.57767 14.368 4.99038 14.368C4.4031 14.368 3.92688 13.8918 3.92688 13.3045C3.92688 12.3731 4.05898 11.4694 4.30634 10.6146C4.32401 10.5515 4.34336 10.4892 4.36271 10.427C4.64542 9.5166 5.05938 8.66513 5.58103 7.89274C6.62434 6.34881 8.09928 5.12292 9.83841 4.38756C10.9953 3.89788 12.27 3.62695 13.6019 3.62695H13.6053C14.6057 3.62695 15.5732 3.77924 16.4828 4.06195C17.3931 4.34549 18.2446 4.75861 19.017 5.28026C20.5609 6.32357 21.7868 7.79935 22.5222 9.53763C23.0135 10.6954 23.2845 11.9709 23.2845 13.3045Z" fill="url(#paint3_linear_2_178)"/>
<path d="M6.05572 17.3731V26.2648C6.05572 26.852 5.5795 27.3283 4.99221 27.3283C4.40493 27.3283 3.92871 26.852 3.92871 26.2648V17.3731C3.92871 16.7858 4.40493 16.3096 4.99221 16.3096C5.5795 16.3096 6.05572 16.7858 6.05572 17.3731Z" fill="url(#paint4_linear_2_178)"/>
<path d="M37.7309 5.41897C37.7309 4.70043 37.5845 4.01134 37.3203 3.3862C36.9232 2.44722 36.2627 1.65212 35.4297 1.08924C35.0133 0.808215 34.553 0.584409 34.0617 0.431278C33.5703 0.278148 33.0478 0.196533 32.5093 0.196533C31.7908 0.196533 31.1017 0.342933 30.4766 0.607126C29.5376 1.00426 28.7425 1.66474 28.1796 2.4977C27.8986 2.91419 27.6748 3.37442 27.5216 3.86578C27.3685 4.35715 27.2869 4.87964 27.2869 5.41813C27.2869 6.13666 27.4333 6.82575 27.6975 7.4509C28.0786 8.35201 28.7038 9.12103 29.4905 9.67971C29.2246 9.92118 28.9865 10.1946 28.7845 10.4933C28.5422 10.8517 28.3504 11.2472 28.2191 11.6704C28.0879 12.0928 28.0172 12.5429 28.0172 13.0057V17.0763C28.0172 17.6635 28.4934 18.1398 29.0807 18.1398C29.668 18.1398 30.1442 17.6635 30.1442 17.0763V13.0074C30.1442 12.6775 30.2107 12.3696 30.3293 12.0869C30.5077 11.6637 30.8097 11.3002 31.1875 11.0453C31.3768 10.9174 31.5838 10.8173 31.8059 10.7483C32.0272 10.6793 32.2628 10.6422 32.5102 10.6422C32.84 10.6422 33.1479 10.7087 33.4306 10.8273C33.8539 11.0057 34.2173 11.3078 34.4723 11.6856C34.6001 11.8749 34.7003 12.0818 34.7693 12.304C34.8383 12.5252 34.8753 12.7608 34.8753 13.0082V21.1485C34.8753 22.1885 34.6649 23.1737 34.2855 24.0715C33.7159 25.4177 32.7626 26.5662 31.5636 27.3764C30.9637 27.7811 30.3041 28.1017 29.599 28.3213C28.8939 28.54 28.1451 28.6587 27.3651 28.6587C26.7779 28.6587 26.3016 29.1349 26.3016 29.7222C26.3016 30.3095 26.7779 30.7857 27.3651 30.7857C28.6928 30.7857 29.9633 30.5164 31.1168 30.0276C32.8476 29.2956 34.3166 28.0748 35.3557 26.5376C35.8748 25.7685 36.2871 24.9204 36.569 24.0143C36.8508 23.1081 37.0023 22.1447 37.0023 21.1494V13.0074C37.0023 12.3898 36.8769 11.7966 36.6489 11.2581C36.3073 10.4504 35.7385 9.76637 35.0225 9.28258C34.6641 9.04026 34.2687 8.84842 33.8454 8.71717C33.4231 8.58591 32.9729 8.51524 32.5102 8.51524C32.0802 8.51524 31.6755 8.42858 31.3062 8.27208C30.7517 8.03818 30.2772 7.64441 29.9431 7.14968C29.7765 6.90232 29.6444 6.63055 29.5544 6.34028C29.4644 6.05 29.4156 5.74206 29.4156 5.41981C29.4156 4.98987 29.5022 4.58516 29.6587 4.21496C29.8926 3.66049 30.2864 3.18595 30.7811 2.85192C31.0285 2.68533 31.3003 2.55323 31.5905 2.46321C31.8808 2.37318 32.1888 2.32438 32.511 2.32438C32.941 2.32438 33.3457 2.41104 33.7159 2.56754C34.2703 2.80144 34.7449 3.19521 35.0789 3.68994C35.2455 3.9373 35.3776 4.20907 35.4676 4.49934C35.5576 4.78962 35.6064 5.09756 35.6064 5.41981C35.6064 5.70167 35.5694 5.9726 35.4996 6.23006C35.4298 6.48752 35.3279 6.73152 35.1984 6.95785C34.9056 7.46688 35.0814 8.11727 35.5913 8.41007C36.1003 8.70287 36.7507 8.52702 37.0435 8.01715C37.2631 7.63432 37.4364 7.2212 37.5542 6.78537C37.6687 6.34869 37.7309 5.89014 37.7309 5.41897Z" fill="url(#paint5_linear_2_178)"/>
<path d="M32.5085 7.49204C33.653 7.49204 34.5808 6.56424 34.5808 5.41973C34.5808 4.27522 33.653 3.34741 32.5085 3.34741C31.364 3.34741 30.4362 4.27522 30.4362 5.41973C30.4362 6.56424 31.364 7.49204 32.5085 7.49204Z" fill="url(#paint6_linear_2_178)"/>
<path d="M31.1202 10.4142C30.6288 10.2611 30.1686 10.0381 29.7521 9.75625C29.7193 9.73353 29.6865 9.71081 29.6545 9.68726C29.3878 9.92957 29.1505 10.2022 28.9478 10.5017C28.7054 10.8601 28.5136 11.2556 28.3824 11.6788C28.2511 12.1012 28.1804 12.5513 28.1804 13.0141V17.0847C28.1804 17.6719 28.6566 18.1482 29.2439 18.1482C29.8312 18.1482 30.3074 17.6719 30.3074 17.0847V13.0149C30.3074 12.6851 30.3739 12.3771 30.4925 12.0944C30.6709 11.6712 30.973 11.3078 31.3507 11.0528C31.54 10.9249 31.747 10.8248 31.9691 10.7558C32.1904 10.6868 32.426 10.6498 32.6734 10.6498C32.1341 10.649 31.6116 10.5673 31.1202 10.4142Z" fill="url(#paint7_linear_2_178)"/>
<path d="M12.2954 17.1545H9.48523V19.2815H12.2954V17.1545Z" fill="url(#paint8_linear_2_178)"/>
<path d="M14.917 17.1545H17.7272V19.2815H14.917V17.1545Z" fill="url(#paint9_linear_2_178)"/>
<defs>
<linearGradient id="paint0_linear_2_178" x1="36.5079" y1="30.7546" x2="7.48299" y2="0.540737" gradientUnits="userSpaceOnUse">
<stop stop-color="#BA24ED"/>
<stop offset="1" stop-color="#01EBFA"/>
</linearGradient>
<linearGradient id="paint1_linear_2_178" x1="28.4646" y1="38.4816" x2="-0.560271" y2="8.26776" gradientUnits="userSpaceOnUse">
<stop stop-color="#BA24ED"/>
<stop offset="1" stop-color="#01EBFA"/>
</linearGradient>
<linearGradient id="paint2_linear_2_178" x1="38.0617" y1="29.2617" x2="9.03684" y2="-0.952131" gradientUnits="userSpaceOnUse">
<stop stop-color="#BA24ED"/>
<stop offset="1" stop-color="#01EBFA"/>
</linearGradient>
<linearGradient id="paint3_linear_2_178" x1="34.182" y1="32.9891" x2="5.15709" y2="2.77521" gradientUnits="userSpaceOnUse">
<stop stop-color="#BA24ED"/>
<stop offset="1" stop-color="#01EBFA"/>
</linearGradient>
<linearGradient id="paint4_linear_2_178" x1="24.5818" y1="42.2112" x2="-4.44302" y2="11.9974" gradientUnits="userSpaceOnUse">
<stop stop-color="#BA24ED"/>
<stop offset="1" stop-color="#01EBFA"/>
</linearGradient>
<linearGradient id="paint5_linear_2_178" x1="41.1768" y1="26.2693" x2="12.152" y2="-3.94454" gradientUnits="userSpaceOnUse">
<stop stop-color="#BA24ED"/>
<stop offset="1" stop-color="#01EBFA"/>
</linearGradient>
<linearGradient id="paint6_linear_2_178" x1="47.0854" y1="20.5932" x2="18.0605" y2="-9.62065" gradientUnits="userSpaceOnUse">
<stop stop-color="#BA24ED"/>
<stop offset="1" stop-color="#01EBFA"/>
</linearGradient>
<linearGradient id="paint7_linear_2_178" x1="31.0179" y1="9.30043" x2="30.2136" y2="12.3428" gradientUnits="userSpaceOnUse">
<stop stop-color="#37593D"/>
<stop offset="0.0896" stop-color="#37593D" stop-opacity="0.9104"/>
<stop offset="1" stop-color="#37593D" stop-opacity="0"/>
</linearGradient>
<linearGradient id="paint8_linear_2_178" x1="8.66437" y1="18.2177" x2="10.956" y2="18.2177" gradientUnits="userSpaceOnUse">
<stop stop-color="#37593D"/>
<stop offset="0.0896" stop-color="#37593D" stop-opacity="0.9104"/>
<stop offset="1" stop-color="#37593D" stop-opacity="0"/>
</linearGradient>
<linearGradient id="paint9_linear_2_178" x1="18.1002" y1="18.2177" x2="16.9666" y2="18.2177" gradientUnits="userSpaceOnUse">
<stop stop-color="#37593D"/>
<stop offset="0.0896" stop-color="#37593D" stop-opacity="0.9104"/>
<stop offset="1" stop-color="#37593D" stop-opacity="0"/>
</linearGradient>
</defs>
</svg>
