<svg width="56" height="56" viewBox="0 0 56 56" fill="none" xmlns="http://www.w3.org/2000/svg">
<rect width="56" height="56" fill="white"/>
<path d="M5 26.4505C5.15872 15.9825 12.5409 6.8092 22.7382 4.54349C34.4791 1.93544 46.2029 8.9473 49.2155 20.5575C50.8697 26.936 49.9064 33.0298 46.3398 38.638C46.0566 39.0831 46.0379 39.4239 46.2527 39.8985C47.4135 42.4645 48.5401 45.0445 49.673 47.6215C50.0978 48.5878 49.9873 49.3519 49.3509 49.9837C48.6989 50.6294 47.871 50.729 46.9327 50.2715C44.3542 49.0142 41.7726 47.7646 39.2019 46.4902C38.7926 46.2863 38.4783 46.2568 38.055 46.4808C34.0714 48.5909 29.7858 49.3379 25.3524 48.8726C15.0961 47.7958 7.54892 40.2782 5.69714 31.3538C5.36413 29.7401 5.22719 28.086 5 26.4505ZM27.4501 18.8847C27.2322 18.7446 27.0377 18.6201 26.8432 18.4972C23.5116 16.4058 19.9667 18.007 18.3888 20.1218C16.5495 22.5882 16.7456 25.993 18.8774 28.2369C21.0716 30.5462 23.3046 32.8181 25.5205 35.1072C27.005 36.64 28.2779 36.6415 29.7672 35.1056C31.8399 32.9675 33.8691 30.7843 35.9947 28.7006C38.0224 26.7135 38.3305 24.4011 37.4715 21.86C36.0274 17.5838 31.2704 16.0619 27.4501 18.8847Z" fill="url(#paint0_linear_3_4335)"/>
<defs>
<linearGradient id="paint0_linear_3_4335" x1="5.69481" y1="2.92091" x2="51.2285" y2="54.2423" gradientUnits="userSpaceOnUse">
<stop stop-color="#F2D17E"/>
<stop offset="1" stop-color="#F0B10E" stop-opacity="0.55"/>
</linearGradient>
</defs>
</svg>
