<svg width="56" height="56" viewBox="0 0 56 56" fill="none" xmlns="http://www.w3.org/2000/svg">
<rect width="56" height="56" fill="white"/>
<path d="M40.0462 46.1519C38.8641 46.2767 37.6468 46.2708 36.5117 46.5734C35.7041 46.7878 34.9317 47.3297 34.2812 47.8862C33.2798 48.7409 32.4061 49.7454 31.459 50.6647C29.6264 52.4446 27.3798 52.4446 25.5472 50.6677C24.6163 49.7645 23.7103 48.8379 22.7925 47.9215C21.6854 46.8157 20.3565 46.2532 18.7838 46.265C17.4388 46.2752 16.0923 46.2782 14.7472 46.2635C12.458 46.24 10.7679 44.5585 10.7414 42.2793C10.7268 40.9092 10.7356 39.539 10.7385 38.1688C10.7414 36.6254 10.1835 35.3154 9.10125 34.2243C8.2393 33.3564 7.37148 32.4944 6.50954 31.6265C4.48756 29.591 4.49784 27.4029 6.5345 25.3513C7.37882 24.5011 8.22462 23.6522 9.07335 22.8049C10.182 21.6991 10.7473 20.3715 10.74 18.7987C10.7326 17.4535 10.7282 16.1068 10.7414 14.7616C10.7635 12.4413 12.4536 10.7569 14.7795 10.7349C16.1246 10.7231 17.4711 10.7261 18.8161 10.7334C20.3609 10.7422 21.6722 10.1871 22.7646 9.10918C23.6868 8.19868 24.5884 7.26616 25.5164 6.36006C27.3725 4.54787 29.6294 4.5464 31.484 6.35712C32.412 7.26175 33.315 8.19281 34.2372 9.10478C35.3282 10.1856 36.6395 10.7407 38.1842 10.7334C39.5542 10.7275 40.9243 10.7187 42.2943 10.7363C44.5306 10.7642 46.2325 12.4545 46.2619 14.6838C46.281 16.0789 46.2677 17.4726 46.2663 18.8677C46.2648 20.3568 46.8008 21.633 47.8272 22.6947C48.7288 23.6258 49.6641 24.5245 50.5745 25.4483C52.4834 27.3823 52.4746 29.6307 50.551 31.5751C49.6744 32.4621 48.786 33.3388 47.905 34.2228C46.8184 35.3125 46.2619 36.621 46.2648 38.1644C46.2677 39.5346 46.2765 40.9047 46.2619 42.2749C46.2354 44.557 44.5482 46.2326 42.2605 46.2635C41.5263 46.2738 40.7921 46.265 40.0579 46.265C40.0535 46.2282 40.0491 46.1901 40.0462 46.1519ZM16.8823 28.6879C19.7221 31.5339 22.5503 34.3697 25.3167 37.1423C30.2329 32.2271 35.1652 27.2928 39.9845 22.4745C39.1519 21.6359 38.2665 20.7445 37.2547 19.7268C33.3239 23.6831 29.3372 27.6981 25.1919 31.8717C23.2698 29.9082 21.3638 27.9624 19.5077 26.0665C18.6341 26.9374 17.756 27.8141 16.8823 28.6879Z" fill="url(#paint0_linear_3_4344)"/>
<defs>
<linearGradient id="paint0_linear_3_4344" x1="28.5" y1="5" x2="46.9136" y2="66.1466" gradientUnits="userSpaceOnUse">
<stop stop-color="#E73333"/>
<stop offset="1" stop-color="#DF8D8D"/>
</linearGradient>
</defs>
</svg>
