<svg width="56" height="56" viewBox="0 0 56 56" fill="none" xmlns="http://www.w3.org/2000/svg">
<rect width="56" height="56" fill="white"/>
<path d="M37.0833 17.8393C42.0822 21.1617 44.9456 25.6887 45.5173 31.6974C45.7476 31.7554 46.0021 31.8166 46.2565 31.8826C47.3114 32.1548 48.1198 33.0985 48.173 34.1985C48.2133 35.0553 48.2165 35.9169 48.1794 36.7736C48.1199 38.1748 47.0489 39.2248 45.6349 39.2812C44.857 39.3118 44.0776 39.3118 43.2997 39.2812C41.8567 39.2248 40.7986 38.1522 40.7439 36.698C40.7165 35.9748 40.7213 35.2485 40.7374 34.5238C40.7696 33.0631 41.4734 32.2079 42.91 31.8456C43.0372 31.8134 43.158 31.7522 43.2739 31.7055C43.1387 26.1864 38.8274 19.9667 32.1472 18.3321C32.0666 18.506 31.9877 18.6928 31.8943 18.8732C31.387 19.8492 30.6301 20.4531 29.4851 20.4611C28.9745 20.466 28.4624 20.4338 27.9551 20.474C26.3076 20.6029 25.1416 19.9844 24.623 18.3691C18.74 19.548 13.6074 25.4907 13.4431 31.5911C14.0599 31.9245 14.7218 32.1435 15.1985 32.5703C16.3726 33.6203 16.3371 37.3776 15.2146 38.4969C14.047 39.6596 10.4525 39.6596 9.28326 38.4969C8.16076 37.3792 8.11889 33.6139 9.30097 32.5735C9.81794 32.1178 10.541 31.8971 11.2126 31.5477C11.7618 25.6839 14.6381 21.1633 19.8109 17.8973C19.4405 17.8699 19.2183 17.8393 18.9976 17.8393C16.5819 17.8361 14.1662 17.849 11.7505 17.828C11.248 17.8232 10.9421 17.9375 10.6683 18.411C9.92101 19.6978 8.49252 20.2164 7.06403 19.8153C5.7064 19.4353 4.68858 18.0873 4.71435 16.7039C4.74011 15.3189 5.72251 14.0354 7.04471 13.6585C8.47481 13.2494 9.88719 13.7728 10.6667 15.0387C10.8889 15.3994 11.0628 15.6523 11.5701 15.6491C15.7574 15.6233 19.9446 15.6346 24.1318 15.6313C24.2623 15.6313 24.3943 15.6104 24.5151 15.5991C25.1432 13.4862 25.8035 13.003 28.034 13.0014C28.4093 13.0014 28.7861 12.9982 29.1613 13.0014C30.9023 13.0208 31.8138 13.797 32.1359 15.5991C32.3807 15.6104 32.6416 15.6313 32.9025 15.6313C36.9287 15.6329 40.9549 15.6233 44.981 15.6442C45.4964 15.6474 45.7831 15.5025 46.0536 15.0419C46.8073 13.7616 48.239 13.2478 49.6675 13.6569C50.9929 14.037 51.9721 15.3141 51.9995 16.7007C52.0269 18.0841 51.0107 19.4321 49.653 19.8121C48.2245 20.2131 46.7944 19.6946 46.0488 18.4094C45.775 17.9359 45.4706 17.82 44.9682 17.8248C42.3383 17.8506 39.7116 17.8393 37.0833 17.8393ZM29.9714 16.7571C29.9714 15.1256 29.9714 15.1256 28.377 15.1256C26.7456 15.1256 26.7456 15.1256 26.7456 16.7184C26.7456 18.3514 26.7456 18.3514 28.3384 18.3514C29.9714 18.3514 29.9714 18.3514 29.9714 16.7571Z" fill="url(#paint0_linear_3_4325)"/>
<path d="M36.5035 43.0094C35.3359 42.705 33.9412 42.3475 32.5482 41.9771C31.4643 41.6888 30.3982 41.3168 29.2999 41.1139C28.6428 40.9931 27.9116 41.0092 27.261 41.1654C25.0804 41.6872 22.9192 42.2911 20.7563 42.8789C20.0106 43.0819 19.3198 43.1205 18.7899 42.4345C18.2939 41.7919 18.4437 41.1573 18.7706 40.4842C21.4585 34.9522 24.1351 29.4154 26.8036 23.8753C27.1289 23.1989 27.5412 22.7029 28.361 22.7045C29.1791 22.7061 29.5914 23.2022 29.9167 23.8786C32.5981 29.4428 35.294 35.0005 37.9803 40.5615C38.5971 41.8386 37.9996 43.003 36.5035 43.0094Z" fill="url(#paint1_linear_3_4325)"/>
<defs>
<linearGradient id="paint0_linear_3_4325" x1="12.5643" y1="17.9095" x2="31.4199" y2="56.2853" gradientUnits="userSpaceOnUse">
<stop stop-color="#1FD588"/>
<stop offset="1" stop-color="#68EDB5"/>
</linearGradient>
<linearGradient id="paint1_linear_3_4325" x1="21.7488" y1="26.485" x2="40.0016" y2="46.6359" gradientUnits="userSpaceOnUse">
<stop stop-color="#1FD588"/>
<stop offset="1" stop-color="#68EDB5"/>
</linearGradient>
</defs>
</svg>
