<svg width="121" height="120" viewBox="0 0 121 120" fill="none" xmlns="http://www.w3.org/2000/svg">
<rect x="1.1" y="0.6" width="118.8" height="118.8" rx="11.4" stroke="black" stroke-opacity="0.2" stroke-width="1.2"/>
<path d="M70.2149 44.9252C70.2149 45.161 70.1788 45.3913 70.112 45.6084C70.0445 45.8248 69.9464 46.0272 69.8226 46.2109C69.5749 46.5768 69.2263 46.867 68.813 47.0423C68.6753 47.1007 68.5306 47.146 68.3803 47.1766C68.2307 47.2072 68.0763 47.2232 67.9183 47.2232C67.6825 47.2232 67.4522 47.187 67.2358 47.1195C67.0194 47.052 66.817 46.9539 66.6333 46.8301C66.2674 46.5824 65.9772 46.2332 65.8019 45.8199C65.6857 45.5444 65.621 45.2403 65.621 44.9259V44.132C65.621 44.0806 65.6252 44.0298 65.6342 43.9811C65.6259 43.9317 65.621 43.8816 65.621 43.8301V38.4402C65.621 37.4982 65.4784 36.5924 65.2133 35.7401C64.9475 34.8878 64.5607 34.0891 64.0709 33.3649C63.0913 31.9149 61.7033 30.7628 60.0753 30.074C59.5326 29.8444 58.9628 29.6663 58.3722 29.5453C57.7815 29.4242 57.1692 29.3609 56.541 29.3609C55.7103 29.3609 54.9081 29.4722 54.1456 29.6802C53.3831 29.8883 52.6609 30.193 51.9923 30.5812C50.6551 31.357 49.5322 32.4667 48.7397 33.7934C48.4907 34.2102 47.9508 34.3465 47.534 34.0975C47.1173 33.8484 46.9809 33.3085 47.23 32.8918C47.9396 31.7034 48.8691 30.664 49.9628 29.827C51.0565 28.9908 52.3158 28.357 53.6829 27.984C54.1386 27.8595 54.6062 27.7642 55.0834 27.7002C55.5607 27.6362 56.047 27.6028 56.541 27.6028C57.6618 27.6028 58.7451 27.7732 59.7636 28.0898C60.7829 28.4071 61.7367 28.8697 62.6015 29.4541C64.3304 30.623 65.7038 32.276 66.5269 34.222C67.0758 35.5195 67.3791 36.9472 67.3791 38.4409V43.8308C67.3791 43.8823 67.375 43.9331 67.3659 43.9818C67.3743 44.0312 67.3791 44.0812 67.3791 44.1327V44.9266C67.3791 44.9836 67.3875 45.0365 67.4035 45.0866C67.4188 45.1367 67.4418 45.184 67.471 45.2264C67.5294 45.3127 67.6129 45.3823 67.7089 45.4226C67.7729 45.4491 67.8411 45.4644 67.9176 45.4644C67.9754 45.4644 68.0283 45.456 68.0783 45.44C68.1284 45.4247 68.1758 45.4018 68.2182 45.3725C68.3045 45.3141 68.374 45.2306 68.4137 45.1346C68.4408 45.0706 68.4554 45.0017 68.4561 44.9252C68.4561 44.4395 68.8499 44.0458 69.3355 44.0458C69.8212 44.0458 70.2149 44.4389 70.2149 44.9252Z" fill="url(#paint0_linear_3_897)"/>
<path d="M64.0245 50.9135C63.7114 51.2844 63.1562 51.3317 62.7847 51.0186C61.9185 50.2881 61.2109 49.3767 60.7183 48.3407C60.2264 47.3055 59.9509 46.1443 59.9509 44.9247V43.3808H53.1348V49.1784C53.1348 49.561 53.0764 49.9332 52.9678 50.2825C52.8586 50.6325 52.7 50.9594 52.4996 51.2558C52.0996 51.8479 51.5339 52.3182 50.866 52.6007C50.4215 52.7892 49.9303 52.8929 49.4203 52.8929C49.0369 52.8929 48.6654 52.8345 48.3162 52.7259C47.9662 52.6167 47.6392 52.4581 47.3428 52.2584C46.7501 51.8576 46.2805 51.2927 45.9973 50.6248C45.8094 50.1795 45.7051 49.689 45.7051 49.1784V38.439C45.7051 37.9534 46.0989 37.5596 46.5845 37.5596C47.0701 37.5596 47.4639 37.9534 47.4639 38.439V49.1791C47.4639 49.3836 47.4952 49.5777 47.5523 49.7614C47.6093 49.9444 47.6921 50.1162 47.7978 50.2721C48.0087 50.5851 48.3092 50.8342 48.6592 50.9817C48.8929 51.0805 49.1476 51.1348 49.4203 51.1348C49.6248 51.1348 49.819 51.1042 50.0026 51.0471C50.1856 50.9901 50.3575 50.9073 50.5133 50.8015C50.8257 50.5907 51.0754 50.2902 51.2229 49.9402C51.321 49.7064 51.376 49.4518 51.376 49.1791V42.5028C51.376 42.5028 51.376 42.5028 51.376 42.5021V39.2899C51.376 38.8043 51.7698 38.4105 52.2554 38.4105C52.741 38.4105 53.1348 38.8043 53.1348 39.2899V41.6234H59.9509V38.4397C59.9509 38.0849 59.8974 37.7454 59.7979 37.426C59.6984 37.1067 59.553 36.8068 59.3693 36.5348C59.0013 35.99 58.4795 35.5573 57.8686 35.2992C57.4616 35.1273 57.0156 35.032 56.5418 35.032C56.0472 35.0327 55.5817 35.1364 55.1601 35.3235C54.9493 35.4174 54.7489 35.5322 54.5632 35.6651C54.3774 35.798 54.2049 35.9497 54.049 36.1167C53.7178 36.4715 53.1613 36.4917 52.8064 36.1598C52.4509 35.8286 52.4314 35.272 52.7633 34.9172C53.2343 34.4121 53.8055 34.0009 54.4463 33.7164C55.0871 33.4311 55.7988 33.2732 56.5425 33.2732C57.0762 33.2732 57.5931 33.3546 58.0794 33.5056C58.565 33.6565 59.02 33.8778 59.4326 34.1561C60.2571 34.7134 60.911 35.5002 61.3041 36.429C61.5657 37.0475 61.7104 37.7294 61.7104 38.4404V42.5035C61.7104 42.5042 61.7104 42.5042 61.7104 42.5042V44.6178C61.7104 44.6185 61.7104 44.6185 61.7104 44.6185V44.9281C61.7104 45.8834 61.9247 46.783 62.3074 47.5893C62.6907 48.395 63.2431 49.1074 63.9187 49.6772C64.2902 49.9875 64.3375 50.542 64.0245 50.9135Z" fill="url(#paint1_linear_3_897)"/>
<path d="M73.0532 38.2151V44.9241C73.0539 45.7096 72.8751 46.4596 72.5579 47.1268C72.2399 47.7947 71.7835 48.3819 71.2241 48.8522C70.7782 49.2279 70.2675 49.5292 69.7095 49.7365C69.1522 49.9445 68.5477 50.0572 67.9208 50.0572C67.3913 50.0572 66.8779 49.9765 66.3951 49.8262C65.9122 49.676 65.46 49.4568 65.0509 49.1799C64.2327 48.6268 63.5829 47.8448 63.1926 46.9229C63.1063 46.7177 63.0319 46.5062 62.9727 46.2884C62.8524 45.8536 62.7891 45.3951 62.7891 44.9248C62.7891 44.4392 63.1828 44.0454 63.6685 44.0454C64.1541 44.0454 64.5479 44.4392 64.5479 44.9248C64.5479 45.2761 64.6015 45.6122 64.6995 45.9287C64.7976 46.2453 64.9417 46.5417 65.1233 46.8109C65.4871 47.3501 66.0047 47.7787 66.6086 48.0347C66.8104 48.1196 67.0219 48.1857 67.2411 48.2309C67.4602 48.2761 67.6877 48.2991 67.9222 48.2991C68.3382 48.2991 68.7327 48.2247 69.098 48.089C69.4632 47.9533 69.7993 47.755 70.0929 47.5081C70.3691 47.2757 70.6077 46.9995 70.7977 46.6913C70.9876 46.3831 71.1288 46.0421 71.2116 45.6797C71.2666 45.4376 71.2958 45.1857 71.2958 44.9248V38.2158C71.2958 37.7302 71.6896 37.3364 72.1752 37.3364C72.6594 37.3364 73.0532 37.7302 73.0532 38.2151Z" fill="url(#paint2_linear_3_897)"/>
<path d="M64.5458 38.4386V41.3064C64.5458 41.7921 64.152 42.1858 63.6664 42.1858C63.1808 42.1858 62.787 41.7921 62.787 41.3064V38.4386C62.787 37.7902 62.6889 37.1675 62.5066 36.5817C62.3243 35.9959 62.0579 35.447 61.7211 34.9481C61.0477 33.9511 60.0924 33.158 58.973 32.6849C58.5994 32.527 58.2084 32.4045 57.8021 32.3217C57.3958 32.2382 56.9748 32.1951 56.5421 32.1944C55.8937 32.1944 55.271 32.2925 54.6852 32.4748C54.0994 32.6571 53.5504 32.9235 53.0516 33.2603C52.0546 33.9337 51.2622 34.889 50.7884 36.0084C50.6304 36.3813 50.508 36.773 50.4252 37.1793C50.3417 37.5856 50.2986 38.0066 50.2979 38.4386C50.2979 38.9242 49.9041 39.318 49.4185 39.318C48.9328 39.318 48.5391 38.9242 48.5391 38.4386C48.5391 37.6684 48.6483 36.9212 48.8528 36.2144C48.8674 36.1622 48.8835 36.1107 48.8995 36.0592C49.1332 35.3064 49.4755 34.6023 49.9069 33.9637C50.7696 32.687 51.9892 31.6733 53.4273 31.0652C54.3839 30.6603 55.438 30.4363 56.5393 30.4363H56.5421C57.3693 30.4363 58.1694 30.5622 58.9215 30.796C59.6743 31.0304 60.3784 31.372 61.0171 31.8034C62.2937 32.6661 63.3074 33.8864 63.9155 35.3238C64.3218 36.2811 64.5458 37.3359 64.5458 38.4386Z" fill="url(#paint3_linear_3_897)"/>
<path d="M50.2998 41.8032V49.1558C50.2998 49.6414 49.906 50.0352 49.4204 50.0352C48.9348 50.0352 48.541 49.6414 48.541 49.1558V41.8032C48.541 41.3176 48.9348 40.9238 49.4204 40.9238C49.906 40.9238 50.2998 41.3176 50.2998 41.8032Z" fill="url(#paint4_linear_3_897)"/>
<path d="M76.4919 31.9183C76.4919 31.3241 76.3708 30.7543 76.1524 30.2374C75.824 29.4609 75.2778 28.8035 74.589 28.338C74.2446 28.1057 73.8641 27.9206 73.4578 27.794C73.0515 27.6673 72.6194 27.5999 72.1741 27.5999C71.58 27.5999 71.0102 27.7209 70.4932 27.9394C69.7168 28.2678 69.0593 28.8139 68.5939 29.5027C68.3615 29.8471 68.1765 30.2276 68.0498 30.6339C67.9232 31.0403 67.8557 31.4723 67.8557 31.9176C67.8557 32.5117 67.9768 33.0815 68.1952 33.5985C68.5104 34.3436 69.0273 34.9795 69.6778 35.4415C69.458 35.6411 69.2611 35.8673 69.0941 36.1142C68.8938 36.4106 68.7351 36.7376 68.6266 37.0876C68.5181 37.4368 68.4596 37.8091 68.4596 38.1917V41.5577C68.4596 42.0433 68.8534 42.4371 69.339 42.4371C69.8246 42.4371 70.2184 42.0433 70.2184 41.5577V38.1931C70.2184 37.9204 70.2734 37.6657 70.3715 37.432C70.519 37.082 70.7688 36.7815 71.0811 36.5706C71.2377 36.4649 71.4088 36.3821 71.5925 36.3251C71.7755 36.268 71.9703 36.2374 72.1748 36.2374C72.4476 36.2374 72.7022 36.2924 72.936 36.3905C73.2859 36.5379 73.5865 36.7877 73.7973 37.1001C73.903 37.2566 73.9858 37.4278 74.0429 37.6115C74.0999 37.7944 74.1305 37.9892 74.1305 38.1938V44.925C74.1305 45.7849 73.9566 46.5997 73.6428 47.342C73.1718 48.4552 72.3836 49.4049 71.3921 50.0748C70.8961 50.4095 70.3506 50.6746 69.7676 50.8562C69.1846 51.037 68.5654 51.1351 67.9204 51.1351C67.4348 51.1351 67.041 51.5289 67.041 52.0146C67.041 52.5002 67.4348 52.894 67.9204 52.894C69.0183 52.894 70.0689 52.6713 71.0227 52.2671C72.4538 51.6618 73.6686 50.6523 74.5278 49.3812C74.9571 48.7453 75.298 48.044 75.5311 47.2947C75.7641 46.5454 75.8894 45.7488 75.8894 44.9257V38.1931C75.8894 37.6824 75.7857 37.1919 75.5972 36.7467C75.3147 36.0788 74.8444 35.5131 74.2523 35.1131C73.9559 34.9127 73.6289 34.7541 73.279 34.6456C72.9297 34.537 72.5575 34.4786 72.1748 34.4786C71.8193 34.4786 71.4847 34.4069 71.1792 34.2775C70.7208 34.0841 70.3284 33.7585 70.0522 33.3494C69.9144 33.1449 69.8052 32.9201 69.7307 32.6801C69.6563 32.4401 69.6159 32.1854 69.6159 31.919C69.6159 31.5635 69.6876 31.2288 69.817 30.9227C70.0104 30.4642 70.336 30.0718 70.7451 29.7956C70.9497 29.6578 71.1744 29.5486 71.4144 29.4742C71.6544 29.3997 71.9091 29.3594 72.1755 29.3594C72.5311 29.3594 72.8657 29.431 73.1718 29.5604C73.6303 29.7538 74.0227 30.0794 74.2989 30.4885C74.4367 30.6931 74.5459 30.9178 74.6203 31.1578C74.6948 31.3979 74.7351 31.6525 74.7351 31.919C74.7351 32.152 74.7045 32.3761 74.6468 32.589C74.589 32.8019 74.5049 33.0036 74.3977 33.1908C74.1556 33.6117 74.301 34.1495 74.7226 34.3916C75.1435 34.6337 75.6813 34.4883 75.9235 34.0667C76.105 33.7501 76.2484 33.4085 76.3458 33.0481C76.4404 32.6871 76.4919 32.3079 76.4919 31.9183Z" fill="url(#paint5_linear_3_897)"/>
<path d="M72.1726 33.632C73.119 33.632 73.8862 32.8648 73.8862 31.9184C73.8862 30.972 73.119 30.2048 72.1726 30.2048C71.2262 30.2048 70.459 30.972 70.459 31.9184C70.459 32.8648 71.2262 33.632 72.1726 33.632Z" fill="url(#paint6_linear_3_897)"/>
<path d="M70.8879 36.0425C70.4816 35.9159 70.1011 35.7315 69.7567 35.4985C69.7295 35.4797 69.7024 35.4609 69.676 35.4414C69.4554 35.6418 69.2592 35.8672 69.0915 36.1149C68.8912 36.4113 68.7325 36.7383 68.624 37.0882C68.5155 37.4375 68.457 37.8097 68.457 38.1923V41.5583C68.457 42.0439 68.8508 42.4377 69.3364 42.4377C69.8221 42.4377 70.2158 42.0439 70.2158 41.5583V38.193C70.2158 37.9203 70.2708 37.6657 70.3689 37.4319C70.5164 37.0819 70.7662 36.7814 71.0786 36.5706C71.2351 36.4648 71.4062 36.382 71.5899 36.325C71.7729 36.2679 71.9677 36.2373 72.1723 36.2373C71.7263 36.2366 71.2942 36.1691 70.8879 36.0425Z" fill="url(#paint7_linear_3_897)"/>
<path d="M55.4585 41.6218H53.1348V43.3806H55.4585V41.6218Z" fill="url(#paint8_linear_3_897)"/>
<path d="M57.627 41.6221H59.9507V43.3809H57.627V41.6221Z" fill="url(#paint9_linear_3_897)"/>
<g opacity="0.8">
<path d="M24.5131 61.9688H21.655L16.0996 74.4739H19.0648L20.1815 71.7939L21.0922 69.5968L23.075 64.8317L25.0579 69.5968L25.9693 71.7939L27.0859 74.4739H30.1228L24.5131 61.9688Z" fill="black"/>
<path d="M40.9502 68.8842C40.9502 70.0627 40.706 70.9178 40.2176 71.4473C39.7292 71.9774 39.0446 72.2425 38.1631 72.2425C37.2934 72.2425 36.6151 71.9774 36.1267 71.4473C35.6383 70.9178 35.3941 70.0627 35.3941 68.8842V61.9707H32.4824V68.9551C32.4824 70.8016 32.9827 72.2188 33.9831 73.2068C34.9836 74.1954 36.3709 74.6894 38.1457 74.6894C39.908 74.6894 41.2897 74.1954 42.2902 73.2068C43.2906 72.2188 43.7909 70.8009 43.7909 68.9551V61.97H40.9502V68.8842Z" fill="black"/>
<path d="M56.3827 70.4551C56.3869 70.451 56.3959 70.451 56.4008 70.4461C57.2093 70.0934 57.8347 69.5841 58.2765 68.9099C58.7183 68.2399 58.9375 67.4315 58.9375 66.4895C58.9375 65.5607 58.7183 64.7564 58.2765 64.078C57.8347 63.399 57.2093 62.8814 56.4008 62.5147C55.5924 62.1529 54.6281 61.97 53.5066 61.97H48.0938V74.4751H51.0054V70.9735H53.5066C53.5511 70.9735 53.5914 70.9686 53.6318 70.9686L56.0613 74.4744H59.1691L56.3827 70.4551ZM55.3461 68.0973C54.8952 68.4813 54.2253 68.6692 53.3451 68.6692H51.0047V64.3278H53.3451C54.2253 64.3278 54.8946 64.5157 55.3461 64.8907C55.7969 65.2657 56.0251 65.8021 56.0251 66.4895C56.0251 67.1817 55.7976 67.7174 55.3461 68.0973Z" fill="black"/>
<path d="M75.043 65.631C74.7035 64.8448 74.2255 64.1616 73.6049 63.5765C72.9843 62.9956 72.2608 62.5447 71.4342 62.2275C70.6077 61.9151 69.697 61.7544 68.7097 61.7544C67.7225 61.7544 66.8118 61.9151 65.9852 62.2365C65.1587 62.558 64.4358 63.0137 63.8145 63.5939C63.194 64.179 62.716 64.8622 62.3765 65.6394C62.0369 66.4207 61.8672 67.2785 61.8672 68.2205C61.8672 69.1494 62.0369 70.0072 62.3765 70.7927C62.716 71.5789 63.194 72.2662 63.8145 72.8472C64.4351 73.4323 65.1587 73.8831 65.9943 74.2046C66.8292 74.526 67.7406 74.6867 68.7278 74.6867C69.706 74.6867 70.6077 74.5302 71.4342 74.2136C72.2608 73.9012 72.9836 73.4497 73.6049 72.8646C74.2255 72.2843 74.7035 71.5962 75.043 70.801C75.3825 70.0107 75.5523 69.1487 75.5523 68.2199C75.5523 67.2792 75.3825 66.4172 75.043 65.631ZM72.3275 69.8381C72.1314 70.3203 71.8545 70.7447 71.4968 71.1065C71.1392 71.4682 70.7239 71.7493 70.255 71.9462C69.786 72.1424 69.2677 72.2412 68.7097 72.2412C68.1518 72.2412 67.6334 72.1431 67.1555 71.9462C66.6775 71.7493 66.267 71.4682 65.9136 71.1065C65.5608 70.7447 65.2881 70.3203 65.0919 69.8381C64.8957 69.356 64.7969 68.8196 64.7969 68.2212C64.7969 67.6271 64.895 67.0872 65.0919 66.6044C65.2881 66.1222 65.5608 65.6978 65.9136 65.336C66.2663 64.9743 66.6775 64.6932 67.1555 64.4963C67.6334 64.2994 68.1511 64.2013 68.7097 64.2013C69.2677 64.2013 69.786 64.2994 70.255 64.4963C70.7239 64.6925 71.1392 64.9743 71.4968 65.336C71.8545 65.6978 72.1314 66.1222 72.3275 66.6044C72.5237 67.0865 72.6225 67.6271 72.6225 68.2212C72.6225 68.8196 72.5244 69.356 72.3275 69.8381Z" fill="black"/>
<path d="M87.4472 70.4549C87.4514 70.4507 87.4604 70.4507 87.4653 70.4459C88.2737 70.0931 88.8992 69.5838 89.341 68.9097C89.7828 68.2397 90.0019 67.4312 90.0019 66.4892C90.0019 65.5604 89.7828 64.7561 89.341 64.0778C88.8992 63.3988 88.2737 62.8811 87.4653 62.5145C86.6568 62.1527 85.6925 61.9697 84.571 61.9697H79.1582V74.4749H82.0699V70.9732H84.571C84.6155 70.9732 84.6517 70.9684 84.6963 70.9684L87.1258 74.4742H90.2343L87.4472 70.4549ZM86.4112 68.0971C85.9604 68.4811 85.2904 68.669 84.4103 68.669H82.0699V64.3276H84.4103C85.2904 64.3276 85.9597 64.5154 86.4112 64.8904C86.8621 65.2654 87.0903 65.8018 87.0903 66.4892C87.0903 67.1815 86.8628 67.7172 86.4112 68.0971Z" fill="black"/>
<path d="M100.488 61.9688H97.6297L92.0742 74.4739H95.0394L96.1512 71.7939L99.0496 64.8317L101.944 71.7939L102.132 72.2406L103.061 74.4739H106.097L100.488 61.9688Z" fill="black"/>
<path d="M34.7726 78.5759H33.3164V84.8285H34.7726V78.5759Z" fill="black"/>
<path d="M42.3365 82.3688L39.2286 78.5757H38.0312V84.8282H39.461V81.0351L42.5688 84.8282H43.7662V78.5757H42.3365V82.3688Z" fill="black"/>
<path d="M51.0199 81.6704C50.8056 81.5424 50.5704 81.4374 50.3144 81.3532C50.0584 81.2697 49.7996 81.2001 49.5373 81.1431C49.2757 81.0867 49.0377 81.0304 48.8228 80.9733C48.6085 80.917 48.4352 80.8377 48.3044 80.7368C48.1736 80.6359 48.1082 80.5016 48.1082 80.3353C48.1082 80.2038 48.1486 80.0849 48.2286 79.9777C48.3086 79.8706 48.4352 79.7857 48.6085 79.7238C48.781 79.6612 49.0099 79.6299 49.2965 79.6299C49.57 79.6299 49.8559 79.6702 50.1537 79.7502C50.4515 79.8302 50.7402 79.9513 51.0199 80.112L51.4756 79.0218C51.1896 78.843 50.8543 78.7059 50.4709 78.6106C50.0869 78.5153 49.698 78.4673 49.3049 78.4673C48.7149 78.4673 48.2251 78.5556 47.8355 78.731C47.4459 78.907 47.1551 79.1421 46.9645 79.4364C46.7738 79.7314 46.6785 80.0577 46.6785 80.4146C46.6785 80.7423 46.7425 81.0151 46.8705 81.2321C46.9985 81.4492 47.1711 81.6252 47.3888 81.7588C47.6059 81.8924 47.8446 82.0002 48.1034 82.0802C48.3622 82.1609 48.6203 82.2291 48.8763 82.2855C49.1324 82.3418 49.3689 82.4017 49.5867 82.4643C49.8044 82.5269 49.9784 82.6076 50.1092 82.7057C50.24 82.8038 50.3061 82.9367 50.3061 83.103C50.3061 83.2345 50.2643 83.3493 50.1808 83.4474C50.0973 83.5454 49.9679 83.6248 49.7919 83.6839C49.6159 83.743 49.3856 83.773 49.0997 83.773C48.7247 83.773 48.3524 83.7124 47.983 83.59C47.6136 83.4675 47.2984 83.311 47.0361 83.1204L46.5449 84.2106C46.8246 84.4249 47.1954 84.5995 47.6567 84.7331C48.118 84.8666 48.5994 84.9341 49.0997 84.9341C49.6896 84.9341 50.1801 84.8444 50.5732 84.6656C50.9663 84.4875 51.2599 84.2523 51.4526 83.9601C51.646 83.6686 51.7427 83.3472 51.7427 82.9958C51.7427 82.6737 51.6753 82.4051 51.5417 82.1874C51.4088 81.9717 51.2349 81.7992 51.0199 81.6704Z" fill="black"/>
<path d="M55.9757 78.5759H54.5195V84.8285H55.9757V78.5759Z" fill="black"/>
<path d="M60.874 80.2549C61.0556 80.0768 61.272 79.9377 61.5218 79.8396C61.7715 79.7415 62.0456 79.6921 62.3434 79.6921C62.6649 79.6921 62.9598 79.7498 63.2277 79.866C63.4956 79.9822 63.7453 80.1624 63.9777 80.4066L64.8975 79.5495C64.5941 79.1981 64.2198 78.9303 63.7766 78.7459C63.3335 78.5615 62.8346 78.469 62.2808 78.469C61.7806 78.469 61.3221 78.5476 60.9053 78.7055C60.4886 78.8635 60.1254 79.0882 59.8151 79.3797C59.5055 79.6712 59.2662 80.0135 59.0964 80.4066C58.9267 80.7997 58.8418 81.2318 58.8418 81.7021C58.8418 82.1724 58.9267 82.6037 59.0964 82.9975C59.2662 83.3906 59.5027 83.7329 59.8068 84.0244C60.1101 84.3159 60.4705 84.5407 60.8872 84.6986C61.304 84.8565 61.7597 84.9351 62.2537 84.9351C62.7003 84.9351 63.147 84.8677 63.5937 84.7341C64.0403 84.6005 64.4362 84.4022 64.782 84.1399V81.6033H63.4601V83.431C63.3641 83.4818 63.2681 83.5339 63.17 83.568C62.8986 83.6633 62.6203 83.7114 62.3351 83.7114C62.0373 83.7114 61.7646 83.6606 61.5176 83.5597C61.2706 83.4588 61.0556 83.3183 60.874 83.1395C60.6924 82.9613 60.5526 82.7485 60.4545 82.5008C60.3557 82.2538 60.307 81.9873 60.307 81.7014C60.307 81.4036 60.3557 81.133 60.4545 80.8888C60.5526 80.6453 60.6924 80.4337 60.874 80.2549Z" fill="black"/>
<path d="M72.1953 81.0407H69.3644V78.5757H67.9082V84.8282H69.3644V82.2645H72.1953V84.8282H73.6424V78.5757H72.1953V81.0407Z" fill="black"/>
<path d="M76.207 79.755H78.208V84.8282H79.6551V79.755H81.656V78.5757H76.207V79.755Z" fill="black"/>
<path d="M88.6811 82.1888C88.5475 81.9717 88.3728 81.7992 88.1586 81.6704C87.9443 81.5424 87.7091 81.4374 87.4531 81.3532C87.1971 81.2697 86.9382 81.2001 86.6759 81.1431C86.4137 81.0867 86.1757 81.0304 85.9614 80.9733C85.7471 80.917 85.5739 80.8377 85.4431 80.7368C85.3116 80.6359 85.2462 80.5016 85.2462 80.3353C85.2462 80.2038 85.2866 80.0849 85.3673 79.9777C85.4473 79.8706 85.5739 79.7857 85.7464 79.7238C85.919 79.6612 86.1486 79.6299 86.4345 79.6299C86.7086 79.6299 86.9939 79.6702 87.2917 79.7502C87.5894 79.8302 87.8782 79.9513 88.1586 80.112L88.6136 79.0218C88.3276 78.843 87.993 78.7059 87.6089 78.6106C87.2249 78.5153 86.8367 78.4673 86.4436 78.4673C85.8536 78.4673 85.3638 78.5556 84.9742 78.731C84.5839 78.907 84.2938 79.1421 84.1031 79.4364C83.9125 79.7314 83.8172 80.0577 83.8172 80.4146C83.8172 80.7423 83.8812 81.0151 84.0092 81.2321C84.1372 81.4492 84.3098 81.6252 84.5275 81.7588C84.7446 81.8924 84.9825 82.0002 85.242 82.0802C85.5009 82.1609 85.7583 82.2291 86.0143 82.2855C86.2703 82.3418 86.5069 82.4017 86.7247 82.4643C86.9417 82.5269 87.1156 82.6076 87.2471 82.7057C87.3779 82.8038 87.4433 82.9367 87.4433 83.103C87.4433 83.2345 87.4016 83.3493 87.3188 83.4474C87.2353 83.5454 87.1052 83.6248 86.9299 83.6839C86.7539 83.743 86.5236 83.773 86.2376 83.773C85.8626 83.773 85.4904 83.7124 85.121 83.59C84.7522 83.4675 84.4364 83.311 84.1748 83.1204L83.6836 84.2106C83.9633 84.4249 84.3341 84.5995 84.7961 84.7331C85.2573 84.8666 85.7388 84.9341 86.2383 84.9341C86.8283 84.9341 87.3195 84.8444 87.7126 84.6656C88.1057 84.4875 88.3986 84.2523 88.592 83.9601C88.7854 83.6686 88.8828 83.3472 88.8828 82.9958C88.8821 82.6758 88.8153 82.4065 88.6811 82.1888Z" fill="black"/>
<path d="M31.2346 80.7686H16.0996V82.6352H31.2346V80.7686Z" fill="black"/>
<path d="M106.098 80.7686H90.9629V82.6352H106.098V80.7686Z" fill="black"/>
</g>
<defs>
<linearGradient id="paint0_linear_3_897" x1="75.4784" y1="52.8683" x2="51.4778" y2="27.8846" gradientUnits="userSpaceOnUse">
<stop stop-color="#BA24ED"/>
<stop offset="1" stop-color="#01EBFA"/>
</linearGradient>
<linearGradient id="paint1_linear_3_897" x1="68.829" y1="59.2578" x2="44.8283" y2="34.2741" gradientUnits="userSpaceOnUse">
<stop stop-color="#BA24ED"/>
<stop offset="1" stop-color="#01EBFA"/>
</linearGradient>
<linearGradient id="paint2_linear_3_897" x1="76.7657" y1="51.6337" x2="52.7651" y2="26.65" gradientUnits="userSpaceOnUse">
<stop stop-color="#BA24ED"/>
<stop offset="1" stop-color="#01EBFA"/>
</linearGradient>
<linearGradient id="paint3_linear_3_897" x1="73.5569" y1="54.7157" x2="49.5563" y2="29.732" gradientUnits="userSpaceOnUse">
<stop stop-color="#BA24ED"/>
<stop offset="1" stop-color="#01EBFA"/>
</linearGradient>
<linearGradient id="paint4_linear_3_897" x1="65.6191" y1="62.3418" x2="41.6184" y2="37.3581" gradientUnits="userSpaceOnUse">
<stop stop-color="#BA24ED"/>
<stop offset="1" stop-color="#01EBFA"/>
</linearGradient>
<linearGradient id="paint5_linear_3_897" x1="79.3413" y1="49.1594" x2="55.3407" y2="24.1756" gradientUnits="userSpaceOnUse">
<stop stop-color="#BA24ED"/>
<stop offset="1" stop-color="#01EBFA"/>
</linearGradient>
<linearGradient id="paint6_linear_3_897" x1="84.2262" y1="44.4653" x2="60.2256" y2="19.4816" gradientUnits="userSpaceOnUse">
<stop stop-color="#BA24ED"/>
<stop offset="1" stop-color="#01EBFA"/>
</linearGradient>
<linearGradient id="paint7_linear_3_897" x1="70.8033" y1="35.1215" x2="70.1383" y2="37.6373" gradientUnits="userSpaceOnUse">
<stop stop-color="#37593D"/>
<stop offset="0.0896" stop-color="#37593D" stop-opacity="0.9104"/>
<stop offset="1" stop-color="#37593D" stop-opacity="0"/>
</linearGradient>
<linearGradient id="paint8_linear_3_897" x1="52.456" y1="42.501" x2="54.3509" y2="42.501" gradientUnits="userSpaceOnUse">
<stop stop-color="#37593D"/>
<stop offset="0.0896" stop-color="#37593D" stop-opacity="0.9104"/>
<stop offset="1" stop-color="#37593D" stop-opacity="0"/>
</linearGradient>
<linearGradient id="paint9_linear_3_897" x1="60.2591" y1="42.5012" x2="59.3217" y2="42.5012" gradientUnits="userSpaceOnUse">
<stop stop-color="#37593D"/>
<stop offset="0.0896" stop-color="#37593D" stop-opacity="0.9104"/>
<stop offset="1" stop-color="#37593D" stop-opacity="0"/>
</linearGradient>
</defs>
</svg>
