<svg width="128" height="26" viewBox="0 0 128 26" fill="none" xmlns="http://www.w3.org/2000/svg">
<path d="M24.4214 17.661C24.4214 17.896 24.3853 18.1254 24.3188 18.3417C24.2516 18.5572 24.1538 18.759 24.0304 18.942C23.7837 19.3066 23.4364 19.5956 23.0246 19.7703C22.8874 19.8285 22.7432 19.8736 22.5935 19.9041C22.4445 19.9346 22.2906 19.9505 22.1332 19.9505C21.8982 19.9505 21.6688 19.9145 21.4532 19.8472C21.2376 19.78 21.0359 19.6823 20.8529 19.5589C20.4883 19.3121 20.1993 18.9641 20.0246 18.5524C19.9088 18.2779 19.8444 17.975 19.8444 17.6617V16.8708C19.8444 16.8195 19.8485 16.7689 19.8575 16.7203C19.8492 16.6711 19.8444 16.6212 19.8444 16.5699V11.1999C19.8444 10.2613 19.7023 9.35884 19.4382 8.5097C19.1734 7.66056 18.788 6.8648 18.3 6.1432C17.324 4.69863 15.9411 3.55074 14.3191 2.86449C13.7784 2.63575 13.2107 2.4583 12.6222 2.33768C12.0337 2.21707 11.4237 2.15399 10.7978 2.15399C9.97012 2.15399 9.17089 2.2649 8.41117 2.47216C7.65145 2.67942 6.93194 2.98303 6.2658 3.36982C4.93352 4.14271 3.81474 5.24832 3.02522 6.5702C2.77706 6.98541 2.23916 7.12127 1.82395 6.87312C1.40874 6.62496 1.27287 6.08706 1.52103 5.67185C2.22807 4.48791 3.15415 3.45231 4.24381 2.61842C5.33348 1.78522 6.58813 1.15374 7.95021 0.782202C8.40424 0.658124 8.87005 0.56316 9.34557 0.499388C9.82109 0.435616 10.3056 0.402344 10.7978 0.402344C11.9145 0.402344 12.9937 0.572171 14.0085 0.887565C15.024 1.20365 15.9744 1.66461 16.836 2.24688C18.5585 3.41141 19.9269 5.05839 20.7469 6.99719C21.2938 8.28996 21.596 9.71235 21.596 11.2006V16.5706C21.596 16.6219 21.5919 16.6725 21.5828 16.721C21.5912 16.7702 21.596 16.8202 21.596 16.8714V17.6624C21.596 17.7192 21.6043 17.7719 21.6203 17.8218C21.6355 17.8717 21.6584 17.9188 21.6875 17.9611C21.7457 18.0471 21.8289 18.1164 21.9246 18.1566C21.9884 18.1829 22.0563 18.1982 22.1325 18.1982C22.1901 18.1982 22.2428 18.1899 22.2927 18.1739C22.3426 18.1587 22.3897 18.1358 22.432 18.1067C22.5179 18.0485 22.5873 17.9653 22.6268 17.8696C22.6538 17.8058 22.6684 17.7372 22.6691 17.661C22.6691 17.1771 23.0614 16.7848 23.5452 16.7848C24.0291 16.7848 24.4214 17.1764 24.4214 17.661Z" fill="url(#paint0_linear_3_25870)"/>
<path d="M18.2519 23.6272C17.94 23.9966 17.3869 24.0438 17.0167 23.7318C16.1537 23.004 15.4488 22.0959 14.958 21.0638C14.4679 20.0324 14.1934 18.8755 14.1934 17.6603V16.1222H7.4024V21.8984C7.4024 22.2796 7.34417 22.6505 7.23604 22.9985C7.12721 23.3471 6.96916 23.6729 6.76953 23.9682C6.37096 24.5581 5.80741 25.0267 5.14196 25.3081C4.69902 25.496 4.20964 25.5992 3.70155 25.5992C3.31961 25.5992 2.94945 25.541 2.60148 25.4329C2.25281 25.3241 1.92702 25.166 1.63173 24.9671C1.04115 24.5678 0.573254 24.0049 0.291133 23.3395C0.103976 22.8959 0 22.4072 0 21.8984V11.1986C0 10.7147 0.392336 10.3224 0.876171 10.3224C1.36001 10.3224 1.75234 10.7147 1.75234 11.1986V21.8991C1.75234 22.1029 1.78354 22.2963 1.84038 22.4793C1.89722 22.6616 1.9797 22.8328 2.08507 22.9881C2.2951 23.3 2.59455 23.5481 2.94321 23.6951C3.17612 23.7935 3.42982 23.8476 3.70155 23.8476C3.90534 23.8476 4.09873 23.8171 4.28173 23.7603C4.46404 23.7034 4.63525 23.6209 4.79052 23.5156C5.10176 23.3055 5.35061 23.0061 5.49756 22.6574C5.59529 22.4245 5.65006 22.1708 5.65006 21.8991V15.2474C5.65006 15.2474 5.65006 15.2474 5.65006 15.2467V12.0463C5.65006 11.5625 6.04239 11.1701 6.52623 11.1701C7.01006 11.1701 7.4024 11.5625 7.4024 12.0463V14.3712H14.1934V11.1993C14.1934 10.8457 14.14 10.5075 14.0409 10.1893C13.9418 9.87114 13.7969 9.57239 13.6139 9.30135C13.2472 8.7586 12.7274 8.32745 12.1187 8.07028C11.7132 7.89906 11.2689 7.8041 10.7969 7.8041C10.304 7.80479 9.84029 7.90808 9.42023 8.09454C9.21019 8.18812 9.01056 8.30249 8.82548 8.43489C8.6404 8.56728 8.4685 8.7184 8.31323 8.88476C7.98328 9.23828 7.42874 9.25838 7.07522 8.92773C6.72101 8.59778 6.7016 8.04325 7.03224 7.68973C7.50152 7.18648 8.07062 6.77682 8.70903 6.49331C9.34744 6.20911 10.0566 6.05176 10.7976 6.05176C11.3292 6.05176 11.8443 6.13286 12.3288 6.28328C12.8126 6.4337 13.266 6.65413 13.677 6.93139C14.4984 7.48663 15.15 8.2706 15.5416 9.19599C15.8023 9.81222 15.9465 10.4915 15.9465 11.2V15.2481C15.9465 15.2488 15.9465 15.2488 15.9465 15.2488V17.3546C15.9465 17.3553 15.9465 17.3553 15.9465 17.3553V17.6638C15.9465 18.6155 16.1599 19.5118 16.5412 20.3152C16.9231 21.1179 17.4735 21.8277 18.1466 22.3954C18.5167 22.7046 18.5639 23.257 18.2519 23.6272Z" fill="url(#paint1_linear_3_25870)"/>
<path d="M27.2464 10.9756V17.6598C27.2471 18.4424 27.069 19.1897 26.7529 19.8544C26.4361 20.5199 25.9814 21.1049 25.4241 21.5735C24.9797 21.9478 24.4709 22.248 23.915 22.4545C23.3598 22.6618 22.7574 22.7741 22.1329 22.7741C21.6054 22.7741 21.0938 22.6937 20.6127 22.5439C20.1317 22.3942 19.6811 22.1759 19.2735 21.9C18.4584 21.3489 17.8109 20.5698 17.4221 19.6513C17.3361 19.4468 17.2619 19.2361 17.203 19.0192C17.0831 18.5859 17.02 18.1291 17.02 17.6605C17.02 17.1767 17.4124 16.7844 17.8962 16.7844C18.38 16.7844 18.7724 17.1767 18.7724 17.6605C18.7724 18.0106 18.8257 18.3454 18.9235 18.6608C19.0212 18.9762 19.1647 19.2715 19.3456 19.5397C19.7081 20.0769 20.2239 20.5039 20.8255 20.759C21.0266 20.8436 21.2373 20.9094 21.4556 20.9545C21.674 20.9996 21.9007 21.0224 22.1343 21.0224C22.5488 21.0224 22.9418 20.9483 23.3057 20.8131C23.6696 20.6779 24.0044 20.4804 24.297 20.2343C24.5721 20.0028 24.8099 19.7276 24.9991 19.4205C25.1884 19.1134 25.3291 18.7738 25.4116 18.4126C25.4663 18.1714 25.4955 17.9205 25.4955 17.6605V10.9763C25.4955 10.4924 25.8878 10.1001 26.3716 10.1001C26.8541 10.1001 27.2464 10.4924 27.2464 10.9756Z" fill="url(#paint2_linear_3_25870)"/>
<path d="M18.7711 11.1985V14.0557C18.7711 14.5396 18.3787 14.9319 17.8949 14.9319C17.4111 14.9319 17.0187 14.5396 17.0187 14.0557V11.1985C17.0187 10.5524 16.921 9.93204 16.7394 9.34839C16.5578 8.76473 16.2923 8.21782 15.9568 7.72081C15.2858 6.7275 14.3341 5.93728 13.2188 5.46592C12.8465 5.30857 12.457 5.18657 12.0522 5.10409C11.6473 5.02091 11.228 4.97793 10.7968 4.97724C10.1508 4.97724 9.53039 5.07497 8.94673 5.25658C8.36308 5.4382 7.81617 5.70368 7.31916 6.03918C6.32585 6.71017 5.53632 7.6619 5.06427 8.77721C4.90692 9.14875 4.78492 9.53901 4.70243 9.94382C4.61925 10.3486 4.57628 10.768 4.57559 11.1985C4.57559 11.6823 4.18325 12.0746 3.69941 12.0746C3.21558 12.0746 2.82324 11.6823 2.82324 11.1985C2.82324 10.4311 2.93207 9.68665 3.13586 8.98239C3.15042 8.9304 3.16636 8.87911 3.18231 8.82781C3.41521 8.0778 3.75625 7.37631 4.18602 6.73997C5.04556 5.468 6.26069 4.45805 7.69348 3.85221C8.64659 3.44879 9.69675 3.22559 10.794 3.22559H10.7968C11.621 3.22559 12.4181 3.35105 13.1675 3.58396C13.9175 3.81756 14.619 4.1579 15.2553 4.58767C16.5273 5.44721 17.5372 6.66303 18.1431 8.09513C18.5479 9.04893 18.7711 10.0998 18.7711 11.1985Z" fill="url(#paint3_linear_3_25870)"/>
<path d="M4.57705 14.5502V21.8757C4.57705 22.3595 4.18471 22.7519 3.70088 22.7519C3.21704 22.7519 2.82471 22.3595 2.82471 21.8757V14.5502C2.82471 14.0664 3.21704 13.6741 3.70088 13.6741C4.18471 13.6741 4.57705 14.0664 4.57705 14.5502Z" fill="url(#paint4_linear_3_25870)"/>
<path d="M30.6729 4.70194C30.6729 4.10997 30.5523 3.54226 30.3346 3.02723C30.0075 2.25365 29.4633 1.5986 28.7771 1.13487C28.434 0.903351 28.0548 0.718968 27.65 0.59281C27.2452 0.466652 26.8147 0.399414 26.3711 0.399414C25.7791 0.399414 25.2114 0.520027 24.6964 0.737683C23.9228 1.06486 23.2677 1.609 22.804 2.29524C22.5725 2.63836 22.3881 3.01753 22.2619 3.42234C22.1358 3.82716 22.0685 4.25762 22.0685 4.70125C22.0685 5.29322 22.1892 5.86093 22.4068 6.37595C22.7208 7.11834 23.2358 7.7519 23.884 8.21217C23.6649 8.41111 23.4688 8.63639 23.3024 8.88247C23.1028 9.17776 22.9447 9.50355 22.8366 9.85222C22.7284 10.2002 22.6702 10.571 22.6702 10.9523V14.3059C22.6702 14.7897 23.0626 15.182 23.5464 15.182C24.0302 15.182 24.4226 14.7897 24.4226 14.3059V10.9537C24.4226 10.6819 24.4773 10.4282 24.5751 10.1953C24.722 9.84667 24.9709 9.54722 25.2821 9.33719C25.4381 9.23183 25.6086 9.14934 25.7916 9.0925C25.9739 9.03566 26.168 9.00516 26.3718 9.00516C26.6435 9.00516 26.8972 9.05992 27.1301 9.15766C27.4788 9.30461 27.7782 9.55346 27.9882 9.8647C28.0936 10.0207 28.1761 10.1912 28.2329 10.3742C28.2898 10.5565 28.3203 10.7506 28.3203 10.9544V17.6608C28.3203 18.5176 28.147 19.3293 27.8344 20.0689C27.3651 21.178 26.5797 22.1242 25.5919 22.7917C25.0977 23.1251 24.5543 23.3892 23.9734 23.5701C23.3925 23.7503 22.7756 23.8481 22.133 23.8481C21.6492 23.8481 21.2568 24.2404 21.2568 24.7243C21.2568 25.2081 21.6492 25.6004 22.133 25.6004C23.2268 25.6004 24.2735 25.3786 25.2239 24.9759C26.6497 24.3728 27.86 23.367 28.7161 22.1006C29.1438 21.467 29.4834 20.7683 29.7156 20.0218C29.9478 19.2752 30.0726 18.4815 30.0726 17.6615V10.9537C30.0726 10.4449 29.9693 9.95619 29.7815 9.51256C29.5001 8.84712 29.0315 8.28357 28.4416 7.88499C28.1463 7.68536 27.8205 7.52731 27.4718 7.41918C27.1239 7.31104 26.753 7.25282 26.3718 7.25282C26.0176 7.25282 25.6841 7.18142 25.3798 7.05249C24.923 6.85979 24.5321 6.53538 24.2569 6.1278C24.1196 5.92401 24.0108 5.70011 23.9366 5.46097C23.8625 5.22182 23.8223 4.96812 23.8223 4.70263C23.8223 4.34842 23.8937 4.01501 24.0226 3.71001C24.2153 3.25321 24.5397 2.86226 24.9473 2.58707C25.1511 2.44982 25.375 2.34099 25.6141 2.26682C25.8533 2.19265 26.107 2.15245 26.3725 2.15245C26.7267 2.15245 27.0601 2.22385 27.3651 2.35278C27.8219 2.54548 28.2128 2.86988 28.488 3.27747C28.6253 3.48126 28.7341 3.70516 28.8083 3.9443C28.8824 4.18345 28.9226 4.43715 28.9226 4.70263C28.9226 4.93485 28.8921 5.15805 28.8346 5.37016C28.7771 5.58227 28.6932 5.78329 28.5865 5.96975C28.3452 6.38912 28.4901 6.92495 28.9102 7.16617C29.3295 7.4074 29.8654 7.26252 30.1066 6.84246C30.2875 6.52707 30.4303 6.18672 30.5273 5.82765C30.6216 5.4679 30.6729 5.09012 30.6729 4.70194Z" fill="url(#paint5_linear_3_25870)"/>
<path d="M26.3704 6.40993C27.3133 6.40993 28.0777 5.64556 28.0777 4.70265C28.0777 3.75974 27.3133 2.99536 26.3704 2.99536C25.4275 2.99536 24.6631 3.75974 24.6631 4.70265C24.6631 5.64556 25.4275 6.40993 26.3704 6.40993Z" fill="url(#paint6_linear_3_25870)"/>
<path d="M25.0914 8.81106C24.6866 8.6849 24.3074 8.50121 23.9643 8.269C23.9372 8.25028 23.9102 8.23157 23.8839 8.21216C23.6641 8.41179 23.4687 8.63638 23.3016 8.88315C23.102 9.17844 22.9439 9.50423 22.8358 9.8529C22.7277 10.2009 22.6694 10.5717 22.6694 10.953V14.3065C22.6694 14.7904 23.0618 15.1827 23.5456 15.1827C24.0294 15.1827 24.4218 14.7904 24.4218 14.3065V10.9537C24.4218 10.6819 24.4765 10.4282 24.5743 10.1953C24.7212 9.84666 24.9701 9.54721 25.2813 9.33718C25.4373 9.23182 25.6078 9.14933 25.7908 9.09249C25.9731 9.03565 26.1672 9.00515 26.371 9.00515C25.9267 9.00446 25.4962 8.93722 25.0914 8.81106Z" fill="url(#paint7_linear_3_25870)"/>
<path d="M9.71754 14.3704H7.40234V16.1227H9.71754V14.3704Z" fill="url(#paint8_linear_3_25870)"/>
<path d="M11.8774 14.3704H14.1926V16.1227H11.8774V14.3704Z" fill="url(#paint9_linear_3_25870)"/>
<path d="M46.7141 1.66504H43.8665L38.3315 14.1241H41.2858L42.3984 11.454L43.3058 9.26499L45.2813 4.51745L47.2568 9.26499L48.1649 11.454L49.2774 14.1241H52.3031L46.7141 1.66504Z" fill="white"/>
<path d="M63.0897 8.55453C63.0897 9.72876 62.8464 10.5807 62.3598 11.1082C61.8732 11.6364 61.1911 11.9005 60.3128 11.9005C59.4464 11.9005 58.7705 11.6364 58.2839 11.1082C57.7973 10.5807 57.554 9.72876 57.554 8.55453V1.66646H54.6531V8.62523C54.6531 10.4649 55.1515 11.8769 56.1482 12.8612C57.145 13.8462 58.5272 14.3384 60.2955 14.3384C62.0513 14.3384 63.428 13.8462 64.4247 12.8612C65.4215 11.8769 65.9199 10.4642 65.9199 8.62523V1.66577H63.0897V8.55453Z" fill="white"/>
<path d="M78.467 10.1197C78.4711 10.1156 78.4801 10.1156 78.485 10.1107C79.2904 9.75926 79.9136 9.25186 80.3538 8.58017C80.7939 7.91265 81.0123 7.10718 81.0123 6.16863C81.0123 5.24324 80.7939 4.44193 80.3538 3.76609C79.9136 3.08955 79.2904 2.57383 78.485 2.20853C77.6795 1.84808 76.7188 1.66577 75.6014 1.66577H70.2085V14.1249H73.1094V10.6361H75.6014C75.6457 10.6361 75.6859 10.6313 75.7262 10.6313L78.1467 14.1242H81.2431L78.467 10.1197ZM77.4341 7.77055C76.985 8.15318 76.3174 8.34034 75.4406 8.34034H73.1087V4.01494H75.4406C76.3174 4.01494 76.9843 4.20209 77.4341 4.57571C77.8833 4.94933 78.1107 5.48377 78.1107 6.16863C78.1107 6.85833 77.884 7.39208 77.4341 7.77055Z" fill="white"/>
<path d="M97.0575 5.31353C96.7192 4.53025 96.243 3.84955 95.6247 3.26659C95.0064 2.68779 94.2855 2.23862 93.462 1.92253C92.6385 1.6113 91.7311 1.45117 90.7475 1.45117C89.7639 1.45117 88.8566 1.61129 88.0331 1.93154C87.2096 2.25179 86.4894 2.70582 85.8704 3.28392C85.2521 3.86688 84.7758 4.54758 84.4376 5.32185C84.0993 6.10028 83.9302 6.95497 83.9302 7.89352C83.9302 8.81891 84.0993 9.67359 84.4376 10.4562C84.7758 11.2395 85.2521 11.9243 85.8704 12.5031C86.4887 13.0861 87.2096 13.5353 88.0421 13.8555C88.8739 14.1758 89.7819 14.3359 90.7656 14.3359C91.7402 14.3359 92.6385 14.1799 93.462 13.8645C94.2855 13.5533 95.0057 13.1034 95.6247 12.5205C96.243 11.9423 96.7192 11.2568 97.0575 10.4645C97.3958 9.67706 97.5649 8.81822 97.5649 7.89283C97.5649 6.95566 97.3958 6.09682 97.0575 5.31353ZM94.352 9.50515C94.1566 9.98552 93.8807 10.4084 93.5244 10.7688C93.1681 11.1293 92.7543 11.4093 92.2871 11.6055C91.8199 11.8009 91.3035 11.8994 90.7475 11.8994C90.1916 11.8994 89.6752 11.8016 89.199 11.6055C88.7228 11.4093 88.3138 11.1293 87.9617 10.7688C87.6102 10.4084 87.3385 9.98552 87.143 9.50515C86.9476 9.02478 86.8491 8.49035 86.8491 7.89422C86.8491 7.30225 86.9469 6.76434 87.143 6.28328C87.3385 5.80291 87.6102 5.38008 87.9617 5.01963C88.3131 4.65918 88.7228 4.37913 89.199 4.18297C89.6752 3.9868 90.1909 3.88906 90.7475 3.88906C91.3035 3.88906 91.8199 3.9868 92.2871 4.18297C92.7543 4.37844 93.1681 4.65918 93.5244 5.01963C93.8807 5.38008 94.1566 5.80291 94.352 6.28328C94.5475 6.76365 94.6459 7.30225 94.6459 7.89422C94.6459 8.49035 94.5482 9.02478 94.352 9.50515Z" fill="white"/>
<path d="M109.418 10.1197C109.422 10.1156 109.431 10.1156 109.436 10.1107C110.242 9.75926 110.865 9.25186 111.305 8.58017C111.745 7.91265 111.963 7.10718 111.963 6.16863C111.963 5.24324 111.745 4.44193 111.305 3.76609C110.865 3.08955 110.242 2.57383 109.436 2.20853C108.631 1.84808 107.67 1.66577 106.553 1.66577H101.16V14.1249H104.061V10.6361H106.553C106.597 10.6361 106.633 10.6313 106.677 10.6313L109.098 14.1242H112.195L109.418 10.1197ZM108.386 7.77055C107.937 8.15318 107.269 8.34034 106.392 8.34034H104.061V4.01494H106.392C107.269 4.01494 107.936 4.20209 108.386 4.57571C108.835 4.94933 109.063 5.48377 109.063 6.16863C109.063 6.85833 108.836 7.39208 108.386 7.77055Z" fill="white"/>
<path d="M122.411 1.66504H119.563L114.028 14.1241H116.982L118.09 11.454L120.978 4.51745L123.861 11.454L124.049 11.899L124.974 14.1241H128L122.411 1.66504Z" fill="white"/>
<path d="M56.9359 18.2109H55.4851V24.4405H56.9359V18.2109Z" fill="white"/>
<path d="M64.4727 21.9901L61.3763 18.2109H60.1833V24.4405H61.6078V20.6613L64.7042 24.4405H65.8972V18.2109H64.4727V21.9901Z" fill="white"/>
<path d="M73.1228 21.2942C72.9093 21.1666 72.675 21.0619 72.4199 20.9781C72.1648 20.8949 71.907 20.8256 71.6456 20.7687C71.385 20.7126 71.1479 20.6564 70.9338 20.5996C70.7203 20.5434 70.5477 20.4644 70.4173 20.3639C70.287 20.2634 70.2219 20.1296 70.2219 19.964C70.2219 19.8329 70.2621 19.7144 70.3418 19.6077C70.4215 19.5009 70.5477 19.4163 70.7203 19.3547C70.8922 19.2923 71.1202 19.2611 71.4058 19.2611C71.6782 19.2611 71.9631 19.3013 72.2598 19.381C72.5565 19.4607 72.8441 19.5813 73.1228 19.7414L73.5768 18.6552C73.2919 18.4771 72.9578 18.3405 72.5759 18.2456C72.1932 18.1506 71.8058 18.1028 71.4141 18.1028C70.8263 18.1028 70.3383 18.1908 69.9501 18.3655C69.562 18.5409 69.2722 18.7752 69.0823 19.0684C68.8924 19.3623 68.7974 19.6874 68.7974 20.043C68.7974 20.3695 68.8612 20.6412 68.9887 20.8575C69.1163 21.0737 69.2882 21.2491 69.5051 21.3822C69.7214 21.5153 69.9592 21.6227 70.217 21.7024C70.4749 21.7828 70.732 21.8508 70.9871 21.9069C71.2422 21.9631 71.4779 22.0227 71.6949 22.0851C71.9118 22.1474 72.0851 22.2279 72.2154 22.3256C72.3457 22.4233 72.4116 22.5557 72.4116 22.7214C72.4116 22.8524 72.37 22.9668 72.2868 23.0645C72.2037 23.1623 72.0747 23.2413 71.8993 23.3002C71.724 23.3591 71.4945 23.3889 71.2096 23.3889C70.836 23.3889 70.4652 23.3286 70.0971 23.2066C69.729 23.0846 69.415 22.9287 69.1537 22.7387L68.6643 23.8249C68.943 24.0384 69.3124 24.2124 69.772 24.3455C70.2316 24.4786 70.7112 24.5458 71.2096 24.5458C71.7974 24.5458 72.2861 24.4564 72.6778 24.2783C73.0694 24.1008 73.3619 23.8665 73.5539 23.5754C73.7466 23.2849 73.843 22.9647 73.843 22.6146C73.843 22.2937 73.7758 22.0261 73.6427 21.8092C73.5103 21.5943 73.337 21.4224 73.1228 21.2942Z" fill="white"/>
<path d="M78.0624 18.2109H76.6116V24.4405H78.0624V18.2109Z" fill="white"/>
<path d="M82.943 19.8844C83.1239 19.7069 83.3395 19.5683 83.5883 19.4705C83.8372 19.3728 84.1103 19.3236 84.407 19.3236C84.7272 19.3236 85.0211 19.3811 85.288 19.4969C85.5548 19.6126 85.8037 19.7922 86.0352 20.0355L86.9516 19.1815C86.6494 18.8314 86.2764 18.5646 85.8349 18.3809C85.3933 18.1972 84.8963 18.105 84.3446 18.105C83.8462 18.105 83.3894 18.1833 82.9742 18.3407C82.5589 18.498 82.1971 18.7219 81.888 19.0123C81.5795 19.3028 81.341 19.6438 81.1719 20.0355C81.0028 20.4271 80.9182 20.8576 80.9182 21.3262C80.9182 21.7947 81.0028 22.2245 81.1719 22.6168C81.341 23.0085 81.5767 23.3495 81.8796 23.64C82.1819 23.9304 82.5409 24.1543 82.9561 24.3117C83.3713 24.469 83.8254 24.5473 84.3175 24.5473C84.7625 24.5473 85.2076 24.4801 85.6526 24.347C86.0976 24.2139 86.492 24.0164 86.8365 23.755V21.2277H85.5195V23.0487C85.4238 23.0993 85.3282 23.1513 85.2304 23.1852C84.9601 23.2802 84.6828 23.328 84.3986 23.328C84.102 23.328 83.8302 23.2774 83.5842 23.1769C83.3381 23.0764 83.1239 22.9364 82.943 22.7583C82.7621 22.5808 82.6227 22.3687 82.525 22.1219C82.4266 21.8758 82.378 21.6104 82.378 21.3255C82.378 21.0288 82.4266 20.7591 82.525 20.5158C82.6227 20.2732 82.7621 20.0625 82.943 19.8844Z" fill="white"/>
<path d="M94.2223 20.6669H91.4017V18.2109H89.9509V24.4405H91.4017V21.8861H94.2223V24.4405H95.6641V18.2109H94.2223V20.6669Z" fill="white"/>
<path d="M98.2185 19.3859H100.212V24.4405H101.654V19.3859H103.647V18.2109H98.2185V19.3859Z" fill="white"/>
<path d="M110.646 21.8106C110.513 21.5943 110.339 21.4224 110.126 21.2942C109.912 21.1666 109.678 21.0619 109.423 20.9781C109.168 20.8949 108.91 20.8256 108.649 20.7687C108.387 20.7126 108.15 20.6564 107.937 20.5996C107.723 20.5434 107.551 20.4644 107.42 20.3639C107.289 20.2634 107.224 20.1296 107.224 19.964C107.224 19.8329 107.264 19.7144 107.345 19.6077C107.424 19.5009 107.551 19.4163 107.722 19.3547C107.894 19.2923 108.123 19.2611 108.408 19.2611C108.681 19.2611 108.965 19.3013 109.262 19.381C109.559 19.4607 109.846 19.5813 110.126 19.7414L110.579 18.6552C110.294 18.4771 109.961 18.3405 109.578 18.2456C109.195 18.1506 108.809 18.1028 108.417 18.1028C107.829 18.1028 107.341 18.1908 106.953 18.3655C106.564 18.5409 106.275 18.7752 106.085 19.0684C105.895 19.3623 105.8 19.6874 105.8 20.043C105.8 20.3695 105.864 20.6412 105.992 20.8575C106.119 21.0737 106.291 21.2491 106.508 21.3822C106.724 21.5153 106.961 21.6227 107.22 21.7024C107.478 21.7828 107.734 21.8508 107.989 21.9069C108.244 21.9631 108.48 22.0227 108.697 22.0851C108.913 22.1474 109.087 22.2279 109.218 22.3256C109.348 22.4233 109.413 22.5557 109.413 22.7214C109.413 22.8524 109.372 22.9668 109.289 23.0645C109.206 23.1623 109.076 23.2413 108.902 23.3002C108.726 23.3591 108.497 23.3889 108.212 23.3889C107.838 23.3889 107.467 23.3286 107.099 23.2066C106.732 23.0846 106.417 22.9287 106.157 22.7387L105.667 23.8249C105.946 24.0384 106.315 24.2124 106.776 24.3455C107.235 24.4786 107.715 24.5458 108.213 24.5458C108.8 24.5458 109.29 24.4564 109.681 24.2783C110.073 24.1008 110.365 23.8665 110.558 23.5754C110.75 23.2849 110.847 22.9647 110.847 22.6146C110.847 22.2958 110.78 22.0275 110.646 21.8106Z" fill="white"/>
<path d="M53.4116 20.3955H38.3323V22.2553H53.4116V20.3955Z" fill="white"/>
<path d="M128 20.3953H112.921V22.255H128V20.3953Z" fill="white"/>
<defs>
<linearGradient id="paint0_linear_3_25870" x1="29.6655" y1="25.5749" x2="5.75325" y2="0.683103" gradientUnits="userSpaceOnUse">
<stop stop-color="#BA24ED"/>
<stop offset="1" stop-color="#01EBFA"/>
</linearGradient>
<linearGradient id="paint1_linear_3_25870" x1="23.0388" y1="31.9408" x2="-0.873506" y2="7.04894" gradientUnits="userSpaceOnUse">
<stop stop-color="#BA24ED"/>
<stop offset="1" stop-color="#01EBFA"/>
</linearGradient>
<linearGradient id="paint2_linear_3_25870" x1="30.9452" y1="24.3448" x2="7.03298" y2="-0.547042" gradientUnits="userSpaceOnUse">
<stop stop-color="#BA24ED"/>
<stop offset="1" stop-color="#01EBFA"/>
</linearGradient>
<linearGradient id="paint3_linear_3_25870" x1="27.749" y1="27.4157" x2="3.83675" y2="2.52388" gradientUnits="userSpaceOnUse">
<stop stop-color="#BA24ED"/>
<stop offset="1" stop-color="#01EBFA"/>
</linearGradient>
<linearGradient id="paint4_linear_3_25870" x1="19.8399" y1="35.0133" x2="-4.07238" y2="10.1214" gradientUnits="userSpaceOnUse">
<stop stop-color="#BA24ED"/>
<stop offset="1" stop-color="#01EBFA"/>
</linearGradient>
<linearGradient id="paint5_linear_3_25870" x1="33.5118" y1="21.8796" x2="9.59957" y2="-3.01223" gradientUnits="userSpaceOnUse">
<stop stop-color="#BA24ED"/>
<stop offset="1" stop-color="#01EBFA"/>
</linearGradient>
<linearGradient id="paint6_linear_3_25870" x1="38.3796" y1="17.2034" x2="14.4673" y2="-7.68843" gradientUnits="userSpaceOnUse">
<stop stop-color="#BA24ED"/>
<stop offset="1" stop-color="#01EBFA"/>
</linearGradient>
<linearGradient id="paint7_linear_3_25870" x1="25.0071" y1="7.89347" x2="24.3445" y2="10.3999" gradientUnits="userSpaceOnUse">
<stop stop-color="#37593D"/>
<stop offset="0.0896" stop-color="#37593D" stop-opacity="0.9104"/>
<stop offset="1" stop-color="#37593D" stop-opacity="0"/>
</linearGradient>
<linearGradient id="paint8_linear_3_25870" x1="6.72608" y1="15.2463" x2="8.61401" y2="15.2463" gradientUnits="userSpaceOnUse">
<stop stop-color="#37593D"/>
<stop offset="0.0896" stop-color="#37593D" stop-opacity="0.9104"/>
<stop offset="1" stop-color="#37593D" stop-opacity="0"/>
</linearGradient>
<linearGradient id="paint9_linear_3_25870" x1="14.4999" y1="15.2463" x2="13.566" y2="15.2463" gradientUnits="userSpaceOnUse">
<stop stop-color="#37593D"/>
<stop offset="0.0896" stop-color="#37593D" stop-opacity="0.9104"/>
<stop offset="1" stop-color="#37593D" stop-opacity="0"/>
</linearGradient>
</defs>
</svg>
