<svg width="48" height="48" viewBox="0 0 48 48" fill="none" xmlns="http://www.w3.org/2000/svg">
<path d="M10.6667 17.0098C10.6667 16.2735 11.2637 15.6765 12.0001 15.6765H36.0001C36.7365 15.6765 37.3334 16.2735 37.3334 17.0098C37.3334 17.7462 36.7365 18.3432 36.0001 18.3432H12.0001C11.2637 18.3432 10.6667 17.7462 10.6667 17.0098ZM10.6667 23.6765C10.6667 22.9401 11.2637 22.3432 12.0001 22.3432H36.0001C36.7365 22.3432 37.3334 22.9401 37.3334 23.6765C37.3334 24.4129 36.7365 25.0098 36.0001 25.0098H12.0001C11.2637 25.0098 10.6667 24.4129 10.6667 23.6765ZM10.6667 30.3432C10.6667 29.6068 11.2637 29.0098 12.0001 29.0098H36.0001C36.7365 29.0098 37.3334 29.6068 37.3334 30.3432C37.3334 31.0796 36.7365 31.6765 36.0001 31.6765H12.0001C11.2637 31.6765 10.6667 31.0796 10.6667 30.3432Z" fill="white"/>
</svg>
