<svg width="121" height="121" viewBox="0 0 121 121" fill="none"
    xmlns="http://www.w3.org/2000/svg">
    <path d="M46.3606 31.1844C53.5421 31.1844 60.7235 31.1783 67.9049 31.1874C74.522 31.1965 79.0365 35.6989 79.0426 42.3099C79.0517 53.9452 79.0517 65.5835 79.0426 77.2188C79.0365 83.6903 74.4522 88.2746 67.9747 88.2777C53.5117 88.2868 39.0457 88.2868 24.5828 88.2777C18.1113 88.2746 13.5088 83.6751 13.5057 77.2219C13.4966 65.5866 13.4997 53.9483 13.5057 42.313C13.5088 35.7475 18.0779 31.1935 24.6647 31.1874C31.8977 31.1783 39.1307 31.1844 46.3606 31.1844Z" fill="#1E1E20"/>
    <path d="M108.479 59.7344C108.479 64.9922 108.488 70.2501 108.479 75.5049C108.469 81.1481 103.46 84.0941 98.5271 81.318C93.43 78.4509 88.3815 75.4989 83.2874 72.6257C82.5259 72.1949 82.2529 71.6973 82.2559 70.8326C82.2862 63.4024 82.2498 55.9692 82.3166 48.539C82.3226 47.9383 82.7959 47.0857 83.3056 46.7823C88.4634 43.721 93.6545 40.7083 98.8821 37.7623C103.269 35.2927 108.4 38.2811 108.463 43.3539C108.533 48.8151 108.479 54.2762 108.479 59.7344Z" fill="#1E1E20"/>
</svg>
