<svg width="121" height="121" viewBox="0 0 121 121" fill="none"
    xmlns="http://www.w3.org/2000/svg">
    <path d="M60.5408 52.6447C75.1823 52.6447 89.8266 52.6447 104.468 52.6447C106.389 52.6447 106.392 52.6533 106.392 54.4997C106.392 63.9266 106.432 73.3535 106.378 82.7804C106.334 89.9188 103.233 95.4751 97.278 99.3687C94.6391 101.094 91.6758 102.105 88.5 102.111C69.6949 102.143 50.8899 102.188 32.0849 102.082C24.2918 102.039 16.4355 95.0759 15.175 87.3891C14.8362 85.3245 14.6524 83.214 14.638 81.1236C14.5806 72.3657 14.6122 63.6107 14.6122 54.8529C14.6122 52.6447 14.6122 52.6418 16.8978 52.6418C31.4474 52.6447 45.9941 52.6447 60.5408 52.6447Z" fill="#1E1E20"/>
    <path d="M106.625 44.7426C75.7774 44.7426 45.2885 44.7426 14.6675 44.7426C14.6129 38.4255 13.8778 32.0911 17.9495 26.5291C21.6164 21.5185 26.3944 18.4001 32.6455 18.357C51.2524 18.2335 69.8622 18.2335 88.4691 18.3513C96.8796 18.4029 104.67 25.3518 105.838 33.6761C106.347 37.2913 106.373 40.9724 106.625 44.7426ZM89.1669 37.2855C92.515 37.2913 95.0533 34.8132 95.039 31.557C95.0246 28.4099 92.2853 25.6706 89.1726 25.6907C86.0399 25.7136 83.4527 28.3324 83.4585 31.4766C83.4642 34.9395 85.7642 37.2826 89.1669 37.2855ZM52.7801 31.4335C52.7599 34.8103 55.1633 37.274 58.4913 37.2884C61.8567 37.3027 64.4208 34.8563 64.4438 31.6087C64.4668 28.5133 61.693 25.7079 58.589 25.6964C55.4907 25.6792 52.7973 28.3381 52.7801 31.4335ZM73.8564 37.2884C77.1844 37.2913 79.7629 34.7845 79.7514 31.5599C79.74 28.4357 76.9662 25.6706 73.8621 25.6878C70.7495 25.705 68.148 28.3467 68.1537 31.4823C68.1652 34.9596 70.4451 37.2826 73.8564 37.2884Z" fill="#1E1E20"/>
</svg>
