<svg width="121" height="121" viewBox="0 0 121 121" fill="none"
    xmlns="http://www.w3.org/2000/svg">
    <g clip-path="url(#clip0_3_953)">
        <path d="M15.537 36.3899C45.6172 36.3899 75.5538 36.3899 105.69 36.3899C105.69 36.8913 105.69 37.3842 105.69 37.88C105.69 57.0424 105.693 76.202 105.688 95.3645C105.685 101.274 101.609 105.37 95.7218 105.37C72.2948 105.375 48.8678 105.375 25.4436 105.37C19.6495 105.367 15.5398 101.249 15.5398 95.4462C15.5314 76.2359 15.537 57.0255 15.537 37.818C15.537 37.3983 15.537 36.9758 15.537 36.3899ZM38.1725 56.0368C38.1472 56.1382 38.1218 56.2425 38.0965 56.3439C37.581 56.3439 37.0627 56.3241 36.5472 56.3467C32.1644 56.541 28.7673 60.0254 28.8378 64.2477C28.9082 68.5376 32.3334 71.8192 36.7641 71.8389C37.3754 71.8417 37.9866 71.8107 38.595 71.8473C40.3442 71.9544 41.5442 73.1994 41.4935 74.8247C41.4456 76.433 40.2992 77.4527 38.5105 77.4724C37.7585 77.4809 37.0092 77.4752 36.2571 77.4752C34.3417 77.4696 34.2065 77.3626 33.7333 75.4303C33.3925 74.0416 32.201 73.1008 31.0264 73.2923C29.6687 73.5149 28.7758 74.6838 28.849 76.1401C28.9927 78.9906 31.0658 81.737 33.8657 82.1708C35.9557 82.4947 38.1753 82.5285 40.2626 82.2074C44.0962 81.6159 46.8341 77.8555 46.4397 74.1993C45.9834 69.9883 42.8822 67.0645 38.8232 67.0278C38.119 67.0222 37.412 67.0588 36.7106 67.0166C34.9642 66.9124 33.7615 65.6561 33.815 64.0336C33.8685 62.3999 34.9811 61.4112 36.7951 61.3915C37.5472 61.383 38.2965 61.3887 39.0485 61.3915C40.9583 61.3971 41.116 61.5267 41.5583 63.4365C41.8766 64.8082 43.0934 65.7659 44.2765 65.5688C45.6426 65.3434 46.5721 64.1576 46.4425 62.7182C46.2257 60.3183 45.1806 58.3128 42.9751 57.2987C41.4935 56.6227 39.7809 56.4424 38.1725 56.0368ZM56.8082 67.0335C56.7406 66.7293 56.6899 66.5969 56.6871 66.4645C56.6787 65.4786 56.6533 64.4928 56.6815 63.5097C56.7266 61.9887 57.3265 61.4084 58.8504 61.4028C61.4305 61.3915 64.0107 61.4253 66.5909 61.3887C68.3063 61.3633 69.3569 60.3549 69.3513 58.8592C69.3457 57.3748 68.2866 56.3777 66.5683 56.3551C63.8952 56.3213 61.2193 56.2903 58.549 56.3608C54.6675 56.465 51.8845 59.3606 51.8733 63.228C51.862 67.4504 51.8564 71.6755 51.8761 75.8978C51.8902 79.0188 53.9239 81.8356 57.0026 82.1961C60.3771 82.5905 63.8192 82.4187 67.2331 82.4806C67.4077 82.4834 67.5852 82.3651 67.7598 82.2947C68.9907 81.7961 69.5541 80.7962 69.3344 79.4977C69.1429 78.3681 68.0556 77.5147 66.6331 77.4949C64.0079 77.4611 61.3799 77.4527 58.7518 77.4978C57.5406 77.5175 56.8308 76.9485 56.7237 75.8302C56.6026 74.5458 56.6956 73.2444 56.6956 71.8473C60.0954 71.8473 63.3262 71.853 66.5542 71.8445C68.3964 71.8389 69.3457 71.0192 69.3541 69.4587C69.3626 67.8841 68.4218 67.0447 66.5909 67.0391C63.3572 67.025 60.1264 67.0335 56.8082 67.0335ZM92.5192 69.4925C92.4769 69.4897 92.4375 69.4869 92.3952 69.4841C92.3952 68.0757 92.4291 66.6673 92.3896 65.2617C92.2516 60.3465 88.6405 56.496 83.8323 56.3833C79.3395 56.2791 75.2412 59.4676 74.9172 64.1914C74.675 67.732 74.7539 71.3121 74.9426 74.8641C75.1341 78.4611 78.2072 82.2694 83.3168 82.4722C87.2547 82.6271 90.9756 80.2976 92.0685 75.7852C92.5614 73.7684 92.3924 71.5938 92.5192 69.4925Z" fill="#1E1E20"/>
        <path d="M105.69 34.1251C75.6125 34.1251 45.6449 34.1251 15.6238 34.1251C15.6238 30.5056 15.2999 26.9142 15.6999 23.4073C16.2773 18.3484 20.3053 15.188 25.4656 15.1852C42.7352 15.1824 60.0076 15.1852 77.28 15.1852C83.429 15.1852 89.578 15.1796 95.7242 15.188C101.608 15.1936 105.676 19.2836 105.687 25.1875C105.693 28.1367 105.69 31.0886 105.69 34.1251ZM88.471 28.1536C90.254 28.1536 92.0342 28.1648 93.8172 28.1508C95.2341 28.1395 96.0509 27.4494 96.1185 26.2579C96.1861 25.0326 95.4397 24.0017 94.1496 23.9763C90.3526 23.8946 86.5528 23.9031 82.7558 23.9707C81.5474 23.9932 80.5813 25.1706 80.6517 26.21C80.7305 27.3508 81.6488 28.1367 82.984 28.1508C84.812 28.1677 86.6401 28.1536 88.471 28.1536ZM28.4964 26.0973C28.4936 24.903 27.4993 23.8918 26.3754 23.9453C25.3811 23.9932 24.2995 25.103 24.291 26.0889C24.2797 27.2212 25.3022 28.1761 26.5022 28.1536C27.6824 28.1282 28.4993 27.286 28.4964 26.0973ZM37.7861 28.1508C38.9635 28.1226 39.7748 27.2747 39.7691 26.0833C39.7607 24.8918 38.7523 23.8834 37.634 23.9453C36.6313 24.0017 35.5637 25.1143 35.5637 26.1002C35.5609 27.2353 36.5862 28.1789 37.7861 28.1508ZM51.039 26.1002C51.039 24.9058 50.0447 23.8918 48.9208 23.9425C47.9293 23.9876 46.8449 25.0974 46.8308 26.0804C46.8167 27.21 47.8392 28.1705 49.0363 28.1479C50.2193 28.131 51.0362 27.2916 51.039 26.1002Z" fill="#1E1E20"/>
        <path d="M87.4114 69.4616C87.4114 70.9178 87.4564 72.3741 87.4001 73.8276C87.3156 76.0021 85.7354 77.4781 83.5806 77.4781C81.4286 77.4809 79.7864 75.9908 79.7441 73.8473C79.6878 70.8897 79.685 67.9321 79.7469 64.9745C79.792 62.9041 81.4201 61.4169 83.4876 61.3972C85.6762 61.3775 87.2536 62.8084 87.4029 64.9547C87.4085 65.0477 87.4142 65.1435 87.4142 65.2364C87.4142 66.6448 87.4142 68.0532 87.4142 69.4616C87.4142 69.4616 87.4142 69.4616 87.4114 69.4616Z" fill="#1E1E20"/>
    </g>
    <defs>
        <clipPath id="clip0_3_953">
            <rect width="90.19" height="90.19" fill="white" transform="translate(15.5 15.1824)"/>
        </clipPath>
    </defs>
</svg>
