<svg width="121" height="121" viewBox="0 0 121 121" fill="none"
    xmlns="http://www.w3.org/2000/svg">
    <path d="M80.1603 23.5725C88.6383 29.3464 93.8306 36.928 96.0371 46.5482C96.127 46.9349 96.181 47.3307 96.2439 47.7204C96.6516 50.1846 96.8555 52.4121 99.6345 53.974C102.761 55.7307 103.445 60.1826 101.982 63.4772C100.408 67.0207 96.8075 69.0323 92.9852 68.5017C89.4417 68.013 86.4918 65.0871 85.9672 61.5016C85.4336 57.8652 86.7586 54.9752 89.8404 53.0956C91.0276 52.3731 91.2704 51.6356 91.0696 50.4754C89.004 38.394 82.4627 29.907 70.9478 25.4042C70.669 25.2962 70.3962 25.1763 70.1084 25.0924C69.4459 24.8975 68.7743 24.7176 68.1238 24.5348C62.6916 30.6774 57.6672 30.6834 52.9785 24.5797C41.7754 26.9421 31.8734 37.5306 30.2216 48.9165C30.1886 49.1654 30.1886 49.4232 30.1167 49.657C29.628 51.2189 29.7869 52.3041 31.4507 53.3024C34.7904 55.305 35.9955 59.4751 34.6585 63.1565C33.3784 66.682 29.625 68.9334 25.7098 68.5227C22.0554 68.1419 19.0245 65.165 18.4699 61.4117C17.9153 57.6614 19.723 54.3397 23.1976 52.5649C23.6293 52.3431 24.1359 51.7975 24.1839 51.3568C25.44 39.9079 30.5903 30.7494 40.0696 24.0971C40.2285 23.9862 40.3724 23.8483 40.5133 23.7164C40.5373 23.6954 40.5223 23.6324 40.5343 23.4855C36.9608 23.4855 33.3964 23.4855 29.601 23.4855C29.601 24.3159 29.625 25.1433 29.5951 25.9678C29.5291 27.9404 28.4619 28.9836 26.4922 28.9896C22.8438 29.0016 19.1954 29.0046 15.547 28.9896C13.5594 28.9866 12.5341 27.9643 12.5191 25.9318C12.4951 22.3853 12.4921 18.8358 12.5191 15.2893C12.5401 13.2478 13.6253 12.2165 15.7329 12.2045C19.2314 12.1865 22.7299 12.1895 26.2284 12.2015C28.5218 12.2135 29.5771 13.2927 29.601 15.6161C29.607 16.3086 29.601 16.9981 29.601 17.7865C37.2816 17.7865 44.8543 17.7865 52.5408 17.7865C54.0907 14.258 56.7798 12.1026 60.818 12.2405C64.5203 12.3694 67.0056 14.4409 68.4476 17.8225C76.0442 17.8225 83.6258 17.8225 91.3963 17.8225C91.3963 16.8872 91.3574 16.0028 91.4053 15.1244C91.4983 13.3467 92.5925 12.2315 94.3612 12.2135C98.1086 12.1745 101.859 12.1685 105.606 12.2165C107.387 12.2375 108.454 13.3617 108.472 15.1814C108.508 18.8268 108.511 22.4752 108.469 26.1236C108.448 27.9494 107.366 28.9836 105.552 28.9926C101.904 29.0106 98.2555 29.0046 94.6071 28.9956C92.4666 28.9896 91.4323 27.9494 91.3933 25.7789C91.3814 25.0864 91.3903 24.3939 91.3903 23.5725C87.7089 23.5725 84.1145 23.5725 80.1603 23.5725Z" fill="#1E1E20"/>
    <path d="M63.6146 37.2883C66.0159 40.8918 68.4172 44.4952 70.8185 48.0957C75.4382 55.0238 80.0639 61.9519 84.6807 68.883C86.2665 71.2633 86.2246 72.0247 84.2879 74.1232C79.8961 78.8839 77.0181 84.43 75.5851 90.7345C75.4772 91.2112 75.3513 91.6818 75.2883 91.9307C65.4043 90.5636 55.6792 90.6146 45.7712 91.8947C45.2316 90.1049 44.686 87.9465 43.9365 85.8599C42.2907 81.2972 39.7065 77.304 36.3788 73.7725C34.9159 72.2196 34.8319 71.1194 36.0011 69.3596C42.9892 58.852 49.9952 48.3595 56.9953 37.8609C57.1302 37.66 57.292 37.4802 57.5978 37.0964C57.6668 37.6271 57.7447 37.9358 57.7447 38.2476C57.7507 46.24 57.7327 54.2323 57.7717 62.2247C57.7747 63.166 57.4419 63.5947 56.6205 64.0234C53.107 65.8581 51.4042 69.6474 52.3186 73.3318C53.2599 77.1241 56.5845 79.8042 60.4398 79.8732C64.1782 79.9421 67.6527 77.2231 68.648 73.4487C69.6163 69.7793 67.9615 65.9121 64.484 64.0833C63.5396 63.5887 63.2218 63.0821 63.2278 62.0478C63.2698 54.2563 63.2518 46.4648 63.2488 38.6703C63.2488 38.2386 63.2488 37.8099 63.2488 37.3782C63.3687 37.3513 63.4917 37.3213 63.6146 37.2883Z" fill="#1E1E20"/>
    <path d="M60.3525 108.146C55.1572 108.146 49.9648 108.152 44.7695 108.143C41.7237 108.137 40.5305 106.407 41.8016 103.661C43.8192 99.2992 47.2248 96.8409 52.1053 96.775C57.6964 96.7 63.2934 96.739 68.8844 96.763C73.5372 96.7839 77.5633 99.566 79.3291 103.919C80.3124 106.338 79.1522 108.122 76.532 108.134C71.1389 108.164 65.7457 108.146 60.3525 108.146Z" fill="#1E1E20"/>
    <path d="M63.242 71.4427C63.233 72.9627 62.0309 74.2188 60.5499 74.2547C59.03 74.2907 57.7469 72.9776 57.7559 71.3948C57.7649 69.8748 58.967 68.6187 60.448 68.5828C61.9679 68.5468 63.251 69.8598 63.242 71.4427Z" fill="#1E1E20"/>
</svg>
