<svg width="121" height="121" viewBox="0 0 121 121" fill="none"
    xmlns="http://www.w3.org/2000/svg">
    <path d="M77.1511 37.647C81.9997 35.2633 86.1826 36.1467 88.4429 39.9626C90.8039 43.9473 89.5601 47.8964 84.8576 51.1505C87.9265 56.47 91.0085 61.7896 94.071 67.1221C95.7435 70.0319 95.4317 73.1431 93.298 75.319C90.8331 77.8326 86.8873 77.8846 84.2145 75.5073C83.6917 75.0397 82.9837 74.6175 82.3082 74.5103C76.6444 73.6108 70.9904 74.0005 65.3461 74.7994C58.8607 75.7184 52.5636 77.3552 46.4614 79.7325C45.5716 80.0799 45.2273 79.6285 44.8344 78.9433C40.8853 72.0584 36.9297 65.1768 32.9092 58.3309C32.2987 57.2917 32.8313 56.9149 33.4873 56.3726C39.1933 51.6766 44.4382 46.4999 48.6113 40.3945C51.1866 36.624 53.2781 32.5191 55.5059 28.5181C55.8307 27.9335 55.8664 27.0502 55.7235 26.3714C54.9896 22.9095 56.4997 19.7723 59.6076 18.5318C62.6409 17.3204 65.9242 18.4668 67.6876 21.4708C70.5325 26.313 73.3092 31.1941 76.1216 36.0557C76.4398 36.6046 76.8133 37.1242 77.1511 37.647Z" fill="#1E1E20"/>
    <path d="M28.42 58.6074C33.0965 66.7036 37.7016 74.6765 42.4236 82.8571C38.0718 85.2733 33.9701 88.05 29.495 89.9368C20.6356 93.6716 10.6817 86.9945 10.5031 77.3882C10.4122 72.5753 12.3153 68.4378 16.3715 65.7326C20.2166 63.167 24.3313 61.0041 28.42 58.6074Z" fill="#1E1E20"/>
    <path d="M44.7803 86.0913C47.4173 89.5078 49.9829 92.83 52.5485 96.1523C53.1071 96.8765 53.6754 97.5975 54.2145 98.3412C55.3966 99.9682 55.2829 101.202 53.802 102.622C52.9837 103.404 52.1295 104.151 51.2754 104.895C49.2912 106.619 47.9661 106.551 46.3846 104.528C42.9616 100.153 39.5841 95.7431 36.041 91.1575C38.9573 89.4655 41.8152 87.8093 44.7803 86.0913Z" fill="#1E1E20"/>
    <path d="M84.0971 29.454C81.5672 29.402 80.1155 27.2067 81.0833 25.3685C82.6876 22.3223 84.4478 19.3508 86.2502 16.4149C87.0524 15.1062 88.7151 14.8496 89.9752 15.5998C91.2288 16.3435 91.7971 17.8991 91.0631 19.2468C89.4199 22.2703 87.7084 25.2646 85.8832 28.1842C85.4611 28.8662 84.4738 29.2007 84.0971 29.454Z" fill="#1E1E20"/>
    <path d="M102.695 53.8529C101.072 53.8529 99.4445 53.8821 97.824 53.8464C96.1157 53.8074 94.9174 52.609 94.9239 51.0177C94.9303 49.4361 95.9988 48.3027 97.707 48.2735C101.01 48.2183 104.313 48.2215 107.615 48.2703C109.229 48.293 110.467 49.5336 110.499 50.9885C110.532 52.4726 109.2 53.8074 107.57 53.8464C105.943 53.8821 104.319 53.8529 102.695 53.8529Z" fill="#1E1E20"/>
    <path d="M92.8965 35.4972C93.52 34.7113 93.9974 33.6915 94.7963 33.1784C97.2872 31.5773 99.8853 30.1387 102.474 28.6967C104.107 27.7874 105.708 28.1869 106.562 29.5996C107.403 30.9863 106.952 32.6945 105.383 33.6298C102.792 35.1757 100.187 36.7053 97.5308 38.1375C95.4653 39.2546 93.2894 38.0043 92.8965 35.4972Z" fill="#1E1E20"/>
</svg>
