<svg width="72" height="72" viewBox="0 0 72 72" fill="none" xmlns="http://www.w3.org/2000/svg">
<path d="M42.9974 43.0711C46.9026 39.1658 46.9026 32.8342 42.9974 28.9289C39.0921 25.0237 32.7605 25.0237 28.8552 28.9289C24.95 32.8342 24.95 39.1658 28.8552 43.0711C32.7605 46.9763 39.0921 46.9763 42.9974 43.0711Z" stroke="#D9D9D9" stroke-width="5" stroke-linecap="round" stroke-linejoin="round"/>
<path d="M53.6043 53.6777C63.3674 43.9146 63.3674 28.0854 53.6043 18.3223C43.8412 8.55922 28.0121 8.55922 18.249 18.3223C8.48585 28.0854 8.48585 43.9146 18.249 53.6777C28.0121 63.4408 43.8412 63.4408 53.6043 53.6777Z" stroke="#D9D9D9" stroke-width="5" stroke-linecap="round" stroke-linejoin="round"/>
<path d="M18.5 18.5L28.5 28.5" stroke="#D9D9D9" stroke-width="5" stroke-linecap="round" stroke-linejoin="round"/>
<path d="M43.5 28.5L53.5 18.5" stroke="#D9D9D9" stroke-width="5" stroke-linecap="round" stroke-linejoin="round"/>
<path d="M43.5 43.5L53.5 53.5" stroke="#D9D9D9" stroke-width="5" stroke-linecap="round" stroke-linejoin="round"/>
<path d="M28.5 43.5L18.5 53.5" stroke="#D9D9D9" stroke-width="5" stroke-linecap="round" stroke-linejoin="round"/>
</svg>
