<svg width="37" height="37" viewBox="0 0 37 37" fill="none" xmlns="http://www.w3.org/2000/svg">
<g clip-path="url(#clip0_221_22)">
<path d="M18.5 37C28.7173 37 37 28.7173 37 18.5C37 8.28273 28.7173 0 18.5 0C8.28273 0 0 8.28273 0 18.5C0 28.7173 8.28273 37 18.5 37Z" fill="#E0EEEE"/>
<path d="M23.1193 8.50098H9.04199V9.65723H23.1193V8.50098Z" fill="#0E0C21"/>
<path d="M27.9641 12.6797H13.8867V13.8359H27.9641V12.6797Z" fill="#0E0C21"/>
<path d="M23.1193 17.958H9.04199V19.1143H23.1193V17.958Z" fill="#0E0C21"/>
<path d="M27.9641 22.1426H13.8867V23.2988H27.9641V22.1426Z" fill="#0E0C21"/>
<path d="M23.1193 27.416H9.04199V28.5723H23.1193V27.416Z" fill="#0E0C21"/>
</g>
<defs>
<clipPath id="clip0_221_22">
<rect width="37" height="37" fill="white"/>
</clipPath>
</defs>
</svg>
