<svg width="51" height="52" viewBox="0 0 51 52" fill="none" xmlns="http://www.w3.org/2000/svg">
<path d="M25.6066 12.9125C28.62 12.9125 31.0629 10.4697 31.0629 7.45625C31.0629 4.44285 28.62 2 25.6066 2C22.5932 2 20.1504 4.44285 20.1504 7.45625C20.1504 10.4697 22.5932 12.9125 25.6066 12.9125Z" stroke="#E0EEEE" stroke-width="2.8125"/>
<path d="M43.5227 31.8222C46.5361 31.8222 48.9789 29.3793 48.9789 26.3659C48.9789 23.3525 46.5361 20.9097 43.5227 20.9097C40.5093 20.9097 38.0664 23.3525 38.0664 26.3659C38.0664 29.3793 40.5093 31.8222 43.5227 31.8222Z" stroke="#E0EEEE" stroke-width="2.8125"/>
<path d="M25.6066 49.6063C28.62 49.6063 31.0629 47.1635 31.0629 44.1501C31.0629 41.1367 28.62 38.6938 25.6066 38.6938C22.5932 38.6938 20.1504 41.1367 20.1504 44.1501C20.1504 47.1635 22.5932 49.6063 25.6066 49.6063Z" stroke="#E0EEEE" stroke-width="2.8125"/>
<path d="M7.45625 41.6C10.4697 41.6 12.9125 39.1572 12.9125 36.1437C12.9125 33.1303 10.4697 30.6875 7.45625 30.6875C4.44285 30.6875 2 33.1303 2 36.1437C2 39.1572 4.44285 41.6 7.45625 41.6Z" stroke="#E0EEEE" stroke-width="2.8125"/>
<path d="M7.45625 20.2626C10.4697 20.2626 12.9125 17.8198 12.9125 14.8063C12.9125 11.7929 10.4697 9.3501 7.45625 9.3501C4.44285 9.3501 2 11.7929 2 14.8063C2 17.8198 4.44285 20.2626 7.45625 20.2626Z" stroke="#E0EEEE" stroke-width="2.8125"/>
<path d="M25.5977 28.5874C28.0312 28.5874 30.0039 26.6147 30.0039 24.1812C30.0039 21.7476 28.0312 19.7749 25.5977 19.7749C23.1642 19.7749 21.1914 21.7476 21.1914 24.1812C21.1914 26.6147 23.1642 28.5874 25.5977 28.5874Z" stroke="#E0EEEE" stroke-width="2.8125"/>
<path d="M12.1533 12.0222L20.3377 8.86279" stroke="#E0EEEE" stroke-width="2.8125"/>
<path d="M29.4316 11.3564L39.6316 22.5408" stroke="#E0EEEE" stroke-width="2.8125"/>
<path d="M40.1846 30.6782L29.4971 40.3251" stroke="#E0EEEE" stroke-width="2.8125"/>
<path d="M10.457 19.3628L22.2227 39.8753" stroke="#E0EEEE" stroke-width="2.8125"/>
<path d="M12.2852 38.6846L20.1508 42.3314" stroke="#E0EEEE" stroke-width="2.8125"/>
<path d="M9.5 31.0812L22.6531 12.0405" stroke="#E0EEEE" stroke-width="2.8125"/>
<path d="M12.4814 16.9438L21.6877 22.147" stroke="#E0EEEE" stroke-width="2.8125"/>
<path d="M30.0127 24.6782L38.0658 25.2876" stroke="#E0EEEE" stroke-width="2.8125"/>
<path d="M25.5977 28.5972L25.607 38.6847" stroke="#E0EEEE" stroke-width="2.8125"/>
</svg>
