<svg width="54" height="54" viewBox="0 0 54 54" fill="none" xmlns="http://www.w3.org/2000/svg">
<path d="M48.9375 25.3125H40.3312C40.1625 23.2875 39.4875 21.2625 38.6437 19.4062C41.85 16.875 43.875 13.1625 43.875 9.1125V8.4375C43.875 7.425 43.2 6.75 42.1875 6.75C41.175 6.75 40.5 7.425 40.5 8.4375V9.1125C40.5 12.15 39.15 14.85 36.7875 16.7062C35.9437 15.525 34.7625 14.6812 33.5812 13.8375C33.5812 13.6687 33.5812 13.6688 33.5812 13.5C33.5812 9.7875 30.5437 6.75 26.8312 6.75C23.1187 6.75 20.0812 9.7875 20.0812 13.5C20.0812 13.6688 20.0812 13.6687 20.0812 13.8375C18.9 14.6812 17.8875 15.525 16.875 16.7062C14.85 14.85 13.5 12.15 13.5 9.1125V8.4375C13.5 7.425 12.825 6.75 11.8125 6.75C10.8 6.75 10.125 7.425 10.125 8.4375V9.1125C10.125 13.1625 11.9813 17.0438 15.3563 19.4062C14.5125 21.0938 13.8375 23.1188 13.6688 25.3125H5.0625C4.05 25.3125 3.375 25.9875 3.375 27C3.375 28.0125 4.05 28.6875 5.0625 28.6875H13.6688C13.8375 30.7125 14.5125 32.7375 15.3563 34.5938C11.9813 36.9562 10.125 40.8375 10.125 44.8875V45.5625C10.125 46.575 10.8 47.25 11.8125 47.25C12.825 47.25 13.5 46.575 13.5 45.5625V44.8875C13.5 41.85 14.85 39.15 17.2125 37.2938C19.7437 40.3313 23.1188 42.1875 27 42.1875C30.8812 42.1875 34.425 40.3313 36.7875 37.2938C39.15 39.15 40.5 41.85 40.5 44.8875V45.5625C40.5 46.575 41.175 47.25 42.1875 47.25C43.2 47.25 43.875 46.575 43.875 45.5625V44.8875C43.875 40.8375 42.0187 36.9562 38.6437 34.5938C39.4875 32.9062 40.1625 30.8812 40.3312 28.6875H48.9375C49.95 28.6875 50.625 28.0125 50.625 27C50.625 25.9875 49.95 25.3125 48.9375 25.3125Z" fill="#E0EEEE"/>
</svg>
