<svg width="41" height="40" viewBox="0 0 41 40" fill="none" xmlns="http://www.w3.org/2000/svg">
<path d="M23.8232 24.1664C23.1482 26.8914 18.5732 25.4164 17.0732 25.0414L18.2732 20.2164C19.7732 20.5914 24.5232 21.3164 23.8232 24.1664ZM19.9232 13.6165L18.8232 17.9914C20.0732 18.2914 23.8982 19.5664 24.5232 17.0914C25.1482 14.5165 21.1732 13.9165 19.9232 13.6165ZM39.4232 24.8164C36.7482 35.5164 25.8982 42.0414 15.1732 39.3914C4.47323 36.7164 -2.07677 25.8664 0.598232 15.1664C3.27323 4.44152 14.1232 -2.05848 24.8482 0.591519C35.5482 3.26652 42.0982 14.1165 39.4232 24.8164ZM13.4482 23.3414C13.3482 23.6164 13.0732 24.0164 12.4482 23.8664C12.3482 23.8664 10.8482 23.4664 10.8482 23.4664L9.74823 25.9664L12.5982 26.6664C13.1482 26.8164 13.6482 26.9414 14.1732 27.0914L13.2732 30.7164L15.4482 31.2664L16.3482 27.6664C16.9482 27.8414 17.5232 27.9664 18.0982 28.1164L17.1982 31.6914L19.3982 32.2414L20.2982 28.6164C24.0482 29.3164 26.8732 29.0414 28.0482 25.6414C28.9982 22.9164 27.9982 21.3414 26.0232 20.3164C27.4482 19.9914 28.5232 19.0414 28.8232 17.0914C29.2232 14.4415 27.1982 12.9915 24.4232 12.0665L25.3232 8.44152L23.1232 7.89152L22.2482 11.3915C21.6732 11.2415 21.0732 11.1165 20.4732 10.9665L21.3482 7.44152L19.1732 6.89152L18.2732 10.4915C17.7982 10.3915 17.3232 10.2665 16.8732 10.1665L13.8482 9.39152L13.2732 11.7415C13.2732 11.7415 14.8732 12.1165 14.8732 12.1415C15.7482 12.3665 15.8982 12.9415 15.8982 13.4165L13.4232 23.2914L13.4482 23.3414Z" fill="#E0EEEE"/>
</svg>
