<svg width="34" height="34" viewBox="0 0 34 34" fill="none" xmlns="http://www.w3.org/2000/svg">
<path fill-rule="evenodd" clip-rule="evenodd" d="M28.3333 24.5083L33.4333 29.6083C34.1417 30.3167 34.1417 31.7333 33.4333 32.5833L32.5833 33.4333C32.1583 33.8583 31.5917 34 31.025 34C30.4583 34 29.8917 33.8583 29.4667 33.4333L24.3667 28.3333C23.6583 27.625 23.6583 26.35 24.3667 25.5L22.3833 23.5167C20.1167 25.6417 16.8583 26.9167 13.4583 26.9167C6.09167 26.9167 0 20.825 0 13.4583C0 6.09167 6.09167 0 13.4583 0C20.825 0 26.9167 6.09167 26.9167 13.6C26.9167 17 25.6417 20.1167 23.5167 22.525L25.5 24.5083C26.2083 23.6583 27.4833 23.6583 28.3333 24.5083ZM11.1917 5.24167L8.21667 2.69167C4.25 4.675 1.41667 8.78333 1.41667 13.4583C1.41667 14.7333 1.55833 15.8667 1.98333 17H3.54167C3.6125 17 3.71875 17.0354 3.825 17.0708C3.93125 17.1063 4.0375 17.1417 4.10833 17.1417L6.375 19.4083L6.94167 18.8417L6.375 16.4333C6.375 16.2917 6.375 16.0083 6.51667 15.8667C6.65833 15.725 6.8 15.5833 7.08333 15.5833H8.64167L9.91667 11.7583C9.96389 11.7111 10.0111 11.6481 10.0583 11.5852C10.1528 11.4593 10.2472 11.3333 10.3417 11.3333C10.4833 11.3333 10.7667 11.3333 10.9083 11.475L12.8917 12.4667L13.8833 9.63333L10.3417 8.5C10.2944 8.45278 10.2315 8.40556 10.1685 8.35833C10.0426 8.26389 9.91667 8.16944 9.91667 8.075C9.91667 7.93333 9.91667 7.65 10.0583 7.50833L11.1917 5.24167ZM19.8333 20.2583L20.6833 23.0917C23.6583 20.825 25.5 17.425 25.5 13.4583V12.4667L22.6667 13.8833V14.875C22.6667 15.1583 22.6667 15.3 22.525 15.4417L21.1083 16.8583C20.9667 16.8583 20.5417 17 20.5417 17H18.1333L17.1417 18.9833L17.9917 19.8333H19.125C19.4083 19.8333 19.6917 19.975 19.8333 20.2583Z" fill="#E0EEEE"/>
</svg>
