<svg width="56" height="56" viewBox="0 0 56 56" fill="none" xmlns="http://www.w3.org/2000/svg">
<rect width="56" height="56" fill="white"/>
<path d="M44.1787 48.9629C41.1217 48.9629 38.3138 48.9614 35.5073 48.9629C27.8891 48.9673 20.2724 48.9394 12.6542 48.9966C9.67485 49.0185 7.60369 47.0016 7.1584 44.7869C7.06759 44.3372 7.04561 43.867 7.04415 43.4056C7.03683 35.7376 7.03829 28.0696 7.04122 20.4016C7.04122 20.1877 7.06319 19.9724 7.07784 19.7161C21.0428 19.7161 34.9698 19.7161 48.9421 19.7161C48.9421 27.8103 48.9421 35.8738 48.9421 44.1204C47.8069 42.975 46.7684 41.9584 45.7797 40.895C45.664 40.7705 45.7562 40.3662 45.8573 40.1392C47.6692 36.0833 47.555 32.0889 45.1513 28.3493C42.525 24.2612 38.6815 22.316 33.7906 22.7203C28.1674 23.1846 23.7131 27.2684 22.8035 32.8857C21.7576 39.3526 25.8809 45.2629 32.0886 46.7262C34.8907 47.3868 37.6049 47.0646 40.1931 45.799C40.5725 45.613 40.8127 45.5983 41.132 45.9323C42.0724 46.9122 43.0552 47.8511 44.1787 48.9629Z" fill="url(#paint0_linear_3_7478)"/>
<path d="M48.9614 16.7033C34.9862 16.7033 21.0637 16.7033 7.02395 16.7033C7.18361 14.6292 6.69585 12.5492 7.36525 10.5352C8.05222 8.47282 9.94322 7.07251 12.1184 7.04615C15.9487 6.99928 19.7805 7.02125 23.6123 7.01978C30.2008 7.01685 36.7908 7.06373 43.3792 7.00074C46.6808 6.96852 48.7974 9.42784 48.9409 11.7114C49.0435 13.3387 48.9614 14.9793 48.9614 16.7033ZM14.3346 13.7943C14.7242 13.7943 15.1153 13.8207 15.502 13.7884C16.1875 13.7313 16.6723 13.2347 16.7426 12.5712C16.8203 11.8315 16.4907 11.1196 15.8198 11.0391C14.8472 10.9219 13.8409 10.9321 12.8654 11.0376C12.2444 11.105 11.8474 11.8593 11.906 12.4892C11.969 13.1791 12.4802 13.724 13.1671 13.7855C13.5538 13.8207 13.9464 13.7928 14.3346 13.7943ZM21.1179 13.8031C21.4826 13.8031 21.8488 13.8192 22.212 13.8001C22.9957 13.7577 23.5494 13.2318 23.6167 12.4892C23.6812 11.7964 23.2432 11.0933 22.5108 11.0025C21.654 10.897 20.7663 10.8809 19.9109 10.9849C19.0745 11.0859 18.6922 11.7378 18.7801 12.5741C18.8548 13.286 19.3865 13.7621 20.1672 13.8031C20.4836 13.8177 20.8015 13.8045 21.1179 13.8031ZM27.97 13.8016C28.3347 13.8016 28.7009 13.8192 29.0656 13.7987C29.8376 13.7547 30.3912 13.2142 30.4601 12.4672C30.5216 11.8008 30.0529 11.0728 29.3264 10.9937C28.4446 10.8985 27.5335 10.9043 26.6532 11.0083C25.9603 11.0903 25.5224 11.7949 25.5693 12.4467C25.6235 13.1864 26.1859 13.7474 26.9461 13.7972C27.2874 13.8192 27.6302 13.8001 27.97 13.8016Z" fill="url(#paint1_linear_3_7478)"/>
<path d="M43.0983 41.0213C44.8179 42.7336 46.5536 44.4474 48.2659 46.1816C48.5472 46.4673 48.8328 46.8203 48.9368 47.1923C49.1214 47.8588 48.906 48.4754 48.2557 48.8065C47.6376 49.1214 47.0106 49.054 46.498 48.5575C45.6235 47.7079 44.7681 46.8378 43.9083 45.9722C42.9474 45.0025 41.9924 44.0284 41.0461 43.0676C35.8272 46.6899 29.8232 45.0684 26.7735 41.1604C23.617 37.1162 23.9407 31.3041 27.5308 27.6656C31.1825 23.9642 36.9097 23.5511 41.0637 26.6754C44.9146 29.5698 46.8158 35.6119 43.0983 41.0213ZM27.5572 34.8327C27.4517 38.436 30.3593 42.1404 34.8854 42.1711C38.8915 42.1975 42.1813 38.8476 42.1974 34.8503C42.2121 30.8485 38.931 27.5616 34.9015 27.5411C30.7899 27.5206 27.563 30.7255 27.5572 34.8327Z" fill="url(#paint2_linear_3_7478)"/>
<defs>
<linearGradient id="paint0_linear_3_7478" x1="9.0342" y1="20.0643" x2="27.2243" y2="59.3158" gradientUnits="userSpaceOnUse">
<stop stop-color="#B677F4"/>
<stop offset="1" stop-color="#EDE5F5"/>
</linearGradient>
<linearGradient id="paint1_linear_3_7478" x1="8.99963" y1="7.11583" x2="11.3653" y2="22.5537" gradientUnits="userSpaceOnUse">
<stop stop-color="#B677F4"/>
<stop offset="1" stop-color="#EDE5F5"/>
</linearGradient>
<linearGradient id="paint2_linear_3_7478" x1="25.7676" y1="24.8742" x2="44.0854" y2="52.4723" gradientUnits="userSpaceOnUse">
<stop stop-color="#B677F4"/>
<stop offset="1" stop-color="#EDE5F5"/>
</linearGradient>
</defs>
</svg>
