<svg width="57" height="56" viewBox="0 0 57 56" fill="none" xmlns="http://www.w3.org/2000/svg">
<rect width="56" height="56" transform="translate(0.5)" fill="white"/>
<path d="M10.0839 46.4489C10.0839 46.1386 10.0839 45.8971 10.0839 45.6556C10.0839 42.2827 10.0826 38.9097 10.0839 35.5382C10.0853 34.2807 10.5184 33.8584 11.7758 33.8004C13.2788 33.7316 14.7791 33.6318 16.2807 33.536C17.1266 33.482 17.7176 34.0568 17.727 35.0147C17.7419 36.5662 17.7311 38.1178 17.7311 39.6693C17.7311 41.8941 17.7311 44.1189 17.7311 46.3963C18.5527 46.3963 19.3433 46.3963 20.2028 46.3963C20.2028 46.1359 20.2028 45.8944 20.2028 45.6529C20.2028 41.8982 20.2014 38.1434 20.2028 34.3887C20.2028 33.2486 20.4578 32.9262 21.5317 32.6185C23.0158 32.1922 24.4972 31.7591 25.9759 31.3125C27.1173 30.9685 27.8445 31.5055 27.8472 32.7508C27.854 36.6175 27.8499 40.4856 27.8499 44.3523C27.8499 45.0229 27.8499 45.6934 27.8499 46.4058C28.677 46.4058 29.4514 46.4058 30.3216 46.4058C30.3216 46.144 30.3216 45.8836 30.3216 45.6246C30.3216 40.7001 30.3364 35.7756 30.3095 30.8525C30.3041 29.935 30.6198 29.3576 31.4455 28.9204C32.8904 28.1555 34.2895 27.3001 35.6913 26.4555C36.1973 26.1506 36.6843 25.9118 37.2591 26.2261C37.85 26.5486 37.9714 27.0977 37.9714 27.7156C37.9674 33.6736 37.9687 39.6329 37.9687 45.5909C37.9687 45.8553 37.9687 46.1184 37.9687 46.4139C38.8147 46.4139 39.5891 46.4139 40.4404 46.4139C40.4404 46.1224 40.4404 45.8607 40.4404 45.5976C40.4404 38.3795 40.4472 31.1628 40.431 23.9447C40.4296 23.1905 40.6873 22.6535 41.2189 22.1138C42.7502 20.565 44.2141 18.9514 45.7009 17.3593C46.1056 16.9249 46.5454 16.6106 47.1769 16.8413C47.8083 17.0733 48.0619 17.5617 48.0849 18.1999C48.0903 18.3348 48.0862 18.4697 48.0862 18.6046C48.0862 19.9538 48.0862 21.303 48.0862 22.6522C48.0862 30.2966 48.0862 37.941 48.0862 45.5868C48.0862 45.8499 48.0862 46.1144 48.0862 46.4476C48.4168 46.4476 48.6798 46.4476 48.9443 46.4476C50.0439 46.4503 50.6537 46.8996 50.6685 47.7199C50.6834 48.551 50.0911 49.0056 48.9834 49.0056C38.101 49.0056 27.2185 49.0056 16.336 49.0056C13.9304 49.0056 11.5249 49.007 9.11794 49.0056C8.07637 49.0056 7.48543 48.5348 7.50027 47.7212C7.51376 46.9252 8.12899 46.453 9.15706 46.4489C9.42825 46.4476 9.69808 46.4489 10.0839 46.4489Z" fill="url(#paint0_linear_3_7508)"/>
<path d="M47.2469 8.39279C46.2621 8.39279 45.4337 8.39954 44.6053 8.39144C43.6757 8.382 43.1198 7.90034 43.1144 7.11512C43.1077 6.30427 43.6325 5.84015 44.5783 5.83745C46.1069 5.83206 47.6355 5.83206 49.1641 5.83745C50.1477 5.84015 50.5916 6.21117 50.6212 7.19203C50.6725 8.83128 50.6725 10.4732 50.6658 12.1125C50.6631 12.8748 50.1747 13.3659 49.4785 13.3915C48.7459 13.4185 48.2076 12.9503 48.1239 12.188C48.0969 11.9506 48.1199 11.7064 48.1199 11.2746C47.1296 12.3904 46.2432 13.3578 45.3905 14.3548C42.3144 17.9517 39.0359 21.3247 35.0369 23.9272C30.0895 27.1477 24.7359 29.305 18.9021 30.2764C15.7194 30.8067 12.5286 31.005 9.3108 30.7797C9.04231 30.7608 8.77383 30.7244 8.50939 30.6744C7.88472 30.5544 7.45433 29.9823 7.5056 29.359C7.55687 28.7357 8.06686 28.2149 8.70637 28.2243C9.58198 28.2365 10.4563 28.339 11.3305 28.3498C19.1557 28.4416 26.3914 26.438 33.0145 22.2448C36.7544 19.877 39.9034 16.8616 42.7596 13.5102C44.071 11.9722 45.4364 10.48 46.7761 8.96484C46.9056 8.81778 47.0243 8.66263 47.2469 8.39279Z" fill="url(#paint1_linear_3_7508)"/>
<defs>
<linearGradient id="paint0_linear_3_7508" x1="29.0844" y1="16.7634" x2="38.8794" y2="60.312" gradientUnits="userSpaceOnUse">
<stop stop-color="#E73333"/>
<stop offset="1" stop-color="#DF8D8D"/>
</linearGradient>
<linearGradient id="paint1_linear_3_7508" x1="29.0852" y1="5.8334" x2="35.107" y2="40.3097" gradientUnits="userSpaceOnUse">
<stop stop-color="#E73333"/>
<stop offset="1" stop-color="#DF8D8D"/>
</linearGradient>
</defs>
</svg>
