<svg width="56" height="56" viewBox="0 0 56 56" fill="none" xmlns="http://www.w3.org/2000/svg">
<rect width="56" height="56" fill="white"/>
<path d="M5.83461 28.583C5.83461 21.8691 5.83461 15.1538 5.83461 8.43997C5.83461 7.28278 6.11407 7.0006 7.26177 7.0006C10.6777 7.0006 14.0923 6.99925 17.5083 7.0006C18.5094 7.0006 18.8093 7.28549 18.8093 8.28532C18.8133 21.804 18.8133 35.3226 18.8093 48.8426C18.8093 49.8601 18.5217 50.1409 17.5273 50.1409C14.0665 50.1423 10.6058 50.1423 7.1451 50.1409C6.1412 50.1409 5.83325 49.8234 5.83325 48.7938C5.83461 42.0568 5.83461 35.3199 5.83461 28.583Z" fill="url(#paint0_linear_3_7498)"/>
<path d="M36.0165 19.9793C32.1949 19.9793 28.3733 19.9807 24.5517 19.9793C23.324 19.9793 23.0812 19.7365 23.0812 18.5223C23.0812 15.1552 23.0798 11.7867 23.0812 8.4196C23.0812 7.29768 23.3688 7.0033 24.4636 7.0033C32.1745 7.0033 39.8869 7.0033 47.5979 7.0033C48.7089 7.0033 48.9993 7.29225 48.9993 8.39925C49.0006 11.7447 48.9993 15.0901 48.9993 18.4341C48.9993 19.7744 48.789 19.9793 47.4147 19.9807C43.6149 19.9793 39.815 19.9793 36.0165 19.9793Z" fill="url(#paint1_linear_3_7498)"/>
<path d="M23.0812 37.1174C23.0812 33.2972 23.0812 29.4756 23.0812 25.6554C23.0812 24.5063 23.3566 24.2377 24.5287 24.2377C27.1972 24.2364 29.867 24.2364 32.5354 24.2377C33.6262 24.2391 33.8921 24.5036 33.8921 25.597C33.8934 33.3284 33.8934 41.0611 33.8921 48.7924C33.8921 49.8818 33.6262 50.1422 32.5246 50.1422C29.81 50.1436 27.0954 50.1436 24.3822 50.1422C23.4 50.1409 23.0826 49.8289 23.0826 48.8521C23.0785 44.9396 23.0812 41.0285 23.0812 37.1174Z" fill="url(#paint2_linear_3_7498)"/>
<path d="M38.1627 37.1147C38.1627 33.2958 38.1627 29.4783 38.1627 25.6594C38.1627 24.5023 38.4327 24.2377 39.6048 24.2377C42.295 24.2364 44.9851 24.235 47.6753 24.2377C48.6927 24.2391 48.9966 24.5484 48.9966 25.5753C48.998 33.3257 48.998 41.0746 48.9966 48.825C48.9966 49.837 48.6873 50.1409 47.659 50.1409C44.9241 50.1422 42.1878 50.1422 39.4529 50.1409C38.4734 50.1395 38.1641 49.8302 38.1627 48.8412C38.1614 44.9328 38.1627 41.0244 38.1627 37.1147Z" fill="url(#paint3_linear_3_7498)"/>
<defs>
<linearGradient id="paint0_linear_3_7498" x1="6.03365" y1="6.00003" x2="32.5833" y2="15.3135" gradientUnits="userSpaceOnUse">
<stop stop-color="#F2D17E"/>
<stop offset="1" stop-color="#F0B10E" stop-opacity="0.55"/>
</linearGradient>
<linearGradient id="paint1_linear_3_7498" x1="23.4808" y1="6.7025" x2="32.7502" y2="28.29" gradientUnits="userSpaceOnUse">
<stop stop-color="#F2D17E"/>
<stop offset="1" stop-color="#F0B10E" stop-opacity="0.55"/>
</linearGradient>
<linearGradient id="paint2_linear_3_7498" x1="23.2473" y1="23.6362" x2="43.3306" y2="33.4102" gradientUnits="userSpaceOnUse">
<stop stop-color="#F2D17E"/>
<stop offset="1" stop-color="#F0B10E" stop-opacity="0.55"/>
</linearGradient>
<linearGradient id="paint3_linear_3_7498" x1="38.3294" y1="23.6357" x2="58.4386" y2="33.4432" gradientUnits="userSpaceOnUse">
<stop stop-color="#F2D17E"/>
<stop offset="1" stop-color="#F0B10E" stop-opacity="0.55"/>
</linearGradient>
</defs>
</svg>
