<svg width="57" height="56" viewBox="0 0 57 56" fill="none" xmlns="http://www.w3.org/2000/svg">
<rect width="56" height="56" transform="translate(0.5)" fill="white"/>
<path d="M15.3108 37.2922C13.7623 37.2922 12.2975 37.234 10.8399 37.305C8.30065 37.4284 6.26814 35.5109 6.33485 32.8042C6.43278 28.8556 6.42001 24.9027 6.33911 20.9541C6.28517 18.324 8.36594 16.5143 10.7277 16.5569C15.528 16.6463 20.331 16.5839 25.1327 16.5839C25.3896 16.5839 25.6465 16.5839 25.9588 16.5839C26.017 15.9154 26.0638 15.288 26.1277 14.6621C26.2228 13.7353 26.4144 13.626 27.3171 13.5635C27.7869 13.5309 28.2411 13.264 28.7024 13.1036C28.4611 12.6722 28.3092 12.1399 27.96 11.8333C27.398 11.3408 27.2504 10.9178 27.7954 10.3671C28.7208 9.43321 29.6547 8.50496 30.5915 7.58238C30.9577 7.22186 31.2983 7.31412 31.6333 7.65902C32.0563 8.09335 32.4934 8.73773 33.1577 8.45812C33.829 8.17567 33.6516 7.4078 33.6105 6.81451C33.5721 6.24535 33.8475 5.89619 34.34 5.87348C35.7452 5.80678 37.156 5.78832 38.5597 5.8451C38.7755 5.85361 39.0508 6.33477 39.1559 6.64561C39.2864 7.03593 39.2155 7.49154 39.3319 7.89038C39.4582 8.32754 39.8031 8.49786 40.2118 8.19838C40.5497 7.94999 40.869 7.66612 41.1515 7.3567C41.4609 7.0189 41.7746 6.95645 42.1507 7.19916C43.3784 7.98831 44.4188 8.96908 45.225 10.1926C45.5145 10.6311 45.4379 10.9675 45.0575 11.3082C44.7793 11.5566 44.5068 11.8347 44.3109 12.1484C44.01 12.6338 44.1917 13.0199 44.7467 13.1547C44.9738 13.2101 45.2165 13.2271 45.4507 13.2243C46.4783 13.2073 46.7167 13.3194 46.7735 14.3186C46.843 15.5321 46.7636 16.757 46.7153 17.9748C46.6926 18.5454 46.3562 18.7896 45.7686 18.7711C45.2122 18.7541 44.4344 18.6632 44.2868 19.265C44.1945 19.6426 44.6729 20.2586 45.0391 20.6262C45.506 21.0946 45.5912 21.5005 45.1583 21.9632C44.2911 22.8872 43.4068 23.7984 42.5027 24.6869C42.0272 25.1539 41.5971 25.0773 41.1103 24.5777C40.7824 24.2413 40.1962 23.8311 39.8414 23.9191C39.2453 24.0667 39.3162 24.782 39.3503 25.3228C39.3971 26.0765 39.2254 26.3845 38.4817 26.4966C37.667 26.6187 36.8395 26.6527 35.9524 26.7308C35.9524 27.2673 35.9524 27.8407 35.9524 28.4993C36.2703 28.4596 36.584 28.4184 36.8991 28.3815C42.4218 27.7499 47.7018 31.8901 48.427 37.3844C48.6868 39.3517 48.4867 41.2351 47.75 43.0774C47.6535 43.3201 47.6805 43.6764 47.7827 43.9248C48.2993 45.1653 48.8912 46.3732 49.3865 47.6208C49.527 47.9728 49.5455 48.4724 49.3936 48.7974C49.3198 48.9564 48.7109 48.9479 48.3674 48.8854C47.1397 48.6626 45.9176 48.4057 44.7041 48.1161C44.0739 47.9657 43.553 48.0679 42.9796 48.3801C39.2112 50.424 35.4741 50.2366 31.9314 47.9032C28.6399 45.7359 27.1382 42.548 27.2078 38.6178C27.2163 38.175 27.2532 37.7308 27.2816 37.207C25.5117 37.207 23.7914 37.1928 22.0726 37.2255C21.8597 37.2297 21.6198 37.4483 21.4438 37.6215C19.8641 39.1856 18.3085 40.7753 16.7089 42.3167C16.469 42.548 15.9935 42.7226 15.6997 42.646C15.5024 42.5949 15.3307 42.0569 15.3222 41.7319C15.2881 40.2941 15.3108 38.8535 15.3108 37.2922ZM16.6904 40.2047C16.7472 40.2274 16.804 40.2515 16.8607 40.2742C18.1566 38.9713 19.4638 37.6797 20.7427 36.3582C21.1017 35.9878 21.475 35.8402 21.9888 35.8444C25.0873 35.8643 28.1857 35.8558 31.2841 35.853C33.3919 35.8515 34.4493 34.7828 34.4521 32.6566C34.455 30.9775 34.455 29.2984 34.4521 27.6193C34.4507 27.0998 34.5969 26.5364 33.9284 26.2411C33.812 26.19 33.7865 25.8693 33.768 25.6677C33.741 25.3626 33.7921 25.0489 33.751 24.748C33.6459 23.9872 33.196 23.7899 32.5687 24.2299C32.3401 24.3903 32.1216 24.5862 31.9527 24.8062C31.5964 25.2703 31.1947 25.381 30.7491 24.9822C29.8549 24.1831 28.9167 23.4195 28.1218 22.5295C27.3029 21.6126 27.3696 21.5544 28.2198 20.6844C28.3347 20.5666 28.4483 20.4417 28.5349 20.304C28.9209 19.6937 28.735 19.2523 28.0267 19.1359C27.75 19.0905 27.4618 19.1046 27.1794 19.116C26.6642 19.1359 26.3051 18.967 26.2114 18.4106C26.1816 18.2317 26.1177 18.0586 26.0638 17.8627C25.7884 17.8627 25.5528 17.8627 25.3172 17.8627C20.4687 17.8627 15.6202 17.8627 10.7717 17.8627C8.83148 17.8627 7.73007 18.9357 7.72439 20.8746C7.71304 24.8715 7.71304 28.8683 7.72439 32.8667C7.73007 34.7771 8.81445 35.843 10.7249 35.853C12.3089 35.8615 13.8943 35.853 15.4783 35.8558C16.5471 35.8572 16.6862 35.9992 16.6876 37.0963C16.6918 38.131 16.6904 39.1686 16.6904 40.2047ZM42.4885 16.08C42.4871 12.7871 39.7392 10.0577 36.4222 10.0577C33.1179 10.0563 30.4027 12.7729 30.3928 16.1027C30.3814 19.7206 33.02 22.1633 36.4492 22.2215C39.7321 22.2769 42.4899 19.4169 42.4885 16.08ZM41.3175 39.0025C40.4319 39.8626 39.6413 40.6347 38.845 41.4026C38.5015 41.7347 38.2972 42.0967 38.7031 42.4969C39.0977 42.8858 39.4766 42.7113 39.813 42.3749C40.7157 41.4722 41.6071 40.5581 42.5197 39.6682C42.9767 39.2225 42.9484 38.8492 42.5041 38.4092C41.5971 37.5108 40.7214 36.5825 39.8315 35.6656C39.478 35.3023 39.0735 34.99 38.6307 35.4641C38.2347 35.887 38.4873 36.2773 38.8507 36.6208C39.6526 37.3816 40.4418 38.1551 41.3175 39.0025ZM34.9858 39.0422C35.8729 38.1622 36.6734 37.3702 37.4739 36.5768C37.8217 36.2333 38.0772 35.8515 37.6286 35.43C37.2241 35.051 36.8608 35.2682 36.5301 35.6017C35.6174 36.5229 34.7062 37.4469 33.7765 38.351C33.3025 38.8109 33.3081 39.2097 33.7794 39.6667C34.6764 40.5368 35.5564 41.4239 36.4335 42.3152C36.7813 42.6687 37.156 42.9241 37.5775 42.4927C37.9991 42.0612 37.728 41.6808 37.3788 41.3444C36.5982 40.5978 35.8218 39.847 34.9858 39.0422Z" fill="url(#paint0_linear_3_7487)"/>
<path d="M23.3405 21.1272C23.0524 22.2797 22.8111 23.2605 22.5598 24.2384C21.8601 26.9692 21.1561 29.6972 20.4521 32.4266C20.4166 32.5629 20.3669 32.6949 20.3343 32.8312C20.2179 33.3052 19.8744 33.528 19.443 33.4188C18.993 33.3066 18.8681 32.9404 18.9902 32.4692C19.5494 30.309 20.0888 28.143 20.6395 25.98C21.0454 24.3874 21.43 22.7878 21.8927 21.2109C21.9708 20.9427 22.381 20.6375 22.6649 20.6077C22.8835 20.585 23.1446 20.9654 23.3405 21.1272Z" fill="url(#paint1_linear_3_7487)"/>
<path d="M28.2646 26.972C27.1263 25.8451 26.022 24.7536 24.9192 23.6607C24.7517 23.4946 24.58 23.3314 24.4238 23.1554C24.1385 22.8318 24.0307 22.4116 24.4125 22.1803C24.6523 22.0355 25.1818 22.0511 25.3876 22.2257C26.1072 22.8304 26.7416 23.5358 27.4087 24.2029C28.1085 24.904 28.8011 25.6123 29.5122 26.3021C29.982 26.7591 29.9721 27.165 29.5051 27.6249C28.1595 28.9477 26.8296 30.2876 25.4983 31.6275C25.159 31.9695 24.7886 32.1555 24.3969 31.7722C24.0023 31.3862 24.1868 31.0157 24.5303 30.6779C25.7552 29.4672 26.9744 28.2523 28.2646 26.972Z" fill="url(#paint2_linear_3_7487)"/>
<path d="M13.8107 26.9763C15.0144 28.1601 16.1569 29.2828 17.2981 30.4055C17.4329 30.5375 17.6472 30.6567 17.6785 30.8114C17.7409 31.1151 17.8261 31.5594 17.67 31.724C17.5138 31.8858 16.939 31.9156 16.7772 31.7609C15.2897 30.3473 13.8363 28.8953 12.4198 27.4092C12.2651 27.2474 12.2807 26.6712 12.4425 26.5023C13.8406 25.0332 15.2869 23.6096 16.7275 22.1803C17.0469 21.8638 17.4145 21.8525 17.7211 22.1889C18.0333 22.5323 17.934 22.8772 17.6245 23.1838C16.3854 24.4158 15.1492 25.6464 13.8107 26.9763Z" fill="url(#paint3_linear_3_7487)"/>
<defs>
<linearGradient id="paint0_linear_3_7487" x1="13.4998" y1="14.0001" x2="52.9998" y2="58.0001" gradientUnits="userSpaceOnUse">
<stop stop-color="#1FD588"/>
<stop offset="1" stop-color="#68EDB5"/>
</linearGradient>
<linearGradient id="paint1_linear_3_7487" x1="19.6756" y1="22.9973" x2="27.5049" y2="26.0386" gradientUnits="userSpaceOnUse">
<stop stop-color="#1FD588"/>
<stop offset="1" stop-color="#68EDB5"/>
</linearGradient>
<linearGradient id="paint2_linear_3_7487" x1="25.1113" y1="23.926" x2="33.2999" y2="29.2694" gradientUnits="userSpaceOnUse">
<stop stop-color="#1FD588"/>
<stop offset="1" stop-color="#68EDB5"/>
</linearGradient>
<linearGradient id="paint3_linear_3_7487" x1="13.2417" y1="23.7872" x2="21.3837" y2="29.002" gradientUnits="userSpaceOnUse">
<stop stop-color="#1FD588"/>
<stop offset="1" stop-color="#68EDB5"/>
</linearGradient>
</defs>
</svg>
