<svg width="56" height="56" viewBox="0 0 56 56" fill="none" xmlns="http://www.w3.org/2000/svg">
<rect width="56" height="56" rx="7" fill="white"/>
<path d="M5.00904 48.5171C5.99798 46.9527 6.86105 45.5577 7.75858 44.1837C8.01031 43.7986 8.03279 43.5439 7.73761 43.1438C1.7935 35.072 6.00098 23.9705 15.8034 21.8233C22.9417 20.259 30.2314 25.0328 31.6803 32.2191C33.2102 39.8129 28.3569 47.0112 20.7616 48.3403C18.1784 48.7928 15.6251 48.5216 13.2307 47.4187C12.3661 47.0202 11.6034 47.0277 10.7299 47.2419C8.90036 47.6915 7.05284 48.066 5.00904 48.5171ZM19.6168 37.9834C19.6168 37.2762 19.6453 36.6274 19.6078 35.983C19.5779 35.4736 19.7277 35.2159 20.2312 34.9881C22.0023 34.188 22.9253 32.2775 22.5312 30.415C22.1431 28.5765 20.4664 27.2055 18.5635 27.171C16.2589 27.1276 14.2331 29.1369 14.4804 31.2481C15.1666 31.2481 15.8544 31.2481 16.5826 31.2481C16.626 31.0593 16.6515 30.8885 16.704 30.7282C17.0231 29.7483 18.027 29.2118 19.0235 29.483C19.957 29.7378 20.5204 30.7162 20.3076 31.7126C20.1413 32.4903 19.5509 33.0087 18.6039 33.1361C17.9371 33.226 17.4217 33.4807 17.4007 34.215C17.3662 35.4556 17.3917 36.6993 17.3917 37.9834C18.1304 37.9834 18.8182 37.9834 19.6168 37.9834ZM19.9914 41.3653C19.9704 40.5396 19.2572 39.8804 18.4241 39.9163C17.6255 39.9508 16.9767 40.64 16.9976 41.4327C17.0186 42.2583 17.7319 42.9161 18.5665 42.8801C19.3636 42.8457 20.0124 42.1579 19.9914 41.3653Z" fill="black"/>
<path d="M5.00904 48.5171C5.99798 46.9527 6.86105 45.5577 7.75858 44.1837C8.01031 43.7986 8.03279 43.5439 7.73761 43.1438C1.7935 35.072 6.00098 23.9705 15.8034 21.8233C22.9417 20.259 30.2314 25.0328 31.6803 32.2191C33.2102 39.8129 28.3569 47.0112 20.7616 48.3403C18.1784 48.7928 15.6251 48.5216 13.2307 47.4187C12.3661 47.0202 11.6034 47.0277 10.7299 47.2419C8.90036 47.6915 7.05284 48.066 5.00904 48.5171ZM19.6168 37.9834C19.6168 37.2762 19.6453 36.6274 19.6078 35.983C19.5779 35.4736 19.7277 35.2159 20.2312 34.9881C22.0023 34.188 22.9253 32.2775 22.5312 30.415C22.1431 28.5765 20.4664 27.2055 18.5635 27.171C16.2589 27.1276 14.2331 29.1369 14.4804 31.2481C15.1666 31.2481 15.8544 31.2481 16.5826 31.2481C16.626 31.0593 16.6515 30.8885 16.704 30.7282C17.0231 29.7483 18.027 29.2118 19.0235 29.483C19.957 29.7378 20.5204 30.7162 20.3076 31.7126C20.1413 32.4903 19.5509 33.0087 18.6039 33.1361C17.9371 33.226 17.4217 33.4807 17.4007 34.215C17.3662 35.4556 17.3917 36.6993 17.3917 37.9834C18.1304 37.9834 18.8182 37.9834 19.6168 37.9834ZM19.9914 41.3653C19.9704 40.5396 19.2572 39.8804 18.4241 39.9163C17.6255 39.9508 16.9767 40.64 16.9976 41.4327C17.0186 42.2583 17.7319 42.9161 18.5665 42.8801C19.3636 42.8457 20.0124 42.1579 19.9914 41.3653Z" fill="url(#paint0_linear_3_10633)"/>
<path d="M33.5113 34.6645C33.4559 34.1461 33.4079 33.7025 33.351 33.1646C33.9653 33.2485 34.5392 33.3219 35.1131 33.4073C37.3801 33.7415 39.5423 33.3444 41.5771 32.351C42.2799 32.0079 42.9032 32.0798 43.5865 32.2386C44.8661 32.5353 46.1487 32.8185 47.6126 33.1496C47.0028 32.1817 46.5068 31.3411 45.9554 30.5364C45.5359 29.9251 45.5029 29.4591 45.9974 28.8073C51.42 21.672 47.3819 11.2851 38.5983 9.71034C32.0818 8.54159 25.6837 13.0727 24.6558 19.5937C24.5749 20.1077 24.5524 20.6321 24.494 21.2449C24.079 21.0981 23.6924 21.0157 23.3702 20.8224C23.2189 20.7325 23.1125 20.4223 23.1275 20.2245C23.3552 17.2382 24.464 14.5951 26.5033 12.4194C30.2119 8.46068 34.8224 7.1451 40.0008 8.5386C45.1957 9.93509 48.4622 13.4458 49.6609 18.7246C50.5165 22.4916 49.7418 25.9993 47.5842 29.1909C47.3204 29.5805 47.289 29.8367 47.5572 30.2368C48.2929 31.3321 49.0016 32.4499 49.6609 33.5931C49.8317 33.8898 49.9426 34.4143 49.7928 34.648C49.6504 34.8683 49.1035 34.9702 48.7769 34.9057C46.9728 34.5506 45.1867 34.0996 43.3812 33.7475C42.9287 33.6591 42.3818 33.701 41.9577 33.8763C39.2351 35.0091 36.4526 35.3463 33.5113 34.6645Z" fill="black"/>
<path d="M33.5113 34.6645C33.4559 34.1461 33.4079 33.7025 33.351 33.1646C33.9653 33.2485 34.5392 33.3219 35.1131 33.4073C37.3801 33.7415 39.5423 33.3444 41.5771 32.351C42.2799 32.0079 42.9032 32.0798 43.5865 32.2386C44.8661 32.5353 46.1487 32.8185 47.6126 33.1496C47.0028 32.1817 46.5068 31.3411 45.9554 30.5364C45.5359 29.9251 45.5029 29.4591 45.9974 28.8073C51.42 21.672 47.3819 11.2851 38.5983 9.71034C32.0818 8.54159 25.6837 13.0727 24.6558 19.5937C24.5749 20.1077 24.5524 20.6321 24.494 21.2449C24.079 21.0981 23.6924 21.0157 23.3702 20.8224C23.2189 20.7325 23.1125 20.4223 23.1275 20.2245C23.3552 17.2382 24.464 14.5951 26.5033 12.4194C30.2119 8.46068 34.8224 7.1451 40.0008 8.5386C45.1957 9.93509 48.4622 13.4458 49.6609 18.7246C50.5165 22.4916 49.7418 25.9993 47.5842 29.1909C47.3204 29.5805 47.289 29.8367 47.5572 30.2368C48.2929 31.3321 49.0016 32.4499 49.6609 33.5931C49.8317 33.8898 49.9426 34.4143 49.7928 34.648C49.6504 34.8683 49.1035 34.9702 48.7769 34.9057C46.9728 34.5506 45.1867 34.0996 43.3812 33.7475C42.9287 33.6591 42.3818 33.701 41.9577 33.8763C39.2351 35.0091 36.4526 35.3463 33.5113 34.6645Z" fill="url(#paint1_linear_3_10633)"/>
<path d="M42.4269 18.1297C38.4456 18.1297 34.5109 18.1297 30.5312 18.1297C30.5312 17.4075 30.5312 16.7197 30.5312 15.972C34.4779 15.972 38.4307 15.972 42.4269 15.972C42.4269 16.6688 42.4269 17.3566 42.4269 18.1297Z" fill="black"/>
<path d="M42.4269 18.1297C38.4456 18.1297 34.5109 18.1297 30.5312 18.1297C30.5312 17.4075 30.5312 16.7197 30.5312 15.972C34.4779 15.972 38.4307 15.972 42.4269 15.972C42.4269 16.6688 42.4269 17.3566 42.4269 18.1297Z" fill="url(#paint2_linear_3_10633)"/>
<path d="M30.507 22.6025C30.507 21.8697 30.507 21.1985 30.507 20.4688C34.4793 20.4688 38.4305 20.4688 42.4282 20.4688C42.4282 21.167 42.4282 21.8548 42.4282 22.6025C38.48 22.6025 34.5272 22.6025 30.507 22.6025Z" fill="black"/>
<path d="M30.507 22.6025C30.507 21.8697 30.507 21.1985 30.507 20.4688C34.4793 20.4688 38.4305 20.4688 42.4282 20.4688C42.4282 21.167 42.4282 21.8548 42.4282 22.6025C38.48 22.6025 34.5272 22.6025 30.507 22.6025Z" fill="url(#paint3_linear_3_10633)"/>
<path d="M33.5145 24.9534C36.5038 24.9534 39.4616 24.9534 42.4404 24.9534C42.4404 25.6906 42.4404 26.3814 42.4404 27.1141C39.4511 27.1141 36.4933 27.1141 33.5145 27.1141C33.5145 26.3754 33.5145 25.6846 33.5145 24.9534Z" fill="black"/>
<path d="M33.5145 24.9534C36.5038 24.9534 39.4616 24.9534 42.4404 24.9534C42.4404 25.6906 42.4404 26.3814 42.4404 27.1141C39.4511 27.1141 36.4933 27.1141 33.5145 27.1141C33.5145 26.3754 33.5145 25.6846 33.5145 24.9534Z" fill="url(#paint4_linear_3_10633)"/>
<defs>
<linearGradient id="paint0_linear_3_10633" x1="6.28378" y1="21.8473" x2="26.571" y2="52.3676" gradientUnits="userSpaceOnUse">
<stop stop-color="#B677F4"/>
<stop offset="1" stop-color="#EDE5F5"/>
</linearGradient>
<linearGradient id="paint1_linear_3_10633" x1="24.4059" y1="8.3212" x2="44.7099" y2="38.7784" gradientUnits="userSpaceOnUse">
<stop stop-color="#B677F4"/>
<stop offset="1" stop-color="#EDE5F5"/>
</linearGradient>
<linearGradient id="paint2_linear_3_10633" x1="31.0976" y1="15.9977" x2="31.5143" y2="19.4612" gradientUnits="userSpaceOnUse">
<stop stop-color="#B677F4"/>
<stop offset="1" stop-color="#EDE5F5"/>
</linearGradient>
<linearGradient id="paint3_linear_3_10633" x1="31.0747" y1="20.4941" x2="31.4814" y2="23.9204" gradientUnits="userSpaceOnUse">
<stop stop-color="#B677F4"/>
<stop offset="1" stop-color="#EDE5F5"/>
</linearGradient>
<linearGradient id="paint4_linear_3_10633" x1="33.9395" y1="24.9791" x2="34.4902" y2="28.4092" gradientUnits="userSpaceOnUse">
<stop stop-color="#B677F4"/>
<stop offset="1" stop-color="#EDE5F5"/>
</linearGradient>
</defs>
</svg>
