<svg width="56" height="56" viewBox="0 0 56 56" fill="none" xmlns="http://www.w3.org/2000/svg">
<rect width="56" height="56" fill="white"/>
<path d="M41.5773 27.9034C30.8682 26.706 22.6703 38.8379 29.2071 48.9067C28.9487 48.9239 28.7261 48.9512 28.5036 48.9512C23.0967 48.9541 17.6883 48.9024 12.2813 48.9785C10.1593 49.0086 7.99713 47.458 8 44.7014C8.01005 33.2171 7.9957 21.7313 8.01149 10.2454C8.01436 7.67119 9.74441 6.00287 12.3115 6.00144C17.9582 5.99857 23.6049 6.00287 29.2516 6C31.2143 5.99857 32.8883 6.68628 34.258 8.09186C36.044 9.92528 37.8258 11.7616 39.6018 13.605C40.9198 14.9733 41.5903 16.6028 41.5802 18.5181C41.5658 21.6279 41.5773 24.7362 41.5773 27.9034ZM18.7435 21.671C19.9122 21.671 21.0823 21.681 22.251 21.6681C23.0608 21.6595 23.6293 21.0952 23.6236 20.3458C23.6178 19.5963 23.0493 19.0493 22.2295 19.0464C19.8677 19.0378 17.5045 19.0364 15.1427 19.0464C14.3258 19.0508 13.7558 19.6179 13.763 20.3673C13.7702 21.1196 14.3373 21.6595 15.1643 21.6681C16.3574 21.6796 17.5505 21.671 18.7435 21.671ZM18.7019 28.8496C19.8706 28.8496 21.0407 28.8568 22.2094 28.8467C23.0349 28.8395 23.6078 28.3069 23.6236 27.5646C23.6408 26.7879 23.0593 26.2251 22.1979 26.2222C19.8591 26.2136 17.5203 26.2136 15.1815 26.2222C14.343 26.2251 13.7802 26.7491 13.7601 27.5029C13.7386 28.2739 14.3272 28.8381 15.1916 28.8453C16.3645 28.8568 17.5332 28.8496 18.7019 28.8496ZM18.7048 36.0282C19.8735 36.0282 21.0436 36.0368 22.2123 36.0253C23.0364 36.0182 23.6092 35.4841 23.6236 34.7404C23.6394 33.9651 23.0579 33.4037 22.1965 33.4008C19.8577 33.3937 17.5189 33.3922 15.1801 33.4008C14.343 33.4037 13.7802 33.9306 13.7616 34.6844C13.7429 35.4568 14.3301 36.0167 15.1959 36.0253C16.366 36.0354 17.5361 36.0282 18.7048 36.0282ZM30.1935 21.6681C30.4548 21.6681 30.7175 21.6796 30.9788 21.6652C31.6881 21.6279 32.2264 21.0723 32.2394 20.3817C32.2523 19.6624 31.6995 19.0737 30.9573 19.0479C30.4103 19.0292 29.8618 19.0235 29.3162 19.0536C28.6414 19.0924 28.1346 19.6552 28.1203 20.33C28.1045 21.0234 28.6357 21.6121 29.3378 21.6623C29.6206 21.6824 29.9077 21.6652 30.1935 21.6681ZM30.2308 26.2251C30.2308 26.2236 30.2308 26.2222 30.2308 26.2222C29.9695 26.2222 29.7067 26.2136 29.4454 26.2236C28.6788 26.2552 28.1274 26.7979 28.1203 27.523C28.1131 28.2437 28.6658 28.818 29.4225 28.8438C29.9451 28.8625 30.4706 28.8639 30.9932 28.841C31.6967 28.8108 32.2351 28.2365 32.2408 27.5459C32.2465 26.8554 31.7096 26.271 31.0176 26.2279C30.7548 26.2107 30.4921 26.2251 30.2308 26.2251Z" fill="black"/>
<path d="M41.5773 27.9034C30.8682 26.706 22.6703 38.8379 29.2071 48.9067C28.9487 48.9239 28.7261 48.9512 28.5036 48.9512C23.0967 48.9541 17.6883 48.9024 12.2813 48.9785C10.1593 49.0086 7.99713 47.458 8 44.7014C8.01005 33.2171 7.9957 21.7313 8.01149 10.2454C8.01436 7.67119 9.74441 6.00287 12.3115 6.00144C17.9582 5.99857 23.6049 6.00287 29.2516 6C31.2143 5.99857 32.8883 6.68628 34.258 8.09186C36.044 9.92528 37.8258 11.7616 39.6018 13.605C40.9198 14.9733 41.5903 16.6028 41.5802 18.5181C41.5658 21.6279 41.5773 24.7362 41.5773 27.9034ZM18.7435 21.671C19.9122 21.671 21.0823 21.681 22.251 21.6681C23.0608 21.6595 23.6293 21.0952 23.6236 20.3458C23.6178 19.5963 23.0493 19.0493 22.2295 19.0464C19.8677 19.0378 17.5045 19.0364 15.1427 19.0464C14.3258 19.0508 13.7558 19.6179 13.763 20.3673C13.7702 21.1196 14.3373 21.6595 15.1643 21.6681C16.3574 21.6796 17.5505 21.671 18.7435 21.671ZM18.7019 28.8496C19.8706 28.8496 21.0407 28.8568 22.2094 28.8467C23.0349 28.8395 23.6078 28.3069 23.6236 27.5646C23.6408 26.7879 23.0593 26.2251 22.1979 26.2222C19.8591 26.2136 17.5203 26.2136 15.1815 26.2222C14.343 26.2251 13.7802 26.7491 13.7601 27.5029C13.7386 28.2739 14.3272 28.8381 15.1916 28.8453C16.3645 28.8568 17.5332 28.8496 18.7019 28.8496ZM18.7048 36.0282C19.8735 36.0282 21.0436 36.0368 22.2123 36.0253C23.0364 36.0182 23.6092 35.4841 23.6236 34.7404C23.6394 33.9651 23.0579 33.4037 22.1965 33.4008C19.8577 33.3937 17.5189 33.3922 15.1801 33.4008C14.343 33.4037 13.7802 33.9306 13.7616 34.6844C13.7429 35.4568 14.3301 36.0167 15.1959 36.0253C16.366 36.0354 17.5361 36.0282 18.7048 36.0282ZM30.1935 21.6681C30.4548 21.6681 30.7175 21.6796 30.9788 21.6652C31.6881 21.6279 32.2264 21.0723 32.2394 20.3817C32.2523 19.6624 31.6995 19.0737 30.9573 19.0479C30.4103 19.0292 29.8618 19.0235 29.3162 19.0536C28.6414 19.0924 28.1346 19.6552 28.1203 20.33C28.1045 21.0234 28.6357 21.6121 29.3378 21.6623C29.6206 21.6824 29.9077 21.6652 30.1935 21.6681ZM30.2308 26.2251C30.2308 26.2236 30.2308 26.2222 30.2308 26.2222C29.9695 26.2222 29.7067 26.2136 29.4454 26.2236C28.6788 26.2552 28.1274 26.7979 28.1203 27.523C28.1131 28.2437 28.6658 28.818 29.4225 28.8438C29.9451 28.8625 30.4706 28.8639 30.9932 28.841C31.6967 28.8108 32.2351 28.2365 32.2408 27.5459C32.2465 26.8554 31.7096 26.271 31.0176 26.2279C30.7548 26.2107 30.4921 26.2251 30.2308 26.2251Z" fill="url(#paint0_linear_3_10656)"/>
<path d="M40.209 51.9404C34.3484 51.9347 29.5329 47.1135 29.543 41.2601C29.553 35.3779 34.4173 30.4792 40.288 30.5711C46.4444 30.6673 50.9999 35.4956 50.9999 41.3017C50.9999 47.1896 46.14 51.9462 40.209 51.9404ZM39.1738 40.9672C38.9657 40.5523 38.8321 40.2493 38.667 39.9636C38.2593 39.2587 37.5084 39.0146 36.8365 39.3549C36.1689 39.6923 35.9248 40.4546 36.2765 41.194C36.6958 42.077 37.1294 42.9528 37.5759 43.8229C38.1774 44.9901 39.2427 45.0935 40.0941 44.0741C41.1681 42.7891 42.2362 41.5013 43.3059 40.2149C43.9749 39.4094 43.9749 38.6155 43.3073 38.0742C42.6282 37.5243 41.9089 37.6779 41.2154 38.5164C40.5636 39.3046 39.9046 40.0914 39.1738 40.9672Z" fill="black"/>
<path d="M40.209 51.9404C34.3484 51.9347 29.5329 47.1135 29.543 41.2601C29.553 35.3779 34.4173 30.4792 40.288 30.5711C46.4444 30.6673 50.9999 35.4956 50.9999 41.3017C50.9999 47.1896 46.14 51.9462 40.209 51.9404ZM39.1738 40.9672C38.9657 40.5523 38.8321 40.2493 38.667 39.9636C38.2593 39.2587 37.5084 39.0146 36.8365 39.3549C36.1689 39.6923 35.9248 40.4546 36.2765 41.194C36.6958 42.077 37.1294 42.9528 37.5759 43.8229C38.1774 44.9901 39.2427 45.0935 40.0941 44.0741C41.1681 42.7891 42.2362 41.5013 43.3059 40.2149C43.9749 39.4094 43.9749 38.6155 43.3073 38.0742C42.6282 37.5243 41.9089 37.6779 41.2154 38.5164C40.5636 39.3046 39.9046 40.0914 39.1738 40.9672Z" fill="url(#paint1_linear_3_10656)"/>
<defs>
<linearGradient id="paint0_linear_3_10656" x1="8.51849" y1="5.00381" x2="50.6735" y2="43.409" gradientUnits="userSpaceOnUse">
<stop stop-color="#F2D17E"/>
<stop offset="1" stop-color="#F0B10E" stop-opacity="0.55"/>
</linearGradient>
<linearGradient id="paint1_linear_3_10656" x1="29.8743" y1="30.0745" x2="50.6674" y2="54.4179" gradientUnits="userSpaceOnUse">
<stop stop-color="#F2D17E"/>
<stop offset="1" stop-color="#F0B10E" stop-opacity="0.55"/>
</linearGradient>
</defs>
</svg>
