<svg width="56" height="56" viewBox="0 0 56 56" fill="none" xmlns="http://www.w3.org/2000/svg">
<rect width="56" height="56" fill="white"/>
<path d="M51.0047 9.53116C50.918 12.3963 50.1252 14.9777 49.0471 17.481C46.6614 23.0217 43.2726 27.9107 39.2204 32.3482C38.6203 33.0057 38.3968 33.6058 38.6615 34.4486C38.8807 35.1443 39.0174 35.8679 39.1778 36.5813C39.4322 37.7182 39.166 38.7331 38.3497 39.5553C34.6873 43.2383 31.0146 46.9124 27.3243 50.5674C27.0787 50.8116 26.6315 51.0381 26.333 50.9837C26.1094 50.9425 25.8682 50.4498 25.8138 50.1277C25.3666 47.4537 24.9445 44.7768 24.5533 42.094C24.4135 41.1306 24.7268 40.2495 25.3372 39.4994C25.6726 39.0876 25.624 38.7728 25.2681 38.4198C22.3882 35.5488 19.5215 32.6659 16.6255 29.8125C16.4431 29.6331 15.9136 29.5095 15.7753 29.6286C14.4354 30.7715 12.9219 30.5714 11.3805 30.3141C9.33306 29.9728 7.28272 29.6522 5.23385 29.3168C4.97057 29.2742 4.69846 29.2315 4.45283 29.1359C3.99835 28.9579 3.87627 28.6064 4.13072 28.1946C4.29545 27.9284 4.52785 27.6989 4.75141 27.4739C8.24906 23.9703 11.7599 20.4815 15.2414 16.9648C16.2725 15.9234 17.4432 15.5822 18.8449 15.9425C19.5068 16.1117 20.1864 16.2235 20.8291 16.4426C21.6719 16.7294 22.3014 16.4882 22.9721 15.9425C25.324 14.029 27.6464 12.0639 30.1218 10.3181C33.7298 7.77351 37.5951 5.67316 41.9062 4.53768C43.7844 4.04348 45.6877 3.73607 47.6159 4.31264C49.5427 4.89068 50.5179 6.28062 50.8694 8.17946C50.9606 8.65896 50.9694 9.15316 51.0047 9.53116ZM39.4881 20.636C42.2018 20.6257 44.3007 18.5327 44.333 15.8057C44.3654 13.0906 42.2047 10.9505 39.4705 10.9079C37.1377 10.8711 34.6241 12.6582 34.5696 15.7866C34.5226 18.4856 36.7641 20.6463 39.4881 20.636Z" fill="url(#paint0_linear_3_10664)"/>
<path d="M8.54187 46.0504C8.9287 44.8738 9.25081 43.6721 9.71412 42.5263C10.9746 39.4111 12.5014 36.4429 14.8091 33.9455C15.4121 33.2924 15.6092 33.2689 16.2387 33.8896C17.9434 35.5752 19.6378 37.2725 21.3219 38.9787C21.95 39.6141 21.9103 39.8317 21.2646 40.4804C19.6526 42.1012 17.7625 43.2529 15.6269 44.0736C13.5809 44.8605 11.5836 45.7754 9.56998 46.6461C8.7978 46.98 8.64777 46.8976 8.54187 46.0504Z" fill="url(#paint1_linear_3_10664)"/>
<defs>
<linearGradient id="paint0_linear_3_10664" x1="27.5024" y1="4" x2="45.9086" y2="65.1388" gradientUnits="userSpaceOnUse">
<stop stop-color="#E73333"/>
<stop offset="1" stop-color="#DF8D8D"/>
</linearGradient>
<linearGradient id="paint1_linear_3_10664" x1="15.1567" y1="33.4394" x2="20.455" y2="50.8238" gradientUnits="userSpaceOnUse">
<stop stop-color="#E73333"/>
<stop offset="1" stop-color="#DF8D8D"/>
</linearGradient>
</defs>
</svg>
