<svg width="56" height="56" viewBox="0 0 56 56" fill="none" xmlns="http://www.w3.org/2000/svg">
<rect width="56" height="56" fill="white"/>
<path d="M8.01318 19.39C21.0295 19.39 33.9691 19.39 46.9841 19.39C46.9841 19.6323 46.9841 19.8491 46.9841 20.0646C46.9841 27.7587 46.9598 35.454 47 43.1481C47.0109 45.274 45.3014 46.8082 43.3897 46.7997C32.7953 46.7522 22.2008 46.7534 11.6064 46.7985C9.67157 46.8058 7.99126 45.2607 7.99979 43.2065C8.03145 35.471 8.01318 27.7368 8.01318 20.0013C8.01318 19.8198 8.01318 19.6384 8.01318 19.39ZM32.0477 24.0985C32.0489 23.4215 31.6958 22.9674 31.1892 22.859C30.5743 22.7275 30.1043 22.9929 29.8146 23.6687C28.3376 27.1036 26.8667 30.5421 25.3934 33.9782C24.6129 35.7986 23.819 37.614 23.0605 39.4429C22.6818 40.3549 23.3295 41.1902 24.2622 41.0562C24.8869 40.9661 25.0926 40.4791 25.3033 39.9884C27.4755 34.9158 29.649 29.8432 31.8175 24.7694C31.9259 24.5137 31.9989 24.241 32.0477 24.0985ZM16.7849 31.9631C16.9261 31.8389 17.0284 31.7427 17.1368 31.655C18.5285 30.5385 19.9275 29.4317 21.3095 28.3042C21.8611 27.8536 21.9329 27.1961 21.536 26.6884C21.1439 26.1867 20.4511 26.093 19.9141 26.5167C18.039 28.0022 16.1688 29.4938 14.3131 31.0024C13.6057 31.5783 13.6215 32.3089 14.318 32.9067C14.749 33.2757 15.1995 33.6227 15.6427 33.977C17.0515 35.1033 18.4567 36.2345 19.8727 37.3535C20.417 37.7833 21.1013 37.7297 21.5068 37.2573C21.9342 36.7581 21.8538 36.0701 21.3059 35.5904C21.1378 35.443 20.9588 35.3103 20.7847 35.1703C19.46 34.1073 18.134 33.0443 16.7849 31.9631ZM38.2197 31.9436C38.0639 32.0775 37.975 32.1579 37.8812 32.2334C36.4895 33.35 35.0917 34.458 33.7073 35.5843C33.135 36.0494 33.0571 36.7361 33.4783 37.2439C33.8765 37.7261 34.5669 37.7942 35.1075 37.3656C36.9668 35.8923 38.8225 34.4154 40.6635 32.9189C41.4014 32.3199 41.3843 31.5905 40.6501 30.972C40.0303 30.4496 39.3874 29.954 38.7531 29.4475C37.5342 28.4722 36.3203 27.4908 35.0929 26.5277C34.5511 26.1027 33.8619 26.1819 33.4674 26.675C33.0644 27.1779 33.1447 27.8293 33.672 28.2969C33.8388 28.4442 34.0178 28.5793 34.1919 28.7182C35.5191 29.7811 36.8475 30.8441 38.2197 31.9436Z" fill="black"/>
<path d="M8.01318 19.39C21.0295 19.39 33.9691 19.39 46.9841 19.39C46.9841 19.6323 46.9841 19.8491 46.9841 20.0646C46.9841 27.7587 46.9598 35.454 47 43.1481C47.0109 45.274 45.3014 46.8082 43.3897 46.7997C32.7953 46.7522 22.2008 46.7534 11.6064 46.7985C9.67157 46.8058 7.99126 45.2607 7.99979 43.2065C8.03145 35.471 8.01318 27.7368 8.01318 20.0013C8.01318 19.8198 8.01318 19.6384 8.01318 19.39ZM32.0477 24.0985C32.0489 23.4215 31.6958 22.9674 31.1892 22.859C30.5743 22.7275 30.1043 22.9929 29.8146 23.6687C28.3376 27.1036 26.8667 30.5421 25.3934 33.9782C24.6129 35.7986 23.819 37.614 23.0605 39.4429C22.6818 40.3549 23.3295 41.1902 24.2622 41.0562C24.8869 40.9661 25.0926 40.4791 25.3033 39.9884C27.4755 34.9158 29.649 29.8432 31.8175 24.7694C31.9259 24.5137 31.9989 24.241 32.0477 24.0985ZM16.7849 31.9631C16.9261 31.8389 17.0284 31.7427 17.1368 31.655C18.5285 30.5385 19.9275 29.4317 21.3095 28.3042C21.8611 27.8536 21.9329 27.1961 21.536 26.6884C21.1439 26.1867 20.4511 26.093 19.9141 26.5167C18.039 28.0022 16.1688 29.4938 14.3131 31.0024C13.6057 31.5783 13.6215 32.3089 14.318 32.9067C14.749 33.2757 15.1995 33.6227 15.6427 33.977C17.0515 35.1033 18.4567 36.2345 19.8727 37.3535C20.417 37.7833 21.1013 37.7297 21.5068 37.2573C21.9342 36.7581 21.8538 36.0701 21.3059 35.5904C21.1378 35.443 20.9588 35.3103 20.7847 35.1703C19.46 34.1073 18.134 33.0443 16.7849 31.9631ZM38.2197 31.9436C38.0639 32.0775 37.975 32.1579 37.8812 32.2334C36.4895 33.35 35.0917 34.458 33.7073 35.5843C33.135 36.0494 33.0571 36.7361 33.4783 37.2439C33.8765 37.7261 34.5669 37.7942 35.1075 37.3656C36.9668 35.8923 38.8225 34.4154 40.6635 32.9189C41.4014 32.3199 41.3843 31.5905 40.6501 30.972C40.0303 30.4496 39.3874 29.954 38.7531 29.4475C37.5342 28.4722 36.3203 27.4908 35.0929 26.5277C34.5511 26.1027 33.8619 26.1819 33.4674 26.675C33.0644 27.1779 33.1447 27.8293 33.672 28.2969C33.8388 28.4442 34.0178 28.5793 34.1919 28.7182C35.5191 29.7811 36.8475 30.8441 38.2197 31.9436Z" fill="url(#paint0_linear_3_10646)"/>
<path d="M46.9779 17.1022C33.9677 17.1022 21.0294 17.1022 8.01185 17.1022C8.01185 16.2523 8.00089 15.4267 8.01429 14.6024C8.0362 13.2862 7.96315 11.9553 8.13605 10.6573C8.34304 9.10609 9.7506 7.99806 11.3018 7.99685C22.0984 7.98832 32.895 7.98711 43.6916 7.99685C45.4096 7.99806 46.9 9.39345 46.9609 11.1298C47.0303 13.0962 46.9779 15.0663 46.9779 17.1022ZM37.7289 14.835C38.8041 14.835 39.878 14.8386 40.9532 14.8337C41.7945 14.8301 42.379 14.3309 42.3546 13.6478C42.3315 12.9769 41.7775 12.5203 40.958 12.5191C38.8296 12.5142 36.7 12.5142 34.5717 12.5191C33.7425 12.5215 33.2238 12.9745 33.2238 13.6734C33.2225 14.3723 33.7412 14.8277 34.568 14.8325C35.62 14.8411 36.6745 14.835 37.7289 14.835ZM13.8199 12.5215C13.2512 12.5045 12.6814 13.0378 12.6424 13.6222C12.6047 14.2079 13.1709 14.8143 13.7724 14.8313C14.3386 14.8484 14.9096 14.3138 14.9498 13.7294C14.9888 13.1449 14.4226 12.5398 13.8199 12.5215ZM22.9398 14.8325C23.5133 14.8264 24.0697 14.2749 24.0856 13.6977C24.1014 13.106 23.5182 12.5142 22.9215 12.5203C22.348 12.5264 21.7904 13.0779 21.7758 13.6539C21.7611 14.2481 22.3444 14.8386 22.9398 14.8325ZM17.2499 13.6587C17.2438 14.2968 17.7649 14.8411 18.375 14.8313C18.9704 14.8216 19.4684 14.3065 19.4757 13.6941C19.483 13.0548 18.9618 12.5118 18.3506 12.5215C17.7576 12.5312 17.2572 13.0487 17.2499 13.6587Z" fill="black"/>
<path d="M46.9779 17.1022C33.9677 17.1022 21.0294 17.1022 8.01185 17.1022C8.01185 16.2523 8.00089 15.4267 8.01429 14.6024C8.0362 13.2862 7.96315 11.9553 8.13605 10.6573C8.34304 9.10609 9.7506 7.99806 11.3018 7.99685C22.0984 7.98832 32.895 7.98711 43.6916 7.99685C45.4096 7.99806 46.9 9.39345 46.9609 11.1298C47.0303 13.0962 46.9779 15.0663 46.9779 17.1022ZM37.7289 14.835C38.8041 14.835 39.878 14.8386 40.9532 14.8337C41.7945 14.8301 42.379 14.3309 42.3546 13.6478C42.3315 12.9769 41.7775 12.5203 40.958 12.5191C38.8296 12.5142 36.7 12.5142 34.5717 12.5191C33.7425 12.5215 33.2238 12.9745 33.2238 13.6734C33.2225 14.3723 33.7412 14.8277 34.568 14.8325C35.62 14.8411 36.6745 14.835 37.7289 14.835ZM13.8199 12.5215C13.2512 12.5045 12.6814 13.0378 12.6424 13.6222C12.6047 14.2079 13.1709 14.8143 13.7724 14.8313C14.3386 14.8484 14.9096 14.3138 14.9498 13.7294C14.9888 13.1449 14.4226 12.5398 13.8199 12.5215ZM22.9398 14.8325C23.5133 14.8264 24.0697 14.2749 24.0856 13.6977C24.1014 13.106 23.5182 12.5142 22.9215 12.5203C22.348 12.5264 21.7904 13.0779 21.7758 13.6539C21.7611 14.2481 22.3444 14.8386 22.9398 14.8325ZM17.2499 13.6587C17.2438 14.2968 17.7649 14.8411 18.375 14.8313C18.9704 14.8216 19.4684 14.3065 19.4757 13.6941C19.483 13.0548 18.9618 12.5118 18.3506 12.5215C17.7576 12.5312 17.2572 13.0487 17.2499 13.6587Z" fill="url(#paint1_linear_3_10646)"/>
<defs>
<linearGradient id="paint0_linear_3_10646" x1="14.4746" y1="24.4933" x2="36.6403" y2="60.2881" gradientUnits="userSpaceOnUse">
<stop stop-color="#1FD588"/>
<stop offset="1" stop-color="#68EDB5"/>
</linearGradient>
<linearGradient id="paint1_linear_3_10646" x1="14.4806" y1="9.68655" x2="17.7327" y2="25.4797" gradientUnits="userSpaceOnUse">
<stop stop-color="#1FD588"/>
<stop offset="1" stop-color="#68EDB5"/>
</linearGradient>
</defs>
</svg>
